G75*
%MOIN*%
%OFA0B0*%
%FSLAX25Y25*%
%IPPOS*%
%LPD*%
%AMOC8*
5,1,8,0,0,1.08239X$1,22.5*
%
%ADD10R,0.08800X0.03400*%
%ADD11C,0.06800*%
%ADD12R,0.05131X0.04737*%
D10*
X0034700Y0038000D03*
X0034700Y0043000D03*
X0034700Y0048000D03*
X0034700Y0053000D03*
X0034700Y0058000D03*
X0034700Y0063000D03*
X0034700Y0068000D03*
X0034700Y0073000D03*
X0034700Y0078000D03*
X0034700Y0083000D03*
X0074300Y0083000D03*
X0074300Y0078000D03*
X0074300Y0073000D03*
X0074300Y0068000D03*
X0074300Y0063000D03*
X0074300Y0058000D03*
X0074300Y0053000D03*
X0074300Y0048000D03*
X0074300Y0043000D03*
X0074300Y0038000D03*
D11*
X0022500Y0015500D02*
X0016500Y0015500D01*
X0016500Y0025500D02*
X0022500Y0025500D01*
X0022500Y0035500D02*
X0016500Y0035500D01*
X0016500Y0045500D02*
X0022500Y0045500D01*
X0022500Y0055500D02*
X0016500Y0055500D01*
X0016500Y0065500D02*
X0022500Y0065500D01*
X0022500Y0075500D02*
X0016500Y0075500D01*
X0016500Y0085500D02*
X0022500Y0085500D01*
X0022500Y0095500D02*
X0016500Y0095500D01*
X0016500Y0105500D02*
X0022500Y0105500D01*
X0086500Y0105500D02*
X0092500Y0105500D01*
X0092500Y0095500D02*
X0086500Y0095500D01*
X0086500Y0085500D02*
X0092500Y0085500D01*
X0092500Y0075500D02*
X0086500Y0075500D01*
X0086500Y0065500D02*
X0092500Y0065500D01*
X0092500Y0055500D02*
X0086500Y0055500D01*
X0086500Y0045500D02*
X0092500Y0045500D01*
X0092500Y0035500D02*
X0086500Y0035500D01*
X0086500Y0025500D02*
X0092500Y0025500D01*
X0092500Y0015500D02*
X0086500Y0015500D01*
D12*
X0049346Y0028500D03*
X0042654Y0028500D03*
X0060654Y0093500D03*
X0067346Y0093500D03*
M02*
