M48
;GenerationSoftware,Autodesk,EAGLE,9.0.0*%
;CreationDate,2018-04-29T07:43:32Z*%
FMAT,2
ICI,OFF
METRIC,TZ,000.000
T2C0.900
T1C1.016
%
G90
M71
T1
X11100Y7874
X8560Y7874
X6020Y7874
X11100Y5334
X8560Y5334
X6020Y5334
X15875Y2540
X18415Y2540
X20955Y2540
X23495Y2540
X26035Y2540
X13462Y25781
X16002Y25781
X18542Y25781
X21082Y25781
X23622Y25781
X26162Y25781
X28702Y25781
X29083Y2667
X29083Y5207
X29083Y7747
X29083Y10287
X29083Y12827
X29083Y15367
X29083Y17907
X29083Y20447
X29083Y22987
T2
X8931Y23495
X4531Y23495
M30