G04 EAGLE Gerber X2 export*
%TF.Part,Single*%
%TF.FileFunction,Paste,Top*%
%TF.FilePolarity,Positive*%
%TF.GenerationSoftware,Autodesk,EAGLE,9.0.0*%
%TF.CreationDate,2018-04-29T07:43:32Z*%
G75*
%MOMM*%
%FSLAX34Y34*%
%LPD*%
%AMOC8*
5,1,8,0,0,1.08239X$1,22.5*%
G01*
%ADD10R,1.000000X1.100000*%
%ADD11R,1.100000X1.000000*%
%ADD12R,1.470000X1.270000*%
%ADD13R,0.800000X0.800000*%
%ADD14R,1.500000X0.500000*%
%ADD15R,0.500000X1.500000*%
%ADD16R,2.000000X2.500000*%
%ADD17R,2.000000X3.300000*%
%ADD18R,0.500000X3.100000*%
%ADD19R,1.450000X0.800000*%
%ADD20R,0.900000X1.270000*%
%ADD21R,0.900000X0.700000*%


D10*
X52832Y138040D03*
X52832Y121040D03*
X95250Y121548D03*
X95250Y138548D03*
D11*
X141360Y223520D03*
X158360Y223520D03*
D12*
X29718Y53938D03*
X29718Y96938D03*
D13*
X128778Y187064D03*
X128778Y202064D03*
D10*
X159630Y61468D03*
X142630Y61468D03*
D11*
X128778Y211464D03*
X128778Y228464D03*
X67818Y170806D03*
X67818Y153806D03*
D10*
X85988Y165100D03*
X102988Y165100D03*
D14*
X126150Y179700D03*
X126150Y171700D03*
X126150Y163700D03*
X126150Y155700D03*
X126150Y147700D03*
X126150Y139700D03*
X126150Y131700D03*
X126150Y123700D03*
X126150Y115700D03*
X126150Y107700D03*
X126150Y99700D03*
D15*
X144150Y81700D03*
X152150Y81700D03*
X160150Y81700D03*
X168150Y81700D03*
X176150Y81700D03*
X184150Y81700D03*
X192150Y81700D03*
X200150Y81700D03*
X208150Y81700D03*
X216150Y81700D03*
X224150Y81700D03*
D14*
X242150Y99700D03*
X242150Y107700D03*
X242150Y115700D03*
X242150Y123700D03*
X242150Y131700D03*
X242150Y139700D03*
X242150Y147700D03*
X242150Y155700D03*
X242150Y163700D03*
X242150Y171700D03*
X242150Y179700D03*
D15*
X224150Y197700D03*
X216150Y197700D03*
X208150Y197700D03*
X200150Y197700D03*
X192150Y197700D03*
X184150Y197700D03*
X176150Y197700D03*
X168150Y197700D03*
X160150Y197700D03*
X152150Y197700D03*
X144150Y197700D03*
D16*
X22810Y264950D03*
X111810Y264950D03*
D17*
X22810Y205950D03*
X111810Y205950D03*
D18*
X83310Y204950D03*
X75310Y204950D03*
X67310Y204950D03*
X59310Y204950D03*
X51310Y204950D03*
D19*
X39410Y15240D03*
X107910Y15240D03*
D20*
X52660Y31590D03*
X94660Y31590D03*
D21*
X234950Y208430D03*
X234950Y195430D03*
M02*
