<?xml version="1.0" encoding="UTF-8" standalone="no"?>
<svg
   xmlns:dc="http://purl.org/dc/elements/1.1/"
   xmlns:cc="http://creativecommons.org/ns#"
   xmlns:rdf="http://www.w3.org/1999/02/22-rdf-syntax-ns#"
   xmlns:svg="http://www.w3.org/2000/svg"
   xmlns="http://www.w3.org/2000/svg"
   xmlns:sodipodi="http://sodipodi.sourceforge.net/DTD/sodipodi-0.dtd"
   xmlns:inkscape="http://www.inkscape.org/namespaces/inkscape"
   width="744.094488189"
   height="1052.36220472"
   id="svg2"
   version="1.1"
   inkscape:version="0.48.2 r9819"
   sodipodi:docname="pad1.pdf">
  <metadata
     id="metadata30">
    <rdf:RDF>
      <cc:Work
         rdf:about="">
        <dc:format>image/svg+xml</dc:format>
        <dc:type
           rdf:resource="http://purl.org/dc/dcmitype/StillImage" />
        <dc:title></dc:title>
      </cc:Work>
    </rdf:RDF>
  </metadata>
  <sodipodi:namedview
     pagecolor="#ffffff"
     bordercolor="#666666"
     borderopacity="1"
     objecttolerance="10"
     gridtolerance="10"
     guidetolerance="10"
     inkscape:pageopacity="0"
     inkscape:pageshadow="2"
     inkscape:window-width="1366"
     inkscape:window-height="705"
     id="namedview28"
     showgrid="false"
     inkscape:zoom="7.1762366"
     inkscape:cx="84.755231"
     inkscape:cy="44.595805"
     inkscape:window-x="-8"
     inkscape:window-y="-8"
     inkscape:window-maximized="1"
     inkscape:current-layer="g20" />
  <desc
     id="desc4">D:\Documents\Eagle_7\TicTacToe\pad.dxf - scale = 1.000000</desc>
  <defs
     id="defs6">
    <marker
       refY="0.0"
       refX="0.0"
       style="overflow:visible"
       id="DistanceX"
       orient="auto">
      <path
         style="stroke:#000000; stroke-width:0.5"
         d="M 3,-3 L -3,3 M 0,-5 L  0,5"
         id="path9" />
    </marker>
    <pattern
       height="8"
       width="8"
       patternUnits="userSpaceOnUse"
       y="0"
       x="0"
       id="Hatch">
      <path
         linecap="square"
         stroke="#000000"
         stroke-width="0.25"
         d="M8 4 l-4,4"
         id="path12" />
      <path
         linecap="square"
         stroke="#000000"
         stroke-width="0.25"
         d="M6 2 l-4,4"
         id="path14" />
      <path
         linecap="square"
         stroke="#000000"
         stroke-width="0.25"
         d="M4 0 l-4,4"
         id="path16" />
    </pattern>
    <symbol
       id="*MODEL_SPACE" />
    <symbol
       id="*PAPER_SPACE" />
  </defs>
  <g
     inkscape:label="0"
     inkscape:groupmode="layer"
     id="g20">
    <path
       style="fill:#000000;stroke:#000000;fill-opacity:1"
       d="m 56.794351,1030.1597 19.629922,0 5.031496,-5.0315 0,-5.7047 -5.492126,0 0,3.4298 -1.814283,1.8143 -15.080096,0 -1.814283,-1.8143 0,-15.0801 1.814283,-1.8143 15.080096,0 1.814283,1.8143 0,3.4298 5.492126,0 0,-5.7047 -5.031496,-5.0315 -19.629922,0 -5.031496,5.0315 0,19.6299 5.031496,5.0315 z"
       id="path22"
       inkscape:connector-curvature="0" />
    <path
       style="fill:#000000;stroke:#000000;fill-opacity:1"
       d="m 81.455769,1015.3132 0,-1.6299"
       id="path24"
       inkscape:connector-curvature="0" />
    <path
       style="fill:#000000;stroke:#000000;fill-opacity:1"
       d="m 72.555315,1016.9432 8.900454,0 0,-3.2599 -8.900454,0 a 6.165354,6.165354 0 1 0 0,3.2599 z"
       id="path26"
       inkscape:connector-curvature="0" />
  </g>
</svg>
