G04 EAGLE Gerber X2 export*
%TF.Part,Single*%
%TF.FileFunction,Copper,L2,Bot,Mixed*%
%TF.FilePolarity,Positive*%
%TF.GenerationSoftware,Autodesk,EAGLE,8.6.3*%
%TF.CreationDate,2018-02-24T21:50:36Z*%
G75*
%MOMM*%
%FSLAX34Y34*%
%LPD*%
%AMOC8*
5,1,8,0,0,1.08239X$1,22.5*%
G01*
%ADD10P,1.429621X8X22.500000*%
%ADD11C,1.320800*%
%ADD12R,1.500000X1.300000*%
%ADD13R,1.470000X1.270000*%
%ADD14P,2.749271X8X22.500000*%
%ADD15P,1.429621X8X292.500000*%
%ADD16P,1.429621X8X112.500000*%
%ADD17R,2.540000X3.302000*%
%ADD18R,0.762000X0.508000*%
%ADD19R,1.910000X4.060000*%
%ADD20C,0.812800*%
%ADD21C,0.609600*%


D10*
X11888Y-46424D03*
D11*
X-8432Y-46424D03*
D12*
X27132Y20116D03*
X27132Y39116D03*
D13*
X-45530Y828D03*
X-45530Y-42172D03*
D14*
X27644Y63672D03*
D15*
X58688Y4960D03*
X58688Y-20440D03*
D16*
X51457Y44833D03*
X51457Y70233D03*
D12*
X42572Y-21924D03*
X42572Y-2924D03*
D17*
X1900Y-10900D03*
D18*
X27300Y-4550D03*
X27300Y-17250D03*
X27300Y8150D03*
X27300Y-29950D03*
X-23500Y-29950D03*
X-23500Y-17250D03*
X-23500Y-4550D03*
X-23500Y8150D03*
D14*
X-75504Y-1268D03*
D19*
X-1100Y58757D03*
X-70900Y58757D03*
D20*
X58688Y-20440D02*
X63560Y-20440D01*
X78000Y-6000D01*
X78000Y36000D01*
X69000Y45000D01*
X68833Y44833D01*
X51457Y44833D01*
X-4450Y-4550D02*
X-23500Y-4550D01*
X-4450Y-4550D02*
X1900Y-10900D01*
X8950Y-29950D02*
X27300Y-29950D01*
X1900Y-22900D02*
X1900Y-10900D01*
X1900Y-22900D02*
X8950Y-29950D01*
X11888Y-32888D02*
X11888Y-46424D01*
X11888Y-32888D02*
X8950Y-29950D01*
X27132Y39116D02*
X27132Y63160D01*
X27644Y63672D01*
X27132Y39116D02*
X21116Y39116D01*
X1900Y19900D02*
X1900Y-10900D01*
X1900Y19900D02*
X21116Y39116D01*
D21*
X-23500Y-17250D02*
X-23500Y-29950D01*
D20*
X-23500Y-31356D02*
X-8432Y-46424D01*
X-23500Y-31356D02*
X-23500Y-29950D01*
X-35722Y-42172D01*
X-45530Y-42172D01*
X-75504Y-12198D02*
X-75504Y-1268D01*
X-75504Y-12198D02*
X-45530Y-42172D01*
D21*
X38648Y-18000D02*
X42572Y-21924D01*
X28050Y-18000D02*
X27300Y-17250D01*
X28050Y-18000D02*
X38648Y-18000D01*
D20*
X-8432Y-46424D02*
X-8432Y-56568D01*
X0Y-65000D01*
X22000Y-65000D01*
X42572Y-44428D02*
X42572Y-21924D01*
X42572Y-44428D02*
X22000Y-65000D01*
X27300Y8150D02*
X27300Y19948D01*
X27132Y20116D01*
D21*
X27300Y-4550D02*
X40946Y-4550D01*
X42572Y-2924D01*
X50804Y-2924D01*
X58688Y4960D01*
D20*
X-38209Y8150D02*
X-45530Y828D01*
X-38209Y8150D02*
X-23500Y8150D01*
X-45530Y33388D02*
X-70900Y58757D01*
X-45530Y33388D02*
X-45530Y828D01*
X51457Y70233D02*
X51457Y78543D01*
X39000Y91000D01*
X10000Y91000D01*
X-1100Y79900D02*
X-1100Y58757D01*
X-1100Y79900D02*
X10000Y91000D01*
M02*
