G04 EAGLE Gerber X2 export*
%TF.Part,Single*%
%TF.FileFunction,Legend,Top,1*%
%TF.FilePolarity,Positive*%
%TF.GenerationSoftware,Autodesk,EAGLE,8.6.3*%
%TF.CreationDate,2018-02-24T21:50:36Z*%
G75*
%MOMM*%
%FSLAX34Y34*%
%LPD*%
%AMOC8*
5,1,8,0,0,1.08239X$1,22.5*%
G01*
%ADD10C,0.152400*%
%ADD11C,0.127000*%
%ADD12C,0.203200*%
%ADD13C,0.254000*%


D10*
X-10972Y-28644D02*
X-5892Y-28644D01*
X-8432Y-31184D02*
X-8432Y-26104D01*
X-23672Y-46424D02*
X-23664Y-45801D01*
X-23641Y-45178D01*
X-23603Y-44555D01*
X-23550Y-43934D01*
X-23481Y-43315D01*
X-23397Y-42697D01*
X-23298Y-42082D01*
X-23184Y-41469D01*
X-23055Y-40859D01*
X-22911Y-40252D01*
X-22752Y-39649D01*
X-22578Y-39051D01*
X-22390Y-38456D01*
X-22187Y-37867D01*
X-21970Y-37283D01*
X-21739Y-36704D01*
X-21493Y-36131D01*
X-21233Y-35564D01*
X-20960Y-35004D01*
X-20673Y-34451D01*
X-20372Y-33904D01*
X-20058Y-33366D01*
X-19731Y-32835D01*
X-19391Y-32313D01*
X-19039Y-31798D01*
X-18673Y-31293D01*
X-18296Y-30797D01*
X-17906Y-30310D01*
X-17505Y-29833D01*
X-17092Y-29366D01*
X-16668Y-28910D01*
X-16233Y-28463D01*
X-15786Y-28028D01*
X-15330Y-27604D01*
X-14863Y-27191D01*
X-14386Y-26790D01*
X-13899Y-26400D01*
X-13403Y-26023D01*
X-12898Y-25657D01*
X-12383Y-25305D01*
X-11861Y-24965D01*
X-11330Y-24638D01*
X-10792Y-24324D01*
X-10245Y-24023D01*
X-9692Y-23736D01*
X-9132Y-23463D01*
X-8565Y-23203D01*
X-7992Y-22957D01*
X-7413Y-22726D01*
X-6829Y-22509D01*
X-6240Y-22306D01*
X-5645Y-22118D01*
X-5047Y-21944D01*
X-4444Y-21785D01*
X-3837Y-21641D01*
X-3227Y-21512D01*
X-2614Y-21398D01*
X-1999Y-21299D01*
X-1381Y-21215D01*
X-762Y-21146D01*
X-141Y-21093D01*
X482Y-21055D01*
X1105Y-21032D01*
X1728Y-21024D01*
X2351Y-21032D01*
X2974Y-21055D01*
X3597Y-21093D01*
X4218Y-21146D01*
X4837Y-21215D01*
X5455Y-21299D01*
X6070Y-21398D01*
X6683Y-21512D01*
X7293Y-21641D01*
X7900Y-21785D01*
X8503Y-21944D01*
X9101Y-22118D01*
X9696Y-22306D01*
X10285Y-22509D01*
X10869Y-22726D01*
X11448Y-22957D01*
X12021Y-23203D01*
X12588Y-23463D01*
X13148Y-23736D01*
X13701Y-24023D01*
X14248Y-24324D01*
X14786Y-24638D01*
X15317Y-24965D01*
X15839Y-25305D01*
X16354Y-25657D01*
X16859Y-26023D01*
X17355Y-26400D01*
X17842Y-26790D01*
X18319Y-27191D01*
X18786Y-27604D01*
X19242Y-28028D01*
X19689Y-28463D01*
X20124Y-28910D01*
X20548Y-29366D01*
X20961Y-29833D01*
X21362Y-30310D01*
X21752Y-30797D01*
X22129Y-31293D01*
X22495Y-31798D01*
X22847Y-32313D01*
X23187Y-32835D01*
X23514Y-33366D01*
X23828Y-33904D01*
X24129Y-34451D01*
X24416Y-35004D01*
X24689Y-35564D01*
X24949Y-36131D01*
X25195Y-36704D01*
X25426Y-37283D01*
X25643Y-37867D01*
X25846Y-38456D01*
X26034Y-39051D01*
X26208Y-39649D01*
X26367Y-40252D01*
X26511Y-40859D01*
X26640Y-41469D01*
X26754Y-42082D01*
X26853Y-42697D01*
X26937Y-43315D01*
X27006Y-43934D01*
X27059Y-44555D01*
X27097Y-45178D01*
X27120Y-45801D01*
X27128Y-46424D01*
X27120Y-47047D01*
X27097Y-47670D01*
X27059Y-48293D01*
X27006Y-48914D01*
X26937Y-49533D01*
X26853Y-50151D01*
X26754Y-50766D01*
X26640Y-51379D01*
X26511Y-51989D01*
X26367Y-52596D01*
X26208Y-53199D01*
X26034Y-53797D01*
X25846Y-54392D01*
X25643Y-54981D01*
X25426Y-55565D01*
X25195Y-56144D01*
X24949Y-56717D01*
X24689Y-57284D01*
X24416Y-57844D01*
X24129Y-58397D01*
X23828Y-58944D01*
X23514Y-59482D01*
X23187Y-60013D01*
X22847Y-60535D01*
X22495Y-61050D01*
X22129Y-61555D01*
X21752Y-62051D01*
X21362Y-62538D01*
X20961Y-63015D01*
X20548Y-63482D01*
X20124Y-63938D01*
X19689Y-64385D01*
X19242Y-64820D01*
X18786Y-65244D01*
X18319Y-65657D01*
X17842Y-66058D01*
X17355Y-66448D01*
X16859Y-66825D01*
X16354Y-67191D01*
X15839Y-67543D01*
X15317Y-67883D01*
X14786Y-68210D01*
X14248Y-68524D01*
X13701Y-68825D01*
X13148Y-69112D01*
X12588Y-69385D01*
X12021Y-69645D01*
X11448Y-69891D01*
X10869Y-70122D01*
X10285Y-70339D01*
X9696Y-70542D01*
X9101Y-70730D01*
X8503Y-70904D01*
X7900Y-71063D01*
X7293Y-71207D01*
X6683Y-71336D01*
X6070Y-71450D01*
X5455Y-71549D01*
X4837Y-71633D01*
X4218Y-71702D01*
X3597Y-71755D01*
X2974Y-71793D01*
X2351Y-71816D01*
X1728Y-71824D01*
X1105Y-71816D01*
X482Y-71793D01*
X-141Y-71755D01*
X-762Y-71702D01*
X-1381Y-71633D01*
X-1999Y-71549D01*
X-2614Y-71450D01*
X-3227Y-71336D01*
X-3837Y-71207D01*
X-4444Y-71063D01*
X-5047Y-70904D01*
X-5645Y-70730D01*
X-6240Y-70542D01*
X-6829Y-70339D01*
X-7413Y-70122D01*
X-7992Y-69891D01*
X-8565Y-69645D01*
X-9132Y-69385D01*
X-9692Y-69112D01*
X-10245Y-68825D01*
X-10792Y-68524D01*
X-11330Y-68210D01*
X-11861Y-67883D01*
X-12383Y-67543D01*
X-12898Y-67191D01*
X-13403Y-66825D01*
X-13899Y-66448D01*
X-14386Y-66058D01*
X-14863Y-65657D01*
X-15330Y-65244D01*
X-15786Y-64820D01*
X-16233Y-64385D01*
X-16668Y-63938D01*
X-17092Y-63482D01*
X-17505Y-63015D01*
X-17906Y-62538D01*
X-18296Y-62051D01*
X-18673Y-61555D01*
X-19039Y-61050D01*
X-19391Y-60535D01*
X-19731Y-60013D01*
X-20058Y-59482D01*
X-20372Y-58944D01*
X-20673Y-58397D01*
X-20960Y-57844D01*
X-21233Y-57284D01*
X-21493Y-56717D01*
X-21739Y-56144D01*
X-21970Y-55565D01*
X-22187Y-54981D01*
X-22390Y-54392D01*
X-22578Y-53797D01*
X-22752Y-53199D01*
X-22911Y-52596D01*
X-23055Y-51989D01*
X-23184Y-51379D01*
X-23298Y-50766D01*
X-23397Y-50151D01*
X-23481Y-49533D01*
X-23550Y-48914D01*
X-23603Y-48293D01*
X-23641Y-47670D01*
X-23664Y-47047D01*
X-23672Y-46424D01*
D11*
X30303Y-35629D02*
X32843Y-35629D01*
X30303Y-35629D02*
X30203Y-35627D01*
X30104Y-35621D01*
X30004Y-35611D01*
X29906Y-35598D01*
X29807Y-35580D01*
X29710Y-35559D01*
X29614Y-35534D01*
X29518Y-35505D01*
X29424Y-35472D01*
X29331Y-35436D01*
X29240Y-35396D01*
X29150Y-35352D01*
X29062Y-35305D01*
X28976Y-35255D01*
X28892Y-35201D01*
X28810Y-35144D01*
X28731Y-35084D01*
X28653Y-35020D01*
X28579Y-34954D01*
X28507Y-34885D01*
X28438Y-34813D01*
X28372Y-34739D01*
X28308Y-34661D01*
X28248Y-34582D01*
X28191Y-34500D01*
X28137Y-34416D01*
X28087Y-34330D01*
X28040Y-34242D01*
X27996Y-34152D01*
X27956Y-34061D01*
X27920Y-33968D01*
X27887Y-33874D01*
X27858Y-33778D01*
X27833Y-33682D01*
X27812Y-33585D01*
X27794Y-33486D01*
X27781Y-33388D01*
X27771Y-33288D01*
X27765Y-33189D01*
X27763Y-33089D01*
X27763Y-26739D01*
X27765Y-26639D01*
X27771Y-26540D01*
X27781Y-26440D01*
X27794Y-26342D01*
X27812Y-26243D01*
X27833Y-26146D01*
X27858Y-26050D01*
X27887Y-25954D01*
X27920Y-25860D01*
X27956Y-25767D01*
X27996Y-25676D01*
X28040Y-25586D01*
X28087Y-25498D01*
X28137Y-25412D01*
X28191Y-25328D01*
X28248Y-25246D01*
X28308Y-25167D01*
X28372Y-25089D01*
X28438Y-25015D01*
X28507Y-24943D01*
X28579Y-24874D01*
X28653Y-24808D01*
X28731Y-24744D01*
X28810Y-24684D01*
X28892Y-24627D01*
X28976Y-24573D01*
X29062Y-24523D01*
X29150Y-24476D01*
X29240Y-24432D01*
X29331Y-24392D01*
X29424Y-24356D01*
X29518Y-24323D01*
X29614Y-24294D01*
X29710Y-24269D01*
X29807Y-24248D01*
X29906Y-24230D01*
X30004Y-24217D01*
X30104Y-24207D01*
X30203Y-24201D01*
X30303Y-24199D01*
X32843Y-24199D01*
X37325Y-26739D02*
X40500Y-24199D01*
X40500Y-35629D01*
X37325Y-35629D02*
X43675Y-35629D01*
D10*
X40344Y71292D02*
X40344Y76372D01*
X35264Y76372D01*
X20024Y76372D02*
X14944Y76372D01*
X14944Y71292D01*
X14944Y56052D02*
X14944Y50972D01*
X20024Y50972D01*
X35264Y50972D02*
X40344Y50972D01*
X40344Y56052D01*
D11*
X21929Y85897D02*
X20024Y85897D01*
X21929Y85897D02*
X21929Y79547D01*
X18119Y79547D01*
X18019Y79549D01*
X17920Y79555D01*
X17820Y79565D01*
X17722Y79578D01*
X17623Y79596D01*
X17526Y79617D01*
X17430Y79642D01*
X17334Y79671D01*
X17240Y79704D01*
X17147Y79740D01*
X17056Y79780D01*
X16966Y79824D01*
X16878Y79871D01*
X16792Y79921D01*
X16708Y79975D01*
X16626Y80032D01*
X16547Y80092D01*
X16469Y80156D01*
X16395Y80222D01*
X16323Y80291D01*
X16254Y80363D01*
X16188Y80437D01*
X16124Y80515D01*
X16064Y80594D01*
X16007Y80676D01*
X15953Y80760D01*
X15903Y80846D01*
X15856Y80934D01*
X15812Y81024D01*
X15772Y81115D01*
X15736Y81208D01*
X15703Y81302D01*
X15674Y81398D01*
X15649Y81494D01*
X15628Y81591D01*
X15610Y81690D01*
X15597Y81788D01*
X15587Y81888D01*
X15581Y81987D01*
X15579Y82087D01*
X15579Y88437D01*
X15581Y88537D01*
X15587Y88636D01*
X15597Y88736D01*
X15610Y88834D01*
X15628Y88933D01*
X15649Y89030D01*
X15674Y89126D01*
X15703Y89222D01*
X15736Y89316D01*
X15772Y89409D01*
X15812Y89500D01*
X15856Y89590D01*
X15903Y89678D01*
X15953Y89764D01*
X16007Y89848D01*
X16064Y89930D01*
X16124Y90009D01*
X16188Y90087D01*
X16254Y90161D01*
X16323Y90233D01*
X16395Y90302D01*
X16469Y90368D01*
X16547Y90432D01*
X16626Y90492D01*
X16708Y90549D01*
X16792Y90603D01*
X16878Y90653D01*
X16966Y90700D01*
X17056Y90744D01*
X17147Y90784D01*
X17240Y90820D01*
X17334Y90853D01*
X17430Y90882D01*
X17526Y90907D01*
X17623Y90928D01*
X17722Y90946D01*
X17820Y90959D01*
X17920Y90969D01*
X18019Y90975D01*
X18119Y90977D01*
X21929Y90977D01*
X27771Y90977D02*
X27771Y79547D01*
X34121Y79547D02*
X27771Y90977D01*
X34121Y90977D02*
X34121Y79547D01*
X39963Y79547D02*
X39963Y90977D01*
X43138Y90977D01*
X43249Y90975D01*
X43359Y90969D01*
X43470Y90960D01*
X43580Y90946D01*
X43689Y90929D01*
X43798Y90908D01*
X43906Y90883D01*
X44013Y90854D01*
X44119Y90822D01*
X44224Y90786D01*
X44327Y90746D01*
X44429Y90703D01*
X44530Y90656D01*
X44629Y90605D01*
X44726Y90552D01*
X44820Y90495D01*
X44913Y90434D01*
X45004Y90371D01*
X45093Y90304D01*
X45179Y90234D01*
X45262Y90161D01*
X45344Y90086D01*
X45422Y90008D01*
X45497Y89926D01*
X45570Y89843D01*
X45640Y89757D01*
X45707Y89668D01*
X45770Y89577D01*
X45831Y89484D01*
X45888Y89390D01*
X45941Y89293D01*
X45992Y89194D01*
X46039Y89093D01*
X46082Y88991D01*
X46122Y88888D01*
X46158Y88783D01*
X46190Y88677D01*
X46219Y88570D01*
X46244Y88462D01*
X46265Y88353D01*
X46282Y88244D01*
X46296Y88134D01*
X46305Y88023D01*
X46311Y87913D01*
X46313Y87802D01*
X46313Y82722D01*
X46311Y82611D01*
X46305Y82501D01*
X46296Y82390D01*
X46282Y82280D01*
X46265Y82171D01*
X46244Y82062D01*
X46219Y81954D01*
X46190Y81847D01*
X46158Y81741D01*
X46122Y81636D01*
X46082Y81533D01*
X46039Y81431D01*
X45992Y81330D01*
X45941Y81231D01*
X45888Y81134D01*
X45831Y81040D01*
X45770Y80947D01*
X45707Y80856D01*
X45640Y80767D01*
X45570Y80681D01*
X45497Y80598D01*
X45422Y80516D01*
X45344Y80438D01*
X45262Y80363D01*
X45179Y80290D01*
X45093Y80220D01*
X45004Y80153D01*
X44913Y80090D01*
X44820Y80029D01*
X44725Y79972D01*
X44629Y79919D01*
X44530Y79868D01*
X44429Y79821D01*
X44327Y79778D01*
X44224Y79738D01*
X44119Y79702D01*
X44013Y79670D01*
X43906Y79641D01*
X43798Y79616D01*
X43689Y79595D01*
X43580Y79578D01*
X43470Y79564D01*
X43359Y79555D01*
X43249Y79549D01*
X43138Y79547D01*
X39963Y79547D01*
D12*
X39638Y-33140D02*
X77738Y-33140D01*
D13*
X78354Y-32666D01*
X78959Y-32177D01*
X79551Y-31673D01*
X80131Y-31155D01*
X80698Y-30623D01*
X81252Y-30077D01*
X81792Y-29518D01*
X82318Y-28945D01*
X82831Y-28360D01*
X83328Y-27763D01*
X83811Y-27154D01*
X84279Y-26533D01*
X84732Y-25900D01*
X85169Y-25257D01*
X85590Y-24603D01*
X85994Y-23939D01*
X86383Y-23266D01*
X86755Y-22583D01*
X87110Y-21891D01*
X87448Y-21191D01*
X87769Y-20483D01*
X88072Y-19767D01*
X88358Y-19043D01*
X88626Y-18314D01*
X88876Y-17577D01*
X89107Y-16835D01*
X89321Y-16087D01*
X89516Y-15335D01*
X89693Y-14577D01*
X89851Y-13816D01*
X89991Y-13051D01*
X90111Y-12283D01*
X90213Y-11512D01*
X90296Y-10739D01*
X90360Y-9964D01*
X90405Y-9188D01*
X90431Y-8411D01*
X90438Y-7633D01*
X90426Y-6856D01*
X90395Y-6079D01*
X90344Y-5303D01*
X90275Y-4528D01*
X90187Y-3756D01*
X90080Y-2986D01*
X89954Y-2218D01*
X89810Y-1454D01*
X89646Y-694D01*
X89464Y62D01*
X89264Y813D01*
X89046Y1560D01*
X88809Y2300D01*
X88554Y3035D01*
X88281Y3763D01*
X87990Y4484D01*
X87682Y5198D01*
X87357Y5904D01*
X87014Y6602D01*
X86654Y7292D01*
X86278Y7972D01*
X85885Y8643D01*
X85475Y9304D01*
X85050Y9955D01*
X84609Y10595D01*
X84152Y11224D01*
X83680Y11842D01*
X83193Y12448D01*
X82691Y13042D01*
X82175Y13624D01*
X81645Y14193D01*
X81101Y14748D01*
X80543Y15291D01*
X79973Y15819D01*
X79390Y16333D01*
X78794Y16833D01*
X78186Y17318D01*
X77567Y17788D01*
X76936Y18242D01*
X76294Y18681D01*
X75642Y19105D01*
X74979Y19512D01*
X74307Y19903D01*
X73625Y20277D01*
X72935Y20634D01*
X72236Y20974D01*
X71528Y21298D01*
X70814Y21603D01*
X70091Y21892D01*
X69362Y22162D01*
X68627Y22414D01*
X67885Y22649D01*
X67138Y22865D01*
X66386Y23063D01*
X65630Y23242D01*
X64869Y23403D01*
X64105Y23545D01*
X63337Y23668D01*
X62566Y23772D01*
X61793Y23858D01*
X61019Y23924D01*
X60243Y23972D01*
X59466Y24000D01*
X58688Y24010D01*
X57910Y24000D01*
X57133Y23972D01*
X56357Y23924D01*
X55583Y23858D01*
X54810Y23772D01*
X54039Y23668D01*
X53271Y23545D01*
X52507Y23403D01*
X51746Y23242D01*
X50990Y23063D01*
X50238Y22865D01*
X49491Y22649D01*
X48749Y22414D01*
X48014Y22162D01*
X47285Y21892D01*
X46562Y21603D01*
X45848Y21298D01*
X45140Y20974D01*
X44441Y20634D01*
X43751Y20277D01*
X43069Y19903D01*
X42397Y19512D01*
X41734Y19105D01*
X41082Y18681D01*
X40440Y18242D01*
X39809Y17788D01*
X39190Y17318D01*
X38582Y16833D01*
X37986Y16333D01*
X37403Y15819D01*
X36833Y15291D01*
X36275Y14748D01*
X35731Y14193D01*
X35201Y13624D01*
X34685Y13042D01*
X34183Y12448D01*
X33696Y11842D01*
X33224Y11224D01*
X32767Y10595D01*
X32326Y9955D01*
X31901Y9304D01*
X31491Y8643D01*
X31098Y7972D01*
X30722Y7292D01*
X30362Y6602D01*
X30019Y5904D01*
X29694Y5198D01*
X29386Y4484D01*
X29095Y3763D01*
X28822Y3035D01*
X28567Y2300D01*
X28330Y1560D01*
X28112Y813D01*
X27912Y62D01*
X27730Y-694D01*
X27566Y-1454D01*
X27422Y-2218D01*
X27296Y-2986D01*
X27189Y-3756D01*
X27101Y-4528D01*
X27032Y-5303D01*
X26981Y-6079D01*
X26950Y-6856D01*
X26938Y-7633D01*
X26945Y-8411D01*
X26971Y-9188D01*
X27016Y-9964D01*
X27080Y-10739D01*
X27163Y-11512D01*
X27265Y-12283D01*
X27385Y-13051D01*
X27525Y-13816D01*
X27683Y-14577D01*
X27860Y-15335D01*
X28055Y-16087D01*
X28269Y-16835D01*
X28500Y-17577D01*
X28750Y-18314D01*
X29018Y-19043D01*
X29304Y-19767D01*
X29607Y-20483D01*
X29928Y-21191D01*
X30266Y-21891D01*
X30621Y-22583D01*
X30993Y-23266D01*
X31382Y-23939D01*
X31786Y-24603D01*
X32207Y-25257D01*
X32644Y-25900D01*
X33097Y-26533D01*
X33565Y-27154D01*
X34048Y-27763D01*
X34545Y-28360D01*
X35058Y-28945D01*
X35584Y-29518D01*
X36124Y-30077D01*
X36678Y-30623D01*
X37245Y-31155D01*
X37825Y-31673D01*
X38417Y-32177D01*
X39022Y-32666D01*
X39638Y-33140D01*
D10*
X33288Y-7740D02*
X33296Y-7117D01*
X33319Y-6494D01*
X33357Y-5871D01*
X33410Y-5250D01*
X33479Y-4631D01*
X33563Y-4013D01*
X33662Y-3398D01*
X33776Y-2785D01*
X33905Y-2175D01*
X34049Y-1568D01*
X34208Y-965D01*
X34382Y-367D01*
X34570Y228D01*
X34773Y817D01*
X34990Y1401D01*
X35221Y1980D01*
X35467Y2553D01*
X35727Y3120D01*
X36000Y3680D01*
X36287Y4233D01*
X36588Y4780D01*
X36902Y5318D01*
X37229Y5849D01*
X37569Y6371D01*
X37921Y6886D01*
X38287Y7391D01*
X38664Y7887D01*
X39054Y8374D01*
X39455Y8851D01*
X39868Y9318D01*
X40292Y9774D01*
X40727Y10221D01*
X41174Y10656D01*
X41630Y11080D01*
X42097Y11493D01*
X42574Y11894D01*
X43061Y12284D01*
X43557Y12661D01*
X44062Y13027D01*
X44577Y13379D01*
X45099Y13719D01*
X45630Y14046D01*
X46168Y14360D01*
X46715Y14661D01*
X47268Y14948D01*
X47828Y15221D01*
X48395Y15481D01*
X48968Y15727D01*
X49547Y15958D01*
X50131Y16175D01*
X50720Y16378D01*
X51315Y16566D01*
X51913Y16740D01*
X52516Y16899D01*
X53123Y17043D01*
X53733Y17172D01*
X54346Y17286D01*
X54961Y17385D01*
X55579Y17469D01*
X56198Y17538D01*
X56819Y17591D01*
X57442Y17629D01*
X58065Y17652D01*
X58688Y17660D01*
X59311Y17652D01*
X59934Y17629D01*
X60557Y17591D01*
X61178Y17538D01*
X61797Y17469D01*
X62415Y17385D01*
X63030Y17286D01*
X63643Y17172D01*
X64253Y17043D01*
X64860Y16899D01*
X65463Y16740D01*
X66061Y16566D01*
X66656Y16378D01*
X67245Y16175D01*
X67829Y15958D01*
X68408Y15727D01*
X68981Y15481D01*
X69548Y15221D01*
X70108Y14948D01*
X70661Y14661D01*
X71208Y14360D01*
X71746Y14046D01*
X72277Y13719D01*
X72799Y13379D01*
X73314Y13027D01*
X73819Y12661D01*
X74315Y12284D01*
X74802Y11894D01*
X75279Y11493D01*
X75746Y11080D01*
X76202Y10656D01*
X76649Y10221D01*
X77084Y9774D01*
X77508Y9318D01*
X77921Y8851D01*
X78322Y8374D01*
X78712Y7887D01*
X79089Y7391D01*
X79455Y6886D01*
X79807Y6371D01*
X80147Y5849D01*
X80474Y5318D01*
X80788Y4780D01*
X81089Y4233D01*
X81376Y3680D01*
X81649Y3120D01*
X81909Y2553D01*
X82155Y1980D01*
X82386Y1401D01*
X82603Y817D01*
X82806Y228D01*
X82994Y-367D01*
X83168Y-965D01*
X83327Y-1568D01*
X83471Y-2175D01*
X83600Y-2785D01*
X83714Y-3398D01*
X83813Y-4013D01*
X83897Y-4631D01*
X83966Y-5250D01*
X84019Y-5871D01*
X84057Y-6494D01*
X84080Y-7117D01*
X84088Y-7740D01*
X84080Y-8363D01*
X84057Y-8986D01*
X84019Y-9609D01*
X83966Y-10230D01*
X83897Y-10849D01*
X83813Y-11467D01*
X83714Y-12082D01*
X83600Y-12695D01*
X83471Y-13305D01*
X83327Y-13912D01*
X83168Y-14515D01*
X82994Y-15113D01*
X82806Y-15708D01*
X82603Y-16297D01*
X82386Y-16881D01*
X82155Y-17460D01*
X81909Y-18033D01*
X81649Y-18600D01*
X81376Y-19160D01*
X81089Y-19713D01*
X80788Y-20260D01*
X80474Y-20798D01*
X80147Y-21329D01*
X79807Y-21851D01*
X79455Y-22366D01*
X79089Y-22871D01*
X78712Y-23367D01*
X78322Y-23854D01*
X77921Y-24331D01*
X77508Y-24798D01*
X77084Y-25254D01*
X76649Y-25701D01*
X76202Y-26136D01*
X75746Y-26560D01*
X75279Y-26973D01*
X74802Y-27374D01*
X74315Y-27764D01*
X73819Y-28141D01*
X73314Y-28507D01*
X72799Y-28859D01*
X72277Y-29199D01*
X71746Y-29526D01*
X71208Y-29840D01*
X70661Y-30141D01*
X70108Y-30428D01*
X69548Y-30701D01*
X68981Y-30961D01*
X68408Y-31207D01*
X67829Y-31438D01*
X67245Y-31655D01*
X66656Y-31858D01*
X66061Y-32046D01*
X65463Y-32220D01*
X64860Y-32379D01*
X64253Y-32523D01*
X63643Y-32652D01*
X63030Y-32766D01*
X62415Y-32865D01*
X61797Y-32949D01*
X61178Y-33018D01*
X60557Y-33071D01*
X59934Y-33109D01*
X59311Y-33132D01*
X58688Y-33140D01*
X58065Y-33132D01*
X57442Y-33109D01*
X56819Y-33071D01*
X56198Y-33018D01*
X55579Y-32949D01*
X54961Y-32865D01*
X54346Y-32766D01*
X53733Y-32652D01*
X53123Y-32523D01*
X52516Y-32379D01*
X51913Y-32220D01*
X51315Y-32046D01*
X50720Y-31858D01*
X50131Y-31655D01*
X49547Y-31438D01*
X48968Y-31207D01*
X48395Y-30961D01*
X47828Y-30701D01*
X47268Y-30428D01*
X46715Y-30141D01*
X46168Y-29840D01*
X45630Y-29526D01*
X45099Y-29199D01*
X44577Y-28859D01*
X44062Y-28507D01*
X43557Y-28141D01*
X43061Y-27764D01*
X42574Y-27374D01*
X42097Y-26973D01*
X41630Y-26560D01*
X41174Y-26136D01*
X40727Y-25701D01*
X40292Y-25254D01*
X39868Y-24798D01*
X39455Y-24331D01*
X39054Y-23854D01*
X38664Y-23367D01*
X38287Y-22871D01*
X37921Y-22366D01*
X37569Y-21851D01*
X37229Y-21329D01*
X36902Y-20798D01*
X36588Y-20260D01*
X36287Y-19713D01*
X36000Y-19160D01*
X35727Y-18600D01*
X35467Y-18033D01*
X35221Y-17460D01*
X34990Y-16881D01*
X34773Y-16297D01*
X34570Y-15708D01*
X34382Y-15113D01*
X34208Y-14515D01*
X34049Y-13912D01*
X33905Y-13305D01*
X33776Y-12695D01*
X33662Y-12082D01*
X33563Y-11467D01*
X33479Y-10849D01*
X33410Y-10230D01*
X33357Y-9609D01*
X33319Y-8986D01*
X33296Y-8363D01*
X33288Y-7740D01*
D11*
X64657Y-78073D02*
X76087Y-78073D01*
X76087Y-72993D01*
X76087Y-68167D02*
X76087Y-63087D01*
X76087Y-68167D02*
X64657Y-68167D01*
X64657Y-63087D01*
X69737Y-64357D02*
X69737Y-68167D01*
X64657Y-58286D02*
X76087Y-58286D01*
X64657Y-58286D02*
X64657Y-55111D01*
X64659Y-55000D01*
X64665Y-54890D01*
X64674Y-54779D01*
X64688Y-54669D01*
X64705Y-54560D01*
X64726Y-54451D01*
X64751Y-54343D01*
X64780Y-54236D01*
X64812Y-54130D01*
X64848Y-54025D01*
X64888Y-53922D01*
X64931Y-53820D01*
X64978Y-53719D01*
X65029Y-53620D01*
X65082Y-53524D01*
X65139Y-53429D01*
X65200Y-53336D01*
X65263Y-53245D01*
X65330Y-53156D01*
X65400Y-53070D01*
X65473Y-52987D01*
X65548Y-52905D01*
X65626Y-52827D01*
X65708Y-52752D01*
X65791Y-52679D01*
X65877Y-52609D01*
X65966Y-52542D01*
X66057Y-52479D01*
X66150Y-52418D01*
X66245Y-52361D01*
X66341Y-52308D01*
X66440Y-52257D01*
X66541Y-52210D01*
X66643Y-52167D01*
X66746Y-52127D01*
X66851Y-52091D01*
X66957Y-52059D01*
X67064Y-52030D01*
X67172Y-52005D01*
X67281Y-51984D01*
X67390Y-51967D01*
X67500Y-51953D01*
X67611Y-51944D01*
X67721Y-51938D01*
X67832Y-51936D01*
X72912Y-51936D01*
X73023Y-51938D01*
X73133Y-51944D01*
X73244Y-51953D01*
X73354Y-51967D01*
X73463Y-51984D01*
X73572Y-52005D01*
X73680Y-52030D01*
X73787Y-52059D01*
X73893Y-52091D01*
X73998Y-52127D01*
X74101Y-52167D01*
X74203Y-52210D01*
X74304Y-52257D01*
X74403Y-52308D01*
X74500Y-52361D01*
X74594Y-52418D01*
X74687Y-52479D01*
X74778Y-52542D01*
X74867Y-52609D01*
X74953Y-52679D01*
X75036Y-52752D01*
X75118Y-52827D01*
X75196Y-52905D01*
X75271Y-52987D01*
X75344Y-53070D01*
X75414Y-53156D01*
X75481Y-53245D01*
X75544Y-53336D01*
X75605Y-53429D01*
X75662Y-53524D01*
X75715Y-53620D01*
X75766Y-53719D01*
X75813Y-53820D01*
X75856Y-53922D01*
X75896Y-54025D01*
X75932Y-54130D01*
X75964Y-54236D01*
X75993Y-54343D01*
X76018Y-54451D01*
X76039Y-54560D01*
X76056Y-54669D01*
X76070Y-54779D01*
X76079Y-54890D01*
X76085Y-55000D01*
X76087Y-55111D01*
X76087Y-58286D01*
X67197Y-46475D02*
X64657Y-43300D01*
X76087Y-43300D01*
X76087Y-46475D02*
X76087Y-40125D01*
D12*
X70507Y82933D02*
X32407Y82933D01*
D13*
X31791Y82459D01*
X31186Y81970D01*
X30594Y81466D01*
X30014Y80948D01*
X29447Y80416D01*
X28893Y79870D01*
X28353Y79311D01*
X27827Y78738D01*
X27314Y78153D01*
X26817Y77556D01*
X26334Y76947D01*
X25866Y76326D01*
X25413Y75693D01*
X24976Y75050D01*
X24555Y74396D01*
X24151Y73732D01*
X23762Y73059D01*
X23390Y72376D01*
X23035Y71684D01*
X22697Y70984D01*
X22376Y70276D01*
X22073Y69560D01*
X21787Y68836D01*
X21519Y68107D01*
X21269Y67370D01*
X21038Y66628D01*
X20824Y65880D01*
X20629Y65128D01*
X20452Y64370D01*
X20294Y63609D01*
X20154Y62844D01*
X20034Y62076D01*
X19932Y61305D01*
X19849Y60532D01*
X19785Y59757D01*
X19740Y58981D01*
X19714Y58204D01*
X19707Y57426D01*
X19719Y56649D01*
X19750Y55872D01*
X19801Y55096D01*
X19870Y54321D01*
X19958Y53549D01*
X20065Y52779D01*
X20191Y52011D01*
X20335Y51247D01*
X20499Y50487D01*
X20681Y49731D01*
X20881Y48980D01*
X21099Y48233D01*
X21336Y47493D01*
X21591Y46758D01*
X21864Y46030D01*
X22155Y45309D01*
X22463Y44595D01*
X22788Y43889D01*
X23131Y43191D01*
X23491Y42501D01*
X23867Y41821D01*
X24260Y41150D01*
X24670Y40489D01*
X25095Y39838D01*
X25536Y39198D01*
X25993Y38569D01*
X26465Y37951D01*
X26952Y37345D01*
X27454Y36751D01*
X27970Y36169D01*
X28500Y35600D01*
X29044Y35045D01*
X29602Y34502D01*
X30172Y33974D01*
X30755Y33460D01*
X31351Y32960D01*
X31959Y32475D01*
X32578Y32005D01*
X33209Y31551D01*
X33851Y31112D01*
X34503Y30688D01*
X35166Y30281D01*
X35838Y29890D01*
X36520Y29516D01*
X37210Y29159D01*
X37909Y28819D01*
X38617Y28495D01*
X39331Y28190D01*
X40054Y27901D01*
X40783Y27631D01*
X41518Y27379D01*
X42260Y27144D01*
X43007Y26928D01*
X43759Y26730D01*
X44515Y26551D01*
X45276Y26390D01*
X46040Y26248D01*
X46808Y26125D01*
X47579Y26021D01*
X48352Y25935D01*
X49126Y25869D01*
X49902Y25821D01*
X50679Y25793D01*
X51457Y25783D01*
X52235Y25793D01*
X53012Y25821D01*
X53788Y25869D01*
X54562Y25935D01*
X55335Y26021D01*
X56106Y26125D01*
X56874Y26248D01*
X57638Y26390D01*
X58399Y26551D01*
X59155Y26730D01*
X59907Y26928D01*
X60654Y27144D01*
X61396Y27379D01*
X62131Y27631D01*
X62860Y27901D01*
X63583Y28190D01*
X64297Y28495D01*
X65005Y28819D01*
X65704Y29159D01*
X66394Y29516D01*
X67076Y29890D01*
X67748Y30281D01*
X68411Y30688D01*
X69063Y31112D01*
X69705Y31551D01*
X70336Y32005D01*
X70955Y32475D01*
X71563Y32960D01*
X72159Y33460D01*
X72742Y33974D01*
X73312Y34502D01*
X73870Y35045D01*
X74414Y35600D01*
X74944Y36169D01*
X75460Y36751D01*
X75962Y37345D01*
X76449Y37951D01*
X76921Y38569D01*
X77378Y39198D01*
X77819Y39838D01*
X78244Y40489D01*
X78654Y41150D01*
X79047Y41821D01*
X79423Y42501D01*
X79783Y43191D01*
X80126Y43889D01*
X80451Y44595D01*
X80759Y45309D01*
X81050Y46030D01*
X81323Y46758D01*
X81578Y47493D01*
X81815Y48233D01*
X82033Y48980D01*
X82233Y49731D01*
X82415Y50487D01*
X82579Y51247D01*
X82723Y52011D01*
X82849Y52779D01*
X82956Y53549D01*
X83044Y54321D01*
X83113Y55096D01*
X83164Y55872D01*
X83195Y56649D01*
X83207Y57426D01*
X83200Y58204D01*
X83174Y58981D01*
X83129Y59757D01*
X83065Y60532D01*
X82982Y61305D01*
X82880Y62076D01*
X82760Y62844D01*
X82620Y63609D01*
X82462Y64370D01*
X82285Y65128D01*
X82090Y65880D01*
X81876Y66628D01*
X81645Y67370D01*
X81395Y68107D01*
X81127Y68836D01*
X80841Y69560D01*
X80538Y70276D01*
X80217Y70984D01*
X79879Y71684D01*
X79524Y72376D01*
X79152Y73059D01*
X78763Y73732D01*
X78359Y74396D01*
X77938Y75050D01*
X77501Y75693D01*
X77048Y76326D01*
X76580Y76947D01*
X76097Y77556D01*
X75600Y78153D01*
X75087Y78738D01*
X74561Y79311D01*
X74021Y79870D01*
X73467Y80416D01*
X72900Y80948D01*
X72320Y81466D01*
X71728Y81970D01*
X71123Y82459D01*
X70507Y82933D01*
D10*
X26057Y57533D02*
X26065Y58156D01*
X26088Y58779D01*
X26126Y59402D01*
X26179Y60023D01*
X26248Y60642D01*
X26332Y61260D01*
X26431Y61875D01*
X26545Y62488D01*
X26674Y63098D01*
X26818Y63705D01*
X26977Y64308D01*
X27151Y64906D01*
X27339Y65501D01*
X27542Y66090D01*
X27759Y66674D01*
X27990Y67253D01*
X28236Y67826D01*
X28496Y68393D01*
X28769Y68953D01*
X29056Y69506D01*
X29357Y70053D01*
X29671Y70591D01*
X29998Y71122D01*
X30338Y71644D01*
X30690Y72159D01*
X31056Y72664D01*
X31433Y73160D01*
X31823Y73647D01*
X32224Y74124D01*
X32637Y74591D01*
X33061Y75047D01*
X33496Y75494D01*
X33943Y75929D01*
X34399Y76353D01*
X34866Y76766D01*
X35343Y77167D01*
X35830Y77557D01*
X36326Y77934D01*
X36831Y78300D01*
X37346Y78652D01*
X37868Y78992D01*
X38399Y79319D01*
X38937Y79633D01*
X39484Y79934D01*
X40037Y80221D01*
X40597Y80494D01*
X41164Y80754D01*
X41737Y81000D01*
X42316Y81231D01*
X42900Y81448D01*
X43489Y81651D01*
X44084Y81839D01*
X44682Y82013D01*
X45285Y82172D01*
X45892Y82316D01*
X46502Y82445D01*
X47115Y82559D01*
X47730Y82658D01*
X48348Y82742D01*
X48967Y82811D01*
X49588Y82864D01*
X50211Y82902D01*
X50834Y82925D01*
X51457Y82933D01*
X52080Y82925D01*
X52703Y82902D01*
X53326Y82864D01*
X53947Y82811D01*
X54566Y82742D01*
X55184Y82658D01*
X55799Y82559D01*
X56412Y82445D01*
X57022Y82316D01*
X57629Y82172D01*
X58232Y82013D01*
X58830Y81839D01*
X59425Y81651D01*
X60014Y81448D01*
X60598Y81231D01*
X61177Y81000D01*
X61750Y80754D01*
X62317Y80494D01*
X62877Y80221D01*
X63430Y79934D01*
X63977Y79633D01*
X64515Y79319D01*
X65046Y78992D01*
X65568Y78652D01*
X66083Y78300D01*
X66588Y77934D01*
X67084Y77557D01*
X67571Y77167D01*
X68048Y76766D01*
X68515Y76353D01*
X68971Y75929D01*
X69418Y75494D01*
X69853Y75047D01*
X70277Y74591D01*
X70690Y74124D01*
X71091Y73647D01*
X71481Y73160D01*
X71858Y72664D01*
X72224Y72159D01*
X72576Y71644D01*
X72916Y71122D01*
X73243Y70591D01*
X73557Y70053D01*
X73858Y69506D01*
X74145Y68953D01*
X74418Y68393D01*
X74678Y67826D01*
X74924Y67253D01*
X75155Y66674D01*
X75372Y66090D01*
X75575Y65501D01*
X75763Y64906D01*
X75937Y64308D01*
X76096Y63705D01*
X76240Y63098D01*
X76369Y62488D01*
X76483Y61875D01*
X76582Y61260D01*
X76666Y60642D01*
X76735Y60023D01*
X76788Y59402D01*
X76826Y58779D01*
X76849Y58156D01*
X76857Y57533D01*
X76849Y56910D01*
X76826Y56287D01*
X76788Y55664D01*
X76735Y55043D01*
X76666Y54424D01*
X76582Y53806D01*
X76483Y53191D01*
X76369Y52578D01*
X76240Y51968D01*
X76096Y51361D01*
X75937Y50758D01*
X75763Y50160D01*
X75575Y49565D01*
X75372Y48976D01*
X75155Y48392D01*
X74924Y47813D01*
X74678Y47240D01*
X74418Y46673D01*
X74145Y46113D01*
X73858Y45560D01*
X73557Y45013D01*
X73243Y44475D01*
X72916Y43944D01*
X72576Y43422D01*
X72224Y42907D01*
X71858Y42402D01*
X71481Y41906D01*
X71091Y41419D01*
X70690Y40942D01*
X70277Y40475D01*
X69853Y40019D01*
X69418Y39572D01*
X68971Y39137D01*
X68515Y38713D01*
X68048Y38300D01*
X67571Y37899D01*
X67084Y37509D01*
X66588Y37132D01*
X66083Y36766D01*
X65568Y36414D01*
X65046Y36074D01*
X64515Y35747D01*
X63977Y35433D01*
X63430Y35132D01*
X62877Y34845D01*
X62317Y34572D01*
X61750Y34312D01*
X61177Y34066D01*
X60598Y33835D01*
X60014Y33618D01*
X59425Y33415D01*
X58830Y33227D01*
X58232Y33053D01*
X57629Y32894D01*
X57022Y32750D01*
X56412Y32621D01*
X55799Y32507D01*
X55184Y32408D01*
X54566Y32324D01*
X53947Y32255D01*
X53326Y32202D01*
X52703Y32164D01*
X52080Y32141D01*
X51457Y32133D01*
X50834Y32141D01*
X50211Y32164D01*
X49588Y32202D01*
X48967Y32255D01*
X48348Y32324D01*
X47730Y32408D01*
X47115Y32507D01*
X46502Y32621D01*
X45892Y32750D01*
X45285Y32894D01*
X44682Y33053D01*
X44084Y33227D01*
X43489Y33415D01*
X42900Y33618D01*
X42316Y33835D01*
X41737Y34066D01*
X41164Y34312D01*
X40597Y34572D01*
X40037Y34845D01*
X39484Y35132D01*
X38937Y35433D01*
X38399Y35747D01*
X37868Y36074D01*
X37346Y36414D01*
X36831Y36766D01*
X36326Y37132D01*
X35830Y37509D01*
X35343Y37899D01*
X34866Y38300D01*
X34399Y38713D01*
X33943Y39137D01*
X33496Y39572D01*
X33061Y40019D01*
X32637Y40475D01*
X32224Y40942D01*
X31823Y41419D01*
X31433Y41906D01*
X31056Y42402D01*
X30690Y42907D01*
X30338Y43422D01*
X29998Y43944D01*
X29671Y44475D01*
X29357Y45013D01*
X29056Y45560D01*
X28769Y46113D01*
X28496Y46673D01*
X28236Y47240D01*
X27990Y47813D01*
X27759Y48392D01*
X27542Y48976D01*
X27339Y49565D01*
X27151Y50160D01*
X26977Y50758D01*
X26818Y51361D01*
X26674Y51968D01*
X26545Y52578D01*
X26431Y53191D01*
X26332Y53806D01*
X26248Y54424D01*
X26179Y55043D01*
X26126Y55664D01*
X26088Y56287D01*
X26065Y56910D01*
X26057Y57533D01*
D11*
X34058Y89918D02*
X45488Y89918D01*
X45488Y94998D01*
X45488Y99824D02*
X45488Y104904D01*
X45488Y99824D02*
X34058Y99824D01*
X34058Y104904D01*
X39138Y103634D02*
X39138Y99824D01*
X34058Y109705D02*
X45488Y109705D01*
X34058Y109705D02*
X34058Y112880D01*
X34060Y112991D01*
X34066Y113101D01*
X34075Y113212D01*
X34089Y113322D01*
X34106Y113431D01*
X34127Y113540D01*
X34152Y113648D01*
X34181Y113755D01*
X34213Y113861D01*
X34249Y113966D01*
X34289Y114069D01*
X34332Y114171D01*
X34379Y114272D01*
X34430Y114371D01*
X34483Y114468D01*
X34540Y114562D01*
X34601Y114655D01*
X34664Y114746D01*
X34731Y114835D01*
X34801Y114921D01*
X34874Y115004D01*
X34949Y115086D01*
X35027Y115164D01*
X35109Y115239D01*
X35192Y115312D01*
X35278Y115382D01*
X35367Y115449D01*
X35458Y115512D01*
X35551Y115573D01*
X35646Y115630D01*
X35742Y115683D01*
X35841Y115734D01*
X35942Y115781D01*
X36044Y115824D01*
X36147Y115864D01*
X36252Y115900D01*
X36358Y115932D01*
X36465Y115961D01*
X36573Y115986D01*
X36682Y116007D01*
X36791Y116024D01*
X36901Y116038D01*
X37012Y116047D01*
X37122Y116053D01*
X37233Y116055D01*
X42313Y116055D01*
X42424Y116053D01*
X42534Y116047D01*
X42645Y116038D01*
X42755Y116024D01*
X42864Y116007D01*
X42973Y115986D01*
X43081Y115961D01*
X43188Y115932D01*
X43294Y115900D01*
X43399Y115864D01*
X43502Y115824D01*
X43604Y115781D01*
X43705Y115734D01*
X43804Y115683D01*
X43901Y115630D01*
X43995Y115573D01*
X44088Y115512D01*
X44179Y115449D01*
X44268Y115382D01*
X44354Y115312D01*
X44437Y115239D01*
X44519Y115164D01*
X44597Y115086D01*
X44672Y115004D01*
X44745Y114921D01*
X44815Y114835D01*
X44882Y114746D01*
X44945Y114655D01*
X45006Y114562D01*
X45063Y114468D01*
X45116Y114371D01*
X45167Y114272D01*
X45214Y114171D01*
X45257Y114069D01*
X45297Y113966D01*
X45333Y113861D01*
X45365Y113755D01*
X45394Y113648D01*
X45419Y113540D01*
X45440Y113431D01*
X45457Y113322D01*
X45471Y113212D01*
X45480Y113101D01*
X45486Y112991D01*
X45488Y112880D01*
X45488Y109705D01*
X34057Y125008D02*
X34059Y125112D01*
X34065Y125217D01*
X34074Y125321D01*
X34087Y125424D01*
X34105Y125527D01*
X34125Y125629D01*
X34150Y125731D01*
X34178Y125831D01*
X34210Y125931D01*
X34246Y126029D01*
X34285Y126126D01*
X34327Y126221D01*
X34373Y126315D01*
X34423Y126407D01*
X34475Y126497D01*
X34531Y126585D01*
X34591Y126671D01*
X34653Y126755D01*
X34718Y126836D01*
X34786Y126915D01*
X34858Y126992D01*
X34931Y127065D01*
X35008Y127137D01*
X35087Y127205D01*
X35168Y127270D01*
X35252Y127332D01*
X35338Y127392D01*
X35426Y127448D01*
X35516Y127500D01*
X35608Y127550D01*
X35702Y127596D01*
X35797Y127638D01*
X35894Y127677D01*
X35992Y127713D01*
X36092Y127745D01*
X36192Y127773D01*
X36294Y127798D01*
X36396Y127818D01*
X36499Y127836D01*
X36602Y127849D01*
X36706Y127858D01*
X36811Y127864D01*
X36915Y127866D01*
X34058Y125008D02*
X34060Y124890D01*
X34066Y124771D01*
X34075Y124653D01*
X34088Y124536D01*
X34106Y124419D01*
X34126Y124302D01*
X34151Y124186D01*
X34179Y124071D01*
X34212Y123958D01*
X34247Y123845D01*
X34287Y123733D01*
X34329Y123623D01*
X34376Y123514D01*
X34426Y123406D01*
X34479Y123301D01*
X34536Y123197D01*
X34596Y123095D01*
X34659Y122995D01*
X34726Y122897D01*
X34795Y122801D01*
X34868Y122708D01*
X34944Y122617D01*
X35022Y122528D01*
X35104Y122442D01*
X35188Y122359D01*
X35274Y122278D01*
X35364Y122201D01*
X35455Y122126D01*
X35549Y122054D01*
X35646Y121985D01*
X35744Y121920D01*
X35845Y121857D01*
X35948Y121798D01*
X36052Y121742D01*
X36158Y121690D01*
X36266Y121641D01*
X36375Y121596D01*
X36486Y121554D01*
X36598Y121516D01*
X39137Y126914D02*
X39062Y126990D01*
X38983Y127065D01*
X38902Y127136D01*
X38818Y127205D01*
X38732Y127270D01*
X38644Y127332D01*
X38554Y127392D01*
X38462Y127448D01*
X38367Y127501D01*
X38271Y127550D01*
X38173Y127596D01*
X38074Y127639D01*
X37973Y127678D01*
X37871Y127713D01*
X37768Y127745D01*
X37664Y127773D01*
X37559Y127798D01*
X37452Y127819D01*
X37346Y127836D01*
X37239Y127849D01*
X37131Y127858D01*
X37023Y127864D01*
X36915Y127866D01*
X39138Y126913D02*
X45488Y121516D01*
X45488Y127866D01*
D10*
X-62804Y11432D02*
X-62804Y6352D01*
X-62804Y11432D02*
X-67884Y11432D01*
X-83124Y11432D02*
X-88204Y11432D01*
X-88204Y6352D01*
X-88204Y-8888D02*
X-88204Y-13968D01*
X-83124Y-13968D01*
X-67884Y-13968D02*
X-62804Y-13968D01*
X-62804Y-8888D01*
D11*
X-83759Y14607D02*
X-87569Y26037D01*
X-79949Y26037D02*
X-83759Y14607D01*
X-74615Y14607D02*
X-74615Y26037D01*
X-75885Y14607D02*
X-73345Y14607D01*
X-73345Y26037D02*
X-75885Y26037D01*
X-68265Y26037D02*
X-68265Y14607D01*
X-61915Y14607D02*
X-68265Y26037D01*
X-61915Y26037D02*
X-61915Y14607D01*
M02*
