G04 EAGLE Gerber RS-274X export*
G75*
%MOMM*%
%FSLAX34Y34*%
%LPD*%
%IN*%
%IPPOS*%
%AMOC8*
5,1,8,0,0,1.08239X$1,22.5*%
G01*
%ADD10C,0.254000*%


D10*
X5000Y40000D02*
X1005000Y40000D01*
X1005000Y630000D01*
X5000Y630000D01*
X5000Y40000D01*
X64500Y301705D02*
X64423Y301120D01*
X64270Y300550D01*
X64045Y300005D01*
X63750Y299495D01*
X63391Y299027D01*
X62973Y298609D01*
X62505Y298250D01*
X61995Y297955D01*
X61450Y297730D01*
X60880Y297577D01*
X60295Y297500D01*
X59705Y297500D01*
X59120Y297577D01*
X58550Y297730D01*
X58005Y297955D01*
X57495Y298250D01*
X57027Y298609D01*
X56609Y299027D01*
X56250Y299495D01*
X55955Y300005D01*
X55730Y300550D01*
X55577Y301120D01*
X55500Y301705D01*
X55500Y302295D01*
X55577Y302880D01*
X55730Y303450D01*
X55955Y303995D01*
X56250Y304505D01*
X56609Y304973D01*
X57027Y305391D01*
X57495Y305750D01*
X58005Y306045D01*
X58550Y306270D01*
X59120Y306423D01*
X59705Y306500D01*
X60295Y306500D01*
X60880Y306423D01*
X61450Y306270D01*
X61995Y306045D01*
X62505Y305750D01*
X62973Y305391D01*
X63391Y304973D01*
X63750Y304505D01*
X64045Y303995D01*
X64270Y303450D01*
X64423Y302880D01*
X64500Y302295D01*
X64500Y301705D01*
X64500Y257705D02*
X64423Y257120D01*
X64270Y256550D01*
X64045Y256005D01*
X63750Y255495D01*
X63391Y255027D01*
X62973Y254609D01*
X62505Y254250D01*
X61995Y253955D01*
X61450Y253730D01*
X60880Y253577D01*
X60295Y253500D01*
X59705Y253500D01*
X59120Y253577D01*
X58550Y253730D01*
X58005Y253955D01*
X57495Y254250D01*
X57027Y254609D01*
X56609Y255027D01*
X56250Y255495D01*
X55955Y256005D01*
X55730Y256550D01*
X55577Y257120D01*
X55500Y257705D01*
X55500Y258295D01*
X55577Y258880D01*
X55730Y259450D01*
X55955Y259995D01*
X56250Y260505D01*
X56609Y260973D01*
X57027Y261391D01*
X57495Y261750D01*
X58005Y262045D01*
X58550Y262270D01*
X59120Y262423D01*
X59705Y262500D01*
X60295Y262500D01*
X60880Y262423D01*
X61450Y262270D01*
X61995Y262045D01*
X62505Y261750D01*
X62973Y261391D01*
X63391Y260973D01*
X63750Y260505D01*
X64045Y259995D01*
X64270Y259450D01*
X64423Y258880D01*
X64500Y258295D01*
X64500Y257705D01*
X59000Y504500D02*
X58929Y503503D01*
X58786Y502513D01*
X58574Y501536D01*
X58292Y500576D01*
X57943Y499639D01*
X57527Y498729D01*
X57048Y497852D01*
X56507Y497010D01*
X55908Y496210D01*
X55253Y495454D01*
X54546Y494747D01*
X53790Y494092D01*
X52990Y493493D01*
X52148Y492952D01*
X51271Y492473D01*
X50361Y492057D01*
X49424Y491708D01*
X48465Y491426D01*
X47487Y491214D01*
X46498Y491071D01*
X45500Y491000D01*
X44500Y491000D01*
X43503Y491071D01*
X42513Y491214D01*
X41536Y491426D01*
X40576Y491708D01*
X39639Y492057D01*
X38729Y492473D01*
X37852Y492952D01*
X37010Y493493D01*
X36210Y494092D01*
X35454Y494747D01*
X34747Y495454D01*
X34092Y496210D01*
X33493Y497010D01*
X32952Y497852D01*
X32473Y498729D01*
X32057Y499639D01*
X31708Y500576D01*
X31426Y501536D01*
X31214Y502513D01*
X31071Y503503D01*
X31000Y504500D01*
X31000Y505500D01*
X31071Y506498D01*
X31214Y507487D01*
X31426Y508465D01*
X31708Y509424D01*
X32057Y510361D01*
X32473Y511271D01*
X32952Y512148D01*
X33493Y512990D01*
X34092Y513790D01*
X34747Y514546D01*
X35454Y515253D01*
X36210Y515908D01*
X37010Y516507D01*
X37852Y517048D01*
X38729Y517527D01*
X39639Y517943D01*
X40576Y518292D01*
X41536Y518574D01*
X42513Y518786D01*
X43503Y518929D01*
X44500Y519000D01*
X45500Y519000D01*
X46498Y518929D01*
X47487Y518786D01*
X48465Y518574D01*
X49424Y518292D01*
X50361Y517943D01*
X51271Y517527D01*
X52148Y517048D01*
X52990Y516507D01*
X53790Y515908D01*
X54546Y515253D01*
X55253Y514546D01*
X55908Y513790D01*
X56507Y512990D01*
X57048Y512148D01*
X57527Y511271D01*
X57943Y510361D01*
X58292Y509424D01*
X58574Y508465D01*
X58786Y507487D01*
X58929Y506498D01*
X59000Y505500D01*
X59000Y504500D01*
X59000Y194500D02*
X58929Y193503D01*
X58786Y192513D01*
X58574Y191536D01*
X58292Y190576D01*
X57943Y189639D01*
X57527Y188729D01*
X57048Y187852D01*
X56507Y187010D01*
X55908Y186210D01*
X55253Y185454D01*
X54546Y184747D01*
X53790Y184092D01*
X52990Y183493D01*
X52148Y182952D01*
X51271Y182473D01*
X50361Y182057D01*
X49424Y181708D01*
X48465Y181426D01*
X47487Y181214D01*
X46498Y181071D01*
X45500Y181000D01*
X44500Y181000D01*
X43503Y181071D01*
X42513Y181214D01*
X41536Y181426D01*
X40576Y181708D01*
X39639Y182057D01*
X38729Y182473D01*
X37852Y182952D01*
X37010Y183493D01*
X36210Y184092D01*
X35454Y184747D01*
X34747Y185454D01*
X34092Y186210D01*
X33493Y187010D01*
X32952Y187852D01*
X32473Y188729D01*
X32057Y189639D01*
X31708Y190576D01*
X31426Y191536D01*
X31214Y192513D01*
X31071Y193503D01*
X31000Y194500D01*
X31000Y195500D01*
X31071Y196498D01*
X31214Y197487D01*
X31426Y198465D01*
X31708Y199424D01*
X32057Y200361D01*
X32473Y201271D01*
X32952Y202148D01*
X33493Y202990D01*
X34092Y203790D01*
X34747Y204546D01*
X35454Y205253D01*
X36210Y205908D01*
X37010Y206507D01*
X37852Y207048D01*
X38729Y207527D01*
X39639Y207943D01*
X40576Y208292D01*
X41536Y208574D01*
X42513Y208786D01*
X43503Y208929D01*
X44500Y209000D01*
X45500Y209000D01*
X46498Y208929D01*
X47487Y208786D01*
X48465Y208574D01*
X49424Y208292D01*
X50361Y207943D01*
X51271Y207527D01*
X52148Y207048D01*
X52990Y206507D01*
X53790Y205908D01*
X54546Y205253D01*
X55253Y204546D01*
X55908Y203790D01*
X56507Y202990D01*
X57048Y202148D01*
X57527Y201271D01*
X57943Y200361D01*
X58292Y199424D01*
X58574Y198465D01*
X58786Y197487D01*
X58929Y196498D01*
X59000Y195500D01*
X59000Y194500D01*
X809000Y504500D02*
X808929Y503503D01*
X808786Y502513D01*
X808574Y501536D01*
X808292Y500576D01*
X807943Y499639D01*
X807527Y498729D01*
X807048Y497852D01*
X806507Y497010D01*
X805908Y496210D01*
X805253Y495454D01*
X804546Y494747D01*
X803790Y494092D01*
X802990Y493493D01*
X802148Y492952D01*
X801271Y492473D01*
X800361Y492057D01*
X799424Y491708D01*
X798465Y491426D01*
X797487Y491214D01*
X796498Y491071D01*
X795500Y491000D01*
X794500Y491000D01*
X793503Y491071D01*
X792513Y491214D01*
X791536Y491426D01*
X790576Y491708D01*
X789639Y492057D01*
X788729Y492473D01*
X787852Y492952D01*
X787010Y493493D01*
X786210Y494092D01*
X785454Y494747D01*
X784747Y495454D01*
X784092Y496210D01*
X783493Y497010D01*
X782952Y497852D01*
X782473Y498729D01*
X782057Y499639D01*
X781708Y500576D01*
X781426Y501536D01*
X781214Y502513D01*
X781071Y503503D01*
X781000Y504500D01*
X781000Y505500D01*
X781071Y506498D01*
X781214Y507487D01*
X781426Y508465D01*
X781708Y509424D01*
X782057Y510361D01*
X782473Y511271D01*
X782952Y512148D01*
X783493Y512990D01*
X784092Y513790D01*
X784747Y514546D01*
X785454Y515253D01*
X786210Y515908D01*
X787010Y516507D01*
X787852Y517048D01*
X788729Y517527D01*
X789639Y517943D01*
X790576Y518292D01*
X791536Y518574D01*
X792513Y518786D01*
X793503Y518929D01*
X794500Y519000D01*
X795500Y519000D01*
X796498Y518929D01*
X797487Y518786D01*
X798465Y518574D01*
X799424Y518292D01*
X800361Y517943D01*
X801271Y517527D01*
X802148Y517048D01*
X802990Y516507D01*
X803790Y515908D01*
X804546Y515253D01*
X805253Y514546D01*
X805908Y513790D01*
X806507Y512990D01*
X807048Y512148D01*
X807527Y511271D01*
X807943Y510361D01*
X808292Y509424D01*
X808574Y508465D01*
X808786Y507487D01*
X808929Y506498D01*
X809000Y505500D01*
X809000Y504500D01*
X809000Y194500D02*
X808929Y193503D01*
X808786Y192513D01*
X808574Y191536D01*
X808292Y190576D01*
X807943Y189639D01*
X807527Y188729D01*
X807048Y187852D01*
X806507Y187010D01*
X805908Y186210D01*
X805253Y185454D01*
X804546Y184747D01*
X803790Y184092D01*
X802990Y183493D01*
X802148Y182952D01*
X801271Y182473D01*
X800361Y182057D01*
X799424Y181708D01*
X798465Y181426D01*
X797487Y181214D01*
X796498Y181071D01*
X795500Y181000D01*
X794500Y181000D01*
X793503Y181071D01*
X792513Y181214D01*
X791536Y181426D01*
X790576Y181708D01*
X789639Y182057D01*
X788729Y182473D01*
X787852Y182952D01*
X787010Y183493D01*
X786210Y184092D01*
X785454Y184747D01*
X784747Y185454D01*
X784092Y186210D01*
X783493Y187010D01*
X782952Y187852D01*
X782473Y188729D01*
X782057Y189639D01*
X781708Y190576D01*
X781426Y191536D01*
X781214Y192513D01*
X781071Y193503D01*
X781000Y194500D01*
X781000Y195500D01*
X781071Y196498D01*
X781214Y197487D01*
X781426Y198465D01*
X781708Y199424D01*
X782057Y200361D01*
X782473Y201271D01*
X782952Y202148D01*
X783493Y202990D01*
X784092Y203790D01*
X784747Y204546D01*
X785454Y205253D01*
X786210Y205908D01*
X787010Y206507D01*
X787852Y207048D01*
X788729Y207527D01*
X789639Y207943D01*
X790576Y208292D01*
X791536Y208574D01*
X792513Y208786D01*
X793503Y208929D01*
X794500Y209000D01*
X795500Y209000D01*
X796498Y208929D01*
X797487Y208786D01*
X798465Y208574D01*
X799424Y208292D01*
X800361Y207943D01*
X801271Y207527D01*
X802148Y207048D01*
X802990Y206507D01*
X803790Y205908D01*
X804546Y205253D01*
X805253Y204546D01*
X805908Y203790D01*
X806507Y202990D01*
X807048Y202148D01*
X807527Y201271D01*
X807943Y200361D01*
X808292Y199424D01*
X808574Y198465D01*
X808786Y197487D01*
X808929Y196498D01*
X809000Y195500D01*
X809000Y194500D01*
M02*
