G04 EAGLE Gerber X2 export*
%TF.Part,Single*%
%TF.FileFunction,Copper,L2,Bot,Mixed*%
%TF.FilePolarity,Positive*%
%TF.GenerationSoftware,Autodesk,EAGLE,8.7.0*%
%TF.CreationDate,2018-03-14T20:50:37Z*%
G75*
%MOMM*%
%FSLAX34Y34*%
%LPD*%
%AMOC8*
5,1,8,0,0,1.08239X$1,22.5*%
G01*
%ADD10P,1.649562X8X292.500000*%
%ADD11P,1.649562X8X22.500000*%
%ADD12R,1.270000X0.558800*%
%ADD13R,0.558800X1.270000*%
%ADD14C,1.524000*%
%ADD15R,0.350000X0.900000*%
%ADD16C,0.304800*%


D10*
X16256Y377444D03*
X16256Y352044D03*
X16256Y326644D03*
X16256Y301244D03*
X16256Y275844D03*
X16256Y250444D03*
X41656Y377444D03*
X41656Y352044D03*
X41656Y326644D03*
X41656Y301244D03*
X41656Y275844D03*
X41656Y250444D03*
X16256Y225044D03*
X41656Y225044D03*
X16256Y199644D03*
X16256Y174244D03*
X16256Y148844D03*
X16256Y123444D03*
X16256Y98044D03*
X16256Y72644D03*
X41656Y199644D03*
X41656Y174244D03*
X41656Y148844D03*
X41656Y123444D03*
X41656Y98044D03*
X41656Y72644D03*
X321056Y377444D03*
X321056Y352044D03*
X321056Y326644D03*
X321056Y301244D03*
X321056Y275844D03*
X321056Y250444D03*
X346456Y377444D03*
X346456Y352044D03*
X346456Y326644D03*
X346456Y301244D03*
X346456Y275844D03*
X346456Y250444D03*
X321056Y225044D03*
X346456Y225044D03*
X321056Y199644D03*
X321056Y174244D03*
X321056Y148844D03*
X321056Y123444D03*
X321056Y98044D03*
X321056Y72644D03*
X346456Y199644D03*
X346456Y174244D03*
X346456Y148844D03*
X346456Y123444D03*
X346456Y98044D03*
X346456Y72644D03*
D11*
X41656Y409194D03*
X67056Y409194D03*
X92456Y409194D03*
X117856Y409194D03*
X143256Y409194D03*
X168656Y409194D03*
X41656Y434594D03*
X67056Y434594D03*
X92456Y434594D03*
X117856Y434594D03*
X143256Y434594D03*
X168656Y434594D03*
X194056Y409194D03*
X219456Y409194D03*
X244856Y409194D03*
X270256Y409194D03*
X295656Y409194D03*
X321056Y409194D03*
X194056Y434594D03*
X219456Y434594D03*
X244856Y434594D03*
X270256Y434594D03*
X295656Y434594D03*
X321056Y434594D03*
X41656Y15494D03*
X67056Y15494D03*
X92456Y15494D03*
X117856Y15494D03*
X143256Y15494D03*
X168656Y15494D03*
X41656Y40894D03*
X67056Y40894D03*
X92456Y40894D03*
X117856Y40894D03*
X143256Y40894D03*
X168656Y40894D03*
X194056Y15494D03*
X219456Y15494D03*
X244856Y15494D03*
X270256Y15494D03*
X295656Y15494D03*
X321056Y15494D03*
X194056Y40894D03*
X219456Y40894D03*
X244856Y40894D03*
X270256Y40894D03*
X295656Y40894D03*
X321056Y40894D03*
D12*
X105970Y165600D03*
X105970Y173600D03*
X105970Y181600D03*
X105970Y189600D03*
X105970Y197600D03*
X105970Y205600D03*
X105970Y213600D03*
X105970Y221600D03*
X105970Y229600D03*
X105970Y237600D03*
X105970Y245600D03*
X105970Y253600D03*
X105970Y261600D03*
X105970Y269600D03*
X105970Y277600D03*
X105970Y285600D03*
D13*
X120896Y300526D03*
X128896Y300526D03*
X136896Y300526D03*
X144896Y300526D03*
X152896Y300526D03*
X160896Y300526D03*
X168896Y300526D03*
X176896Y300526D03*
X184896Y300526D03*
X192896Y300526D03*
X200896Y300526D03*
X208896Y300526D03*
X216896Y300526D03*
X224896Y300526D03*
X232896Y300526D03*
X240896Y300526D03*
D12*
X255822Y285600D03*
X255822Y277600D03*
X255822Y269600D03*
X255822Y261600D03*
X255822Y253600D03*
X255822Y245600D03*
X255822Y237600D03*
X255822Y229600D03*
X255822Y221600D03*
X255822Y213600D03*
X255822Y205600D03*
X255822Y197600D03*
X255822Y189600D03*
X255822Y181600D03*
X255822Y173600D03*
X255822Y165600D03*
D13*
X240896Y150674D03*
X232896Y150674D03*
X224896Y150674D03*
X216896Y150674D03*
X208896Y150674D03*
X200896Y150674D03*
X192896Y150674D03*
X184896Y150674D03*
X176896Y150674D03*
X168896Y150674D03*
X160896Y150674D03*
X152896Y150674D03*
X144896Y150674D03*
X136896Y150674D03*
X128896Y150674D03*
X120896Y150674D03*
D10*
X374396Y377698D03*
X374396Y352298D03*
X374396Y326898D03*
X374396Y301498D03*
X374396Y276098D03*
X374396Y250698D03*
X399796Y377698D03*
X399796Y352298D03*
X399796Y326898D03*
X399796Y301498D03*
X399796Y276098D03*
X399796Y250698D03*
X374396Y225298D03*
X399796Y225298D03*
X374396Y199898D03*
X374396Y174498D03*
X374396Y149098D03*
X374396Y123698D03*
X374396Y98298D03*
X374396Y72898D03*
X399796Y199898D03*
X399796Y174498D03*
X399796Y149098D03*
X399796Y123698D03*
X399796Y98298D03*
X399796Y72898D03*
X679196Y377698D03*
X679196Y352298D03*
X679196Y326898D03*
X679196Y301498D03*
X679196Y276098D03*
X679196Y250698D03*
X704596Y377698D03*
X704596Y352298D03*
X704596Y326898D03*
X704596Y301498D03*
X704596Y276098D03*
X704596Y250698D03*
X679196Y225298D03*
X704596Y225298D03*
X679196Y199898D03*
X679196Y174498D03*
X679196Y149098D03*
X679196Y123698D03*
X679196Y98298D03*
X679196Y72898D03*
X704596Y199898D03*
X704596Y174498D03*
X704596Y149098D03*
X704596Y123698D03*
X704596Y98298D03*
X704596Y72898D03*
D11*
X399796Y409448D03*
X425196Y409448D03*
X450596Y409448D03*
X475996Y409448D03*
X501396Y409448D03*
X526796Y409448D03*
X399796Y434848D03*
X425196Y434848D03*
X450596Y434848D03*
X475996Y434848D03*
X501396Y434848D03*
X526796Y434848D03*
X552196Y409448D03*
X577596Y409448D03*
X602996Y409448D03*
X628396Y409448D03*
X653796Y409448D03*
X679196Y409448D03*
X552196Y434848D03*
X577596Y434848D03*
X602996Y434848D03*
X628396Y434848D03*
X653796Y434848D03*
X679196Y434848D03*
X399796Y15748D03*
X425196Y15748D03*
X450596Y15748D03*
X475996Y15748D03*
X501396Y15748D03*
X526796Y15748D03*
X399796Y41148D03*
X425196Y41148D03*
X450596Y41148D03*
X475996Y41148D03*
X501396Y41148D03*
X526796Y41148D03*
X552196Y15748D03*
X577596Y15748D03*
X602996Y15748D03*
X628396Y15748D03*
X653796Y15748D03*
X679196Y15748D03*
X552196Y41148D03*
X577596Y41148D03*
X602996Y41148D03*
X628396Y41148D03*
X653796Y41148D03*
X679196Y41148D03*
D12*
X464110Y165854D03*
X464110Y173854D03*
X464110Y181854D03*
X464110Y189854D03*
X464110Y197854D03*
X464110Y205854D03*
X464110Y213854D03*
X464110Y221854D03*
X464110Y229854D03*
X464110Y237854D03*
X464110Y245854D03*
X464110Y253854D03*
X464110Y261854D03*
X464110Y269854D03*
X464110Y277854D03*
X464110Y285854D03*
D13*
X479036Y300780D03*
X487036Y300780D03*
X495036Y300780D03*
X503036Y300780D03*
X511036Y300780D03*
X519036Y300780D03*
X527036Y300780D03*
X535036Y300780D03*
X543036Y300780D03*
X551036Y300780D03*
X559036Y300780D03*
X567036Y300780D03*
X575036Y300780D03*
X583036Y300780D03*
X591036Y300780D03*
X599036Y300780D03*
D12*
X613962Y285854D03*
X613962Y277854D03*
X613962Y269854D03*
X613962Y261854D03*
X613962Y253854D03*
X613962Y245854D03*
X613962Y237854D03*
X613962Y229854D03*
X613962Y221854D03*
X613962Y213854D03*
X613962Y205854D03*
X613962Y197854D03*
X613962Y189854D03*
X613962Y181854D03*
X613962Y173854D03*
X613962Y165854D03*
D13*
X599036Y150928D03*
X591036Y150928D03*
X583036Y150928D03*
X575036Y150928D03*
X567036Y150928D03*
X559036Y150928D03*
X551036Y150928D03*
X543036Y150928D03*
X535036Y150928D03*
X527036Y150928D03*
X519036Y150928D03*
X511036Y150928D03*
X503036Y150928D03*
X495036Y150928D03*
X487036Y150928D03*
X479036Y150928D03*
D10*
X15494Y824484D03*
X15494Y799084D03*
X15494Y773684D03*
X15494Y748284D03*
X15494Y722884D03*
X15494Y697484D03*
X40894Y824484D03*
X40894Y799084D03*
X40894Y773684D03*
X40894Y748284D03*
X40894Y722884D03*
X40894Y697484D03*
X15494Y672084D03*
X40894Y672084D03*
X15494Y646684D03*
X15494Y621284D03*
X15494Y595884D03*
X15494Y570484D03*
X15494Y545084D03*
X15494Y519684D03*
X40894Y646684D03*
X40894Y621284D03*
X40894Y595884D03*
X40894Y570484D03*
X40894Y545084D03*
X40894Y519684D03*
X320294Y824484D03*
X320294Y799084D03*
X320294Y773684D03*
X320294Y748284D03*
X320294Y722884D03*
X320294Y697484D03*
X345694Y824484D03*
X345694Y799084D03*
X345694Y773684D03*
X345694Y748284D03*
X345694Y722884D03*
X345694Y697484D03*
X320294Y672084D03*
X345694Y672084D03*
X320294Y646684D03*
X320294Y621284D03*
X320294Y595884D03*
X320294Y570484D03*
X320294Y545084D03*
X320294Y519684D03*
X345694Y646684D03*
X345694Y621284D03*
X345694Y595884D03*
X345694Y570484D03*
X345694Y545084D03*
X345694Y519684D03*
D11*
X40894Y856234D03*
X66294Y856234D03*
X91694Y856234D03*
X117094Y856234D03*
X142494Y856234D03*
X167894Y856234D03*
X40894Y881634D03*
X66294Y881634D03*
X91694Y881634D03*
X117094Y881634D03*
X142494Y881634D03*
X167894Y881634D03*
X193294Y856234D03*
X218694Y856234D03*
X244094Y856234D03*
X269494Y856234D03*
X294894Y856234D03*
X320294Y856234D03*
X193294Y881634D03*
X218694Y881634D03*
X244094Y881634D03*
X269494Y881634D03*
X294894Y881634D03*
X320294Y881634D03*
X40894Y462534D03*
X66294Y462534D03*
X91694Y462534D03*
X117094Y462534D03*
X142494Y462534D03*
X167894Y462534D03*
X40894Y487934D03*
X66294Y487934D03*
X91694Y487934D03*
X117094Y487934D03*
X142494Y487934D03*
X167894Y487934D03*
X193294Y462534D03*
X218694Y462534D03*
X244094Y462534D03*
X269494Y462534D03*
X294894Y462534D03*
X320294Y462534D03*
X193294Y487934D03*
X218694Y487934D03*
X244094Y487934D03*
X269494Y487934D03*
X294894Y487934D03*
X320294Y487934D03*
D12*
X105208Y612640D03*
X105208Y620640D03*
X105208Y628640D03*
X105208Y636640D03*
X105208Y644640D03*
X105208Y652640D03*
X105208Y660640D03*
X105208Y668640D03*
X105208Y676640D03*
X105208Y684640D03*
X105208Y692640D03*
X105208Y700640D03*
X105208Y708640D03*
X105208Y716640D03*
X105208Y724640D03*
X105208Y732640D03*
D13*
X120134Y747566D03*
X128134Y747566D03*
X136134Y747566D03*
X144134Y747566D03*
X152134Y747566D03*
X160134Y747566D03*
X168134Y747566D03*
X176134Y747566D03*
X184134Y747566D03*
X192134Y747566D03*
X200134Y747566D03*
X208134Y747566D03*
X216134Y747566D03*
X224134Y747566D03*
X232134Y747566D03*
X240134Y747566D03*
D12*
X255060Y732640D03*
X255060Y724640D03*
X255060Y716640D03*
X255060Y708640D03*
X255060Y700640D03*
X255060Y692640D03*
X255060Y684640D03*
X255060Y676640D03*
X255060Y668640D03*
X255060Y660640D03*
X255060Y652640D03*
X255060Y644640D03*
X255060Y636640D03*
X255060Y628640D03*
X255060Y620640D03*
X255060Y612640D03*
D13*
X240134Y597714D03*
X232134Y597714D03*
X224134Y597714D03*
X216134Y597714D03*
X208134Y597714D03*
X200134Y597714D03*
X192134Y597714D03*
X184134Y597714D03*
X176134Y597714D03*
X168134Y597714D03*
X160134Y597714D03*
X152134Y597714D03*
X144134Y597714D03*
X136134Y597714D03*
X128134Y597714D03*
X120134Y597714D03*
D10*
X374142Y825246D03*
X374142Y799846D03*
X374142Y774446D03*
X374142Y749046D03*
X374142Y723646D03*
X374142Y698246D03*
X399542Y825246D03*
X399542Y799846D03*
X399542Y774446D03*
X399542Y749046D03*
X399542Y723646D03*
X399542Y698246D03*
X374142Y672846D03*
X399542Y672846D03*
X374142Y647446D03*
X374142Y622046D03*
X374142Y596646D03*
X374142Y571246D03*
X374142Y545846D03*
X374142Y520446D03*
X399542Y647446D03*
X399542Y622046D03*
X399542Y596646D03*
X399542Y571246D03*
X399542Y545846D03*
X399542Y520446D03*
X678942Y825246D03*
X678942Y799846D03*
X678942Y774446D03*
X678942Y749046D03*
X678942Y723646D03*
X678942Y698246D03*
X704342Y825246D03*
X704342Y799846D03*
X704342Y774446D03*
X704342Y749046D03*
X704342Y723646D03*
X704342Y698246D03*
X678942Y672846D03*
X704342Y672846D03*
X678942Y647446D03*
X678942Y622046D03*
X678942Y596646D03*
X678942Y571246D03*
X678942Y545846D03*
X678942Y520446D03*
X704342Y647446D03*
X704342Y622046D03*
X704342Y596646D03*
X704342Y571246D03*
X704342Y545846D03*
X704342Y520446D03*
D11*
X399542Y856996D03*
X424942Y856996D03*
X450342Y856996D03*
X475742Y856996D03*
X501142Y856996D03*
X526542Y856996D03*
X399542Y882396D03*
X424942Y882396D03*
X450342Y882396D03*
X475742Y882396D03*
X501142Y882396D03*
X526542Y882396D03*
X551942Y856996D03*
X577342Y856996D03*
X602742Y856996D03*
X628142Y856996D03*
X653542Y856996D03*
X678942Y856996D03*
X551942Y882396D03*
X577342Y882396D03*
X602742Y882396D03*
X628142Y882396D03*
X653542Y882396D03*
X678942Y882396D03*
X399542Y463296D03*
X424942Y463296D03*
X450342Y463296D03*
X475742Y463296D03*
X501142Y463296D03*
X526542Y463296D03*
X399542Y488696D03*
X424942Y488696D03*
X450342Y488696D03*
X475742Y488696D03*
X501142Y488696D03*
X526542Y488696D03*
X551942Y463296D03*
X577342Y463296D03*
X602742Y463296D03*
X628142Y463296D03*
X653542Y463296D03*
X678942Y463296D03*
X551942Y488696D03*
X577342Y488696D03*
X602742Y488696D03*
X628142Y488696D03*
X653542Y488696D03*
X678942Y488696D03*
D12*
X463856Y613402D03*
X463856Y621402D03*
X463856Y629402D03*
X463856Y637402D03*
X463856Y645402D03*
X463856Y653402D03*
X463856Y661402D03*
X463856Y669402D03*
X463856Y677402D03*
X463856Y685402D03*
X463856Y693402D03*
X463856Y701402D03*
X463856Y709402D03*
X463856Y717402D03*
X463856Y725402D03*
X463856Y733402D03*
D13*
X478782Y748328D03*
X486782Y748328D03*
X494782Y748328D03*
X502782Y748328D03*
X510782Y748328D03*
X518782Y748328D03*
X526782Y748328D03*
X534782Y748328D03*
X542782Y748328D03*
X550782Y748328D03*
X558782Y748328D03*
X566782Y748328D03*
X574782Y748328D03*
X582782Y748328D03*
X590782Y748328D03*
X598782Y748328D03*
D12*
X613708Y733402D03*
X613708Y725402D03*
X613708Y717402D03*
X613708Y709402D03*
X613708Y701402D03*
X613708Y693402D03*
X613708Y685402D03*
X613708Y677402D03*
X613708Y669402D03*
X613708Y661402D03*
X613708Y653402D03*
X613708Y645402D03*
X613708Y637402D03*
X613708Y629402D03*
X613708Y621402D03*
X613708Y613402D03*
D13*
X598782Y598476D03*
X590782Y598476D03*
X582782Y598476D03*
X574782Y598476D03*
X566782Y598476D03*
X558782Y598476D03*
X550782Y598476D03*
X542782Y598476D03*
X534782Y598476D03*
X526782Y598476D03*
X518782Y598476D03*
X510782Y598476D03*
X502782Y598476D03*
X494782Y598476D03*
X486782Y598476D03*
X478782Y598476D03*
D14*
X734158Y152620D02*
X734158Y137380D01*
X759558Y137380D02*
X759558Y152620D01*
X784958Y152620D02*
X784958Y137380D01*
X810358Y137380D02*
X810358Y152620D01*
X835758Y152620D02*
X835758Y137380D01*
X861158Y137380D02*
X861158Y152620D01*
X886558Y152620D02*
X886558Y137380D01*
X911958Y137380D02*
X911958Y152620D01*
X734158Y25640D02*
X734158Y10400D01*
X759558Y10400D02*
X759558Y25640D01*
X784958Y25640D02*
X784958Y10400D01*
X810358Y10400D02*
X810358Y25640D01*
X835758Y25640D02*
X835758Y10400D01*
X861158Y10400D02*
X861158Y25640D01*
X886558Y25640D02*
X886558Y10400D01*
X911958Y10400D02*
X911958Y25640D01*
D15*
X843308Y53750D03*
X836808Y53750D03*
X830308Y53750D03*
X823808Y53750D03*
X817308Y53750D03*
X810808Y53750D03*
X804308Y53750D03*
X797808Y53750D03*
X797808Y111250D03*
X804308Y111250D03*
X810808Y111250D03*
X817308Y111250D03*
X823808Y111250D03*
X830308Y111250D03*
X836808Y111250D03*
X843308Y111250D03*
D14*
X733650Y298162D02*
X733650Y313402D01*
X759050Y313402D02*
X759050Y298162D01*
X784450Y298162D02*
X784450Y313402D01*
X809850Y313402D02*
X809850Y298162D01*
X835250Y298162D02*
X835250Y313402D01*
X860650Y313402D02*
X860650Y298162D01*
X886050Y298162D02*
X886050Y313402D01*
X911450Y313402D02*
X911450Y298162D01*
X733650Y186422D02*
X733650Y171182D01*
X759050Y171182D02*
X759050Y186422D01*
X784450Y186422D02*
X784450Y171182D01*
X809850Y171182D02*
X809850Y186422D01*
X835250Y186422D02*
X835250Y171182D01*
X860650Y171182D02*
X860650Y186422D01*
X886050Y186422D02*
X886050Y171182D01*
X911450Y171182D02*
X911450Y186422D01*
D15*
X842800Y214532D03*
X836300Y214532D03*
X829800Y214532D03*
X823300Y214532D03*
X816800Y214532D03*
X810300Y214532D03*
X803800Y214532D03*
X797300Y214532D03*
X797300Y272032D03*
X803800Y272032D03*
X810300Y272032D03*
X816800Y272032D03*
X823300Y272032D03*
X829800Y272032D03*
X836300Y272032D03*
X842800Y272032D03*
D14*
X733904Y459706D02*
X733904Y474946D01*
X759304Y474946D02*
X759304Y459706D01*
X784704Y459706D02*
X784704Y474946D01*
X810104Y474946D02*
X810104Y459706D01*
X835504Y459706D02*
X835504Y474946D01*
X860904Y474946D02*
X860904Y459706D01*
X886304Y459706D02*
X886304Y474946D01*
X911704Y474946D02*
X911704Y459706D01*
X733904Y347966D02*
X733904Y332726D01*
X759304Y332726D02*
X759304Y347966D01*
X784704Y347966D02*
X784704Y332726D01*
X810104Y332726D02*
X810104Y347966D01*
X835504Y347966D02*
X835504Y332726D01*
X860904Y332726D02*
X860904Y347966D01*
X886304Y347966D02*
X886304Y332726D01*
X911704Y332726D02*
X911704Y347966D01*
D15*
X843054Y376076D03*
X836554Y376076D03*
X830054Y376076D03*
X823554Y376076D03*
X817054Y376076D03*
X810554Y376076D03*
X804054Y376076D03*
X797554Y376076D03*
X797554Y433576D03*
X804054Y433576D03*
X810554Y433576D03*
X817054Y433576D03*
X823554Y433576D03*
X830054Y433576D03*
X836554Y433576D03*
X843054Y433576D03*
D14*
X733650Y622774D02*
X733650Y638014D01*
X759050Y638014D02*
X759050Y622774D01*
X784450Y622774D02*
X784450Y638014D01*
X809850Y638014D02*
X809850Y622774D01*
X835250Y622774D02*
X835250Y638014D01*
X860650Y638014D02*
X860650Y622774D01*
X886050Y622774D02*
X886050Y638014D01*
X911450Y638014D02*
X911450Y622774D01*
X733650Y511034D02*
X733650Y495794D01*
X759050Y495794D02*
X759050Y511034D01*
X784450Y511034D02*
X784450Y495794D01*
X809850Y495794D02*
X809850Y511034D01*
X835250Y511034D02*
X835250Y495794D01*
X860650Y495794D02*
X860650Y511034D01*
X886050Y511034D02*
X886050Y495794D01*
X911450Y495794D02*
X911450Y511034D01*
D15*
X842800Y539144D03*
X836300Y539144D03*
X829800Y539144D03*
X823300Y539144D03*
X816800Y539144D03*
X810300Y539144D03*
X803800Y539144D03*
X797300Y539144D03*
X797300Y596644D03*
X803800Y596644D03*
X810300Y596644D03*
X816800Y596644D03*
X823300Y596644D03*
X829800Y596644D03*
X836300Y596644D03*
X842800Y596644D03*
D14*
X733650Y784826D02*
X733650Y800066D01*
X759050Y800066D02*
X759050Y784826D01*
X784450Y784826D02*
X784450Y800066D01*
X809850Y800066D02*
X809850Y784826D01*
X835250Y784826D02*
X835250Y800066D01*
X860650Y800066D02*
X860650Y784826D01*
X886050Y784826D02*
X886050Y800066D01*
X911450Y800066D02*
X911450Y784826D01*
X733650Y673086D02*
X733650Y657846D01*
X759050Y657846D02*
X759050Y673086D01*
X784450Y673086D02*
X784450Y657846D01*
X809850Y657846D02*
X809850Y673086D01*
X835250Y673086D02*
X835250Y657846D01*
X860650Y657846D02*
X860650Y673086D01*
X886050Y673086D02*
X886050Y657846D01*
X911450Y657846D02*
X911450Y673086D01*
D15*
X842800Y701196D03*
X836300Y701196D03*
X829800Y701196D03*
X823300Y701196D03*
X816800Y701196D03*
X810300Y701196D03*
X803800Y701196D03*
X797300Y701196D03*
X797300Y758696D03*
X803800Y758696D03*
X810300Y758696D03*
X816800Y758696D03*
X823300Y758696D03*
X829800Y758696D03*
X836300Y758696D03*
X842800Y758696D03*
D14*
X733142Y946878D02*
X733142Y962118D01*
X758542Y962118D02*
X758542Y946878D01*
X783942Y946878D02*
X783942Y962118D01*
X809342Y962118D02*
X809342Y946878D01*
X834742Y946878D02*
X834742Y962118D01*
X860142Y962118D02*
X860142Y946878D01*
X885542Y946878D02*
X885542Y962118D01*
X910942Y962118D02*
X910942Y946878D01*
X733142Y835138D02*
X733142Y819898D01*
X758542Y819898D02*
X758542Y835138D01*
X783942Y835138D02*
X783942Y819898D01*
X809342Y819898D02*
X809342Y835138D01*
X834742Y835138D02*
X834742Y819898D01*
X860142Y819898D02*
X860142Y835138D01*
X885542Y835138D02*
X885542Y819898D01*
X910942Y819898D02*
X910942Y835138D01*
D15*
X842292Y863248D03*
X835792Y863248D03*
X829292Y863248D03*
X822792Y863248D03*
X816292Y863248D03*
X809792Y863248D03*
X803292Y863248D03*
X796792Y863248D03*
X796792Y920748D03*
X803292Y920748D03*
X809792Y920748D03*
X816292Y920748D03*
X822792Y920748D03*
X829292Y920748D03*
X835792Y920748D03*
X842292Y920748D03*
D16*
X105156Y285369D02*
X98806Y285369D01*
X44831Y339344D01*
X28956Y339344D01*
X16256Y326644D01*
X105156Y285369D02*
X105970Y285600D01*
X105156Y279019D02*
X89281Y279019D01*
X41656Y326644D01*
X105156Y279019D02*
X105970Y277600D01*
X105156Y269494D02*
X89281Y269494D01*
X44831Y313944D01*
X28956Y313944D01*
X16256Y301244D01*
X105156Y269494D02*
X105970Y269600D01*
X105156Y263144D02*
X79756Y263144D01*
X41656Y301244D01*
X105156Y263144D02*
X105970Y261600D01*
X105156Y253619D02*
X79756Y253619D01*
X44831Y288544D01*
X28956Y288544D01*
X16256Y275844D01*
X105156Y253619D02*
X105970Y253600D01*
X105156Y247269D02*
X70231Y247269D01*
X41656Y275844D01*
X105156Y247269D02*
X105970Y245600D01*
X105156Y237744D02*
X70231Y237744D01*
X44831Y263144D01*
X28956Y263144D01*
X16256Y250444D01*
X105156Y237744D02*
X105970Y237600D01*
X105156Y231394D02*
X60706Y231394D01*
X41656Y250444D01*
X105156Y231394D02*
X105970Y229600D01*
X105156Y221869D02*
X60706Y221869D01*
X44831Y237744D01*
X28956Y237744D01*
X16256Y225044D01*
X105156Y221869D02*
X105970Y221600D01*
X105156Y164719D02*
X57531Y164719D01*
X41656Y148844D01*
X105156Y164719D02*
X105970Y165600D01*
X105156Y174244D02*
X57531Y174244D01*
X44831Y161544D01*
X28956Y161544D01*
X16256Y148844D01*
X105156Y174244D02*
X105970Y173600D01*
X105156Y180594D02*
X48006Y180594D01*
X41656Y174244D01*
X105156Y180594D02*
X105970Y181600D01*
X105156Y190119D02*
X48006Y190119D01*
X44831Y186944D01*
X28956Y186944D01*
X16256Y174244D01*
X105156Y190119D02*
X105970Y189600D01*
X105156Y199644D02*
X41656Y199644D01*
X105156Y199644D02*
X105970Y197600D01*
X105156Y205994D02*
X51181Y205994D01*
X44831Y212344D01*
X28956Y212344D01*
X16256Y199644D01*
X105156Y205994D02*
X105970Y205600D01*
X105156Y215519D02*
X51181Y215519D01*
X41656Y225044D01*
X105156Y215519D02*
X105970Y213600D01*
X121031Y148844D02*
X121031Y94869D01*
X67056Y40894D01*
X121031Y148844D02*
X120896Y150674D01*
X127381Y148844D02*
X127381Y91694D01*
X79756Y44069D01*
X79756Y28194D01*
X92456Y15494D01*
X127381Y148844D02*
X128896Y150674D01*
X136906Y148844D02*
X136906Y85344D01*
X92456Y40894D01*
X136906Y148844D02*
X136896Y150674D01*
X143256Y148844D02*
X143256Y82169D01*
X105156Y44069D01*
X105156Y28194D01*
X117856Y15494D01*
X143256Y148844D02*
X144896Y150674D01*
X152781Y148844D02*
X152781Y75819D01*
X117856Y40894D01*
X152781Y148844D02*
X152896Y150674D01*
X159131Y148844D02*
X159131Y72644D01*
X130556Y44069D01*
X130556Y28194D01*
X143256Y15494D01*
X159131Y148844D02*
X160896Y150674D01*
X168656Y148844D02*
X168656Y66294D01*
X143256Y40894D01*
X168656Y148844D02*
X168896Y150674D01*
X175006Y148844D02*
X175006Y63119D01*
X155956Y44069D01*
X155956Y28194D01*
X168656Y15494D01*
X175006Y148844D02*
X176896Y150674D01*
X184531Y148844D02*
X184531Y56769D01*
X168656Y40894D01*
X184531Y148844D02*
X184896Y150674D01*
X241681Y148844D02*
X241681Y59944D01*
X257556Y44069D01*
X257556Y28194D01*
X270256Y15494D01*
X241681Y148844D02*
X240896Y150674D01*
X232156Y148844D02*
X232156Y53594D01*
X244856Y40894D01*
X232156Y148844D02*
X232896Y150674D01*
X225806Y148844D02*
X225806Y50419D01*
X232156Y44069D01*
X232156Y28194D01*
X244856Y15494D01*
X225806Y148844D02*
X224896Y150674D01*
X216281Y148844D02*
X216281Y44069D01*
X219456Y40894D01*
X216281Y148844D02*
X216896Y150674D01*
X206756Y148844D02*
X206756Y28194D01*
X219456Y15494D01*
X206756Y148844D02*
X208896Y150674D01*
X200406Y148844D02*
X200406Y47244D01*
X194056Y40894D01*
X200406Y148844D02*
X200896Y150674D01*
X190881Y148844D02*
X190881Y53594D01*
X181356Y44069D01*
X181356Y28194D01*
X194056Y15494D01*
X190881Y148844D02*
X192896Y150674D01*
X257556Y221869D02*
X308356Y221869D01*
X317881Y212344D01*
X333756Y212344D01*
X346456Y225044D01*
X257556Y221869D02*
X255822Y221600D01*
X257556Y212344D02*
X308356Y212344D01*
X321056Y199644D01*
X257556Y212344D02*
X255822Y213600D01*
X257556Y205994D02*
X298831Y205994D01*
X317881Y186944D01*
X333756Y186944D01*
X346456Y199644D01*
X257556Y205994D02*
X255822Y205600D01*
X257556Y196469D02*
X298831Y196469D01*
X321056Y174244D01*
X257556Y196469D02*
X255822Y197600D01*
X257556Y190119D02*
X289306Y190119D01*
X317881Y161544D01*
X333756Y161544D01*
X346456Y174244D01*
X257556Y190119D02*
X255822Y189600D01*
X257556Y180594D02*
X289306Y180594D01*
X321056Y148844D01*
X257556Y180594D02*
X255822Y181600D01*
X257556Y174244D02*
X279781Y174244D01*
X317881Y136144D01*
X333756Y136144D01*
X346456Y148844D01*
X257556Y174244D02*
X255822Y173600D01*
X257556Y164719D02*
X279781Y164719D01*
X321056Y123444D01*
X257556Y164719D02*
X255822Y165600D01*
X257556Y228219D02*
X317881Y228219D01*
X321056Y225044D01*
X257556Y228219D02*
X255822Y229600D01*
X257556Y237744D02*
X333756Y237744D01*
X346456Y250444D01*
X257556Y237744D02*
X255822Y237600D01*
X257556Y247269D02*
X317881Y247269D01*
X321056Y250444D01*
X257556Y247269D02*
X255822Y245600D01*
X257556Y253619D02*
X308356Y253619D01*
X317881Y263144D01*
X333756Y263144D01*
X346456Y275844D01*
X257556Y253619D02*
X255822Y253600D01*
X257556Y263144D02*
X308356Y263144D01*
X321056Y275844D01*
X257556Y263144D02*
X255822Y261600D01*
X257556Y269494D02*
X298831Y269494D01*
X317881Y288544D01*
X333756Y288544D01*
X346456Y301244D01*
X257556Y269494D02*
X255822Y269600D01*
X257556Y279019D02*
X298831Y279019D01*
X321056Y301244D01*
X257556Y279019D02*
X255822Y277600D01*
X257556Y285369D02*
X289306Y285369D01*
X317881Y313944D01*
X333756Y313944D01*
X346456Y326644D01*
X257556Y285369D02*
X255822Y285600D01*
X121031Y301244D02*
X121031Y380619D01*
X92456Y409194D01*
X121031Y301244D02*
X120896Y300526D01*
X127381Y301244D02*
X127381Y383794D01*
X105156Y406019D01*
X105156Y421894D01*
X92456Y434594D01*
X127381Y301244D02*
X128896Y300526D01*
X136906Y301244D02*
X136906Y390144D01*
X117856Y409194D01*
X136906Y301244D02*
X136896Y300526D01*
X143256Y301244D02*
X143256Y393319D01*
X130556Y406019D01*
X130556Y421894D01*
X117856Y434594D01*
X143256Y301244D02*
X144896Y300526D01*
X152781Y301244D02*
X152781Y399669D01*
X143256Y409194D01*
X152781Y301244D02*
X152896Y300526D01*
X159131Y301244D02*
X159131Y402844D01*
X155956Y406019D01*
X155956Y421894D01*
X143256Y434594D01*
X159131Y301244D02*
X160896Y300526D01*
X168656Y301244D02*
X168656Y409194D01*
X168656Y301244D02*
X168896Y300526D01*
X178181Y301244D02*
X178181Y402844D01*
X181356Y406019D01*
X181356Y421894D01*
X168656Y434594D01*
X178181Y301244D02*
X176896Y300526D01*
X241681Y301244D02*
X241681Y364744D01*
X282956Y406019D01*
X282956Y421894D01*
X270256Y434594D01*
X241681Y301244D02*
X240896Y300526D01*
X232156Y301244D02*
X232156Y371094D01*
X270256Y409194D01*
X232156Y301244D02*
X232896Y300526D01*
X225806Y301244D02*
X225806Y374269D01*
X257556Y406019D01*
X257556Y421894D01*
X244856Y434594D01*
X225806Y301244D02*
X224896Y300526D01*
X216281Y301244D02*
X216281Y380619D01*
X244856Y409194D01*
X216281Y301244D02*
X216896Y300526D01*
X209931Y301244D02*
X209931Y383794D01*
X232156Y406019D01*
X232156Y421894D01*
X219456Y434594D01*
X209931Y301244D02*
X208896Y300526D01*
X200406Y301244D02*
X200406Y390144D01*
X219456Y409194D01*
X200406Y301244D02*
X200896Y300526D01*
X194056Y301244D02*
X194056Y393319D01*
X206756Y406019D01*
X206756Y421894D01*
X194056Y434594D01*
X194056Y301244D02*
X192896Y300526D01*
X184531Y301244D02*
X184531Y399669D01*
X194056Y409194D01*
X184531Y301244D02*
X184896Y300526D01*
X121356Y221044D02*
X121356Y149044D01*
X129356Y149044D02*
X129356Y221044D01*
X137356Y221044D02*
X137356Y153044D01*
X145356Y149044D02*
X145356Y221044D01*
X153356Y221044D02*
X153356Y149044D01*
X161356Y149044D02*
X161356Y221044D01*
X169356Y221044D02*
X169356Y153044D01*
X177356Y149044D02*
X177356Y221044D01*
X185356Y213044D02*
X185356Y149044D01*
X193356Y149044D02*
X193356Y205044D01*
X201356Y197044D02*
X201356Y149044D01*
X209356Y153044D02*
X209356Y189044D01*
X217356Y181044D02*
X217356Y149044D01*
X225356Y149044D02*
X225356Y173044D01*
X233356Y165044D02*
X233356Y153044D01*
X241356Y153044D02*
X241356Y157044D01*
X257356Y285044D02*
X185356Y285044D01*
X185356Y277044D02*
X257356Y277044D01*
X257356Y269044D02*
X185356Y269044D01*
X185356Y261044D02*
X257356Y261044D01*
X257356Y253044D02*
X185356Y253044D01*
X185356Y245044D02*
X257356Y245044D01*
X257356Y237044D02*
X185356Y237044D01*
X185356Y229044D02*
X257356Y229044D01*
X257356Y221044D02*
X193356Y221044D01*
X201356Y213044D02*
X257356Y213044D01*
X253356Y205044D02*
X209356Y205044D01*
X217356Y197044D02*
X257356Y197044D01*
X257356Y189044D02*
X225356Y189044D01*
X233356Y181044D02*
X257356Y181044D01*
X257356Y173044D02*
X241356Y173044D01*
X249356Y165044D02*
X257356Y165044D01*
X113356Y229044D02*
X105356Y229044D01*
X105356Y237044D02*
X113356Y237044D01*
X113356Y245044D02*
X105356Y245044D01*
X105356Y253044D02*
X113356Y253044D01*
X113356Y261044D02*
X105356Y261044D01*
X105356Y269044D02*
X113356Y269044D01*
X113356Y277044D02*
X105356Y277044D01*
X105356Y285044D02*
X113356Y285044D01*
X121356Y293044D02*
X121356Y301044D01*
X129356Y301044D02*
X129356Y293044D01*
X137356Y293044D02*
X137356Y301044D01*
X145356Y301044D02*
X145356Y293044D01*
X153356Y293044D02*
X153356Y297044D01*
X161356Y297044D02*
X161356Y293044D01*
X169356Y293044D02*
X169356Y301044D01*
X177356Y301044D02*
X177356Y293044D01*
X456946Y285623D02*
X463296Y285623D01*
X456946Y285623D02*
X402971Y339598D01*
X387096Y339598D01*
X374396Y326898D01*
X463296Y285623D02*
X464110Y285854D01*
X463296Y279273D02*
X447421Y279273D01*
X399796Y326898D01*
X463296Y279273D02*
X464110Y277854D01*
X463296Y269748D02*
X447421Y269748D01*
X402971Y314198D01*
X387096Y314198D01*
X374396Y301498D01*
X463296Y269748D02*
X464110Y269854D01*
X463296Y263398D02*
X437896Y263398D01*
X399796Y301498D01*
X463296Y263398D02*
X464110Y261854D01*
X463296Y253873D02*
X437896Y253873D01*
X402971Y288798D01*
X387096Y288798D01*
X374396Y276098D01*
X463296Y253873D02*
X464110Y253854D01*
X463296Y247523D02*
X428371Y247523D01*
X399796Y276098D01*
X463296Y247523D02*
X464110Y245854D01*
X463296Y237998D02*
X428371Y237998D01*
X402971Y263398D01*
X387096Y263398D01*
X374396Y250698D01*
X463296Y237998D02*
X464110Y237854D01*
X463296Y231648D02*
X418846Y231648D01*
X399796Y250698D01*
X463296Y231648D02*
X464110Y229854D01*
X463296Y222123D02*
X418846Y222123D01*
X402971Y237998D01*
X387096Y237998D01*
X374396Y225298D01*
X463296Y222123D02*
X464110Y221854D01*
X463296Y164973D02*
X415671Y164973D01*
X399796Y149098D01*
X463296Y164973D02*
X464110Y165854D01*
X463296Y174498D02*
X415671Y174498D01*
X402971Y161798D01*
X387096Y161798D01*
X374396Y149098D01*
X463296Y174498D02*
X464110Y173854D01*
X463296Y180848D02*
X406146Y180848D01*
X399796Y174498D01*
X463296Y180848D02*
X464110Y181854D01*
X463296Y190373D02*
X406146Y190373D01*
X402971Y187198D01*
X387096Y187198D01*
X374396Y174498D01*
X463296Y190373D02*
X464110Y189854D01*
X463296Y199898D02*
X399796Y199898D01*
X463296Y199898D02*
X464110Y197854D01*
X463296Y206248D02*
X409321Y206248D01*
X402971Y212598D01*
X387096Y212598D01*
X374396Y199898D01*
X463296Y206248D02*
X464110Y205854D01*
X463296Y215773D02*
X409321Y215773D01*
X399796Y225298D01*
X463296Y215773D02*
X464110Y213854D01*
X479171Y149098D02*
X479171Y95123D01*
X425196Y41148D01*
X479171Y149098D02*
X479036Y150928D01*
X485521Y149098D02*
X485521Y91948D01*
X437896Y44323D01*
X437896Y28448D01*
X450596Y15748D01*
X485521Y149098D02*
X487036Y150928D01*
X495046Y149098D02*
X495046Y85598D01*
X450596Y41148D01*
X495046Y149098D02*
X495036Y150928D01*
X501396Y149098D02*
X501396Y82423D01*
X463296Y44323D01*
X463296Y28448D01*
X475996Y15748D01*
X501396Y149098D02*
X503036Y150928D01*
X510921Y149098D02*
X510921Y76073D01*
X475996Y41148D01*
X510921Y149098D02*
X511036Y150928D01*
X517271Y149098D02*
X517271Y72898D01*
X488696Y44323D01*
X488696Y28448D01*
X501396Y15748D01*
X517271Y149098D02*
X519036Y150928D01*
X526796Y149098D02*
X526796Y66548D01*
X501396Y41148D01*
X526796Y149098D02*
X527036Y150928D01*
X533146Y149098D02*
X533146Y63373D01*
X514096Y44323D01*
X514096Y28448D01*
X526796Y15748D01*
X533146Y149098D02*
X535036Y150928D01*
X542671Y149098D02*
X542671Y57023D01*
X526796Y41148D01*
X542671Y149098D02*
X543036Y150928D01*
X599821Y149098D02*
X599821Y60198D01*
X615696Y44323D01*
X615696Y28448D01*
X628396Y15748D01*
X599821Y149098D02*
X599036Y150928D01*
X590296Y149098D02*
X590296Y53848D01*
X602996Y41148D01*
X590296Y149098D02*
X591036Y150928D01*
X583946Y149098D02*
X583946Y50673D01*
X590296Y44323D01*
X590296Y28448D01*
X602996Y15748D01*
X583946Y149098D02*
X583036Y150928D01*
X574421Y149098D02*
X574421Y44323D01*
X577596Y41148D01*
X574421Y149098D02*
X575036Y150928D01*
X564896Y149098D02*
X564896Y28448D01*
X577596Y15748D01*
X564896Y149098D02*
X567036Y150928D01*
X558546Y149098D02*
X558546Y47498D01*
X552196Y41148D01*
X558546Y149098D02*
X559036Y150928D01*
X549021Y149098D02*
X549021Y53848D01*
X539496Y44323D01*
X539496Y28448D01*
X552196Y15748D01*
X549021Y149098D02*
X551036Y150928D01*
X615696Y222123D02*
X666496Y222123D01*
X676021Y212598D01*
X691896Y212598D01*
X704596Y225298D01*
X615696Y222123D02*
X613962Y221854D01*
X615696Y212598D02*
X666496Y212598D01*
X679196Y199898D01*
X615696Y212598D02*
X613962Y213854D01*
X615696Y206248D02*
X656971Y206248D01*
X676021Y187198D01*
X691896Y187198D01*
X704596Y199898D01*
X615696Y206248D02*
X613962Y205854D01*
X615696Y196723D02*
X656971Y196723D01*
X679196Y174498D01*
X615696Y196723D02*
X613962Y197854D01*
X615696Y190373D02*
X647446Y190373D01*
X676021Y161798D01*
X691896Y161798D01*
X704596Y174498D01*
X615696Y190373D02*
X613962Y189854D01*
X615696Y180848D02*
X647446Y180848D01*
X679196Y149098D01*
X615696Y180848D02*
X613962Y181854D01*
X615696Y174498D02*
X637921Y174498D01*
X676021Y136398D01*
X691896Y136398D01*
X704596Y149098D01*
X615696Y174498D02*
X613962Y173854D01*
X615696Y164973D02*
X637921Y164973D01*
X679196Y123698D01*
X615696Y164973D02*
X613962Y165854D01*
X615696Y228473D02*
X676021Y228473D01*
X679196Y225298D01*
X615696Y228473D02*
X613962Y229854D01*
X615696Y237998D02*
X691896Y237998D01*
X704596Y250698D01*
X615696Y237998D02*
X613962Y237854D01*
X615696Y247523D02*
X676021Y247523D01*
X679196Y250698D01*
X615696Y247523D02*
X613962Y245854D01*
X615696Y253873D02*
X666496Y253873D01*
X676021Y263398D01*
X691896Y263398D01*
X704596Y276098D01*
X615696Y253873D02*
X613962Y253854D01*
X615696Y263398D02*
X666496Y263398D01*
X679196Y276098D01*
X615696Y263398D02*
X613962Y261854D01*
X615696Y269748D02*
X656971Y269748D01*
X676021Y288798D01*
X691896Y288798D01*
X704596Y301498D01*
X615696Y269748D02*
X613962Y269854D01*
X615696Y279273D02*
X656971Y279273D01*
X679196Y301498D01*
X615696Y279273D02*
X613962Y277854D01*
X615696Y285623D02*
X647446Y285623D01*
X676021Y314198D01*
X691896Y314198D01*
X704596Y326898D01*
X615696Y285623D02*
X613962Y285854D01*
X479171Y301498D02*
X479171Y380873D01*
X450596Y409448D01*
X479171Y301498D02*
X479036Y300780D01*
X485521Y301498D02*
X485521Y384048D01*
X463296Y406273D01*
X463296Y422148D01*
X450596Y434848D01*
X485521Y301498D02*
X487036Y300780D01*
X495046Y301498D02*
X495046Y390398D01*
X475996Y409448D01*
X495046Y301498D02*
X495036Y300780D01*
X501396Y301498D02*
X501396Y393573D01*
X488696Y406273D01*
X488696Y422148D01*
X475996Y434848D01*
X501396Y301498D02*
X503036Y300780D01*
X510921Y301498D02*
X510921Y399923D01*
X501396Y409448D01*
X510921Y301498D02*
X511036Y300780D01*
X517271Y301498D02*
X517271Y403098D01*
X514096Y406273D01*
X514096Y422148D01*
X501396Y434848D01*
X517271Y301498D02*
X519036Y300780D01*
X526796Y301498D02*
X526796Y409448D01*
X526796Y301498D02*
X527036Y300780D01*
X536321Y301498D02*
X536321Y403098D01*
X539496Y406273D01*
X539496Y422148D01*
X526796Y434848D01*
X536321Y301498D02*
X535036Y300780D01*
X599821Y301498D02*
X599821Y364998D01*
X641096Y406273D01*
X641096Y422148D01*
X628396Y434848D01*
X599821Y301498D02*
X599036Y300780D01*
X590296Y301498D02*
X590296Y371348D01*
X628396Y409448D01*
X590296Y301498D02*
X591036Y300780D01*
X583946Y301498D02*
X583946Y374523D01*
X615696Y406273D01*
X615696Y422148D01*
X602996Y434848D01*
X583946Y301498D02*
X583036Y300780D01*
X574421Y301498D02*
X574421Y380873D01*
X602996Y409448D01*
X574421Y301498D02*
X575036Y300780D01*
X568071Y301498D02*
X568071Y384048D01*
X590296Y406273D01*
X590296Y422148D01*
X577596Y434848D01*
X568071Y301498D02*
X567036Y300780D01*
X558546Y301498D02*
X558546Y390398D01*
X577596Y409448D01*
X558546Y301498D02*
X559036Y300780D01*
X552196Y301498D02*
X552196Y393573D01*
X564896Y406273D01*
X564896Y422148D01*
X552196Y434848D01*
X552196Y301498D02*
X551036Y300780D01*
X542671Y301498D02*
X542671Y399923D01*
X552196Y409448D01*
X542671Y301498D02*
X543036Y300780D01*
X479496Y221298D02*
X479496Y149298D01*
X487496Y149298D02*
X487496Y221298D01*
X495496Y221298D02*
X495496Y153298D01*
X503496Y149298D02*
X503496Y221298D01*
X511496Y221298D02*
X511496Y149298D01*
X519496Y149298D02*
X519496Y221298D01*
X527496Y221298D02*
X527496Y153298D01*
X535496Y149298D02*
X535496Y221298D01*
X543496Y213298D02*
X543496Y149298D01*
X551496Y149298D02*
X551496Y205298D01*
X559496Y197298D02*
X559496Y149298D01*
X567496Y153298D02*
X567496Y189298D01*
X575496Y181298D02*
X575496Y149298D01*
X583496Y149298D02*
X583496Y173298D01*
X591496Y165298D02*
X591496Y153298D01*
X599496Y153298D02*
X599496Y157298D01*
X615496Y285298D02*
X543496Y285298D01*
X543496Y277298D02*
X615496Y277298D01*
X615496Y269298D02*
X543496Y269298D01*
X543496Y261298D02*
X615496Y261298D01*
X615496Y253298D02*
X543496Y253298D01*
X543496Y245298D02*
X615496Y245298D01*
X615496Y237298D02*
X543496Y237298D01*
X543496Y229298D02*
X615496Y229298D01*
X615496Y221298D02*
X551496Y221298D01*
X559496Y213298D02*
X615496Y213298D01*
X611496Y205298D02*
X567496Y205298D01*
X575496Y197298D02*
X615496Y197298D01*
X615496Y189298D02*
X583496Y189298D01*
X591496Y181298D02*
X615496Y181298D01*
X615496Y173298D02*
X599496Y173298D01*
X607496Y165298D02*
X615496Y165298D01*
X471496Y229298D02*
X463496Y229298D01*
X463496Y237298D02*
X471496Y237298D01*
X471496Y245298D02*
X463496Y245298D01*
X463496Y253298D02*
X471496Y253298D01*
X471496Y261298D02*
X463496Y261298D01*
X463496Y269298D02*
X471496Y269298D01*
X471496Y277298D02*
X463496Y277298D01*
X463496Y285298D02*
X471496Y285298D01*
X479496Y293298D02*
X479496Y301298D01*
X487496Y301298D02*
X487496Y293298D01*
X495496Y293298D02*
X495496Y301298D01*
X503496Y301298D02*
X503496Y293298D01*
X511496Y293298D02*
X511496Y297298D01*
X519496Y297298D02*
X519496Y293298D01*
X527496Y293298D02*
X527496Y301298D01*
X535496Y301298D02*
X535496Y293298D01*
X104394Y732409D02*
X98044Y732409D01*
X44069Y786384D01*
X28194Y786384D01*
X15494Y773684D01*
X104394Y732409D02*
X105208Y732640D01*
X104394Y726059D02*
X88519Y726059D01*
X40894Y773684D01*
X104394Y726059D02*
X105208Y724640D01*
X104394Y716534D02*
X88519Y716534D01*
X44069Y760984D01*
X28194Y760984D01*
X15494Y748284D01*
X104394Y716534D02*
X105208Y716640D01*
X104394Y710184D02*
X78994Y710184D01*
X40894Y748284D01*
X104394Y710184D02*
X105208Y708640D01*
X104394Y700659D02*
X78994Y700659D01*
X44069Y735584D01*
X28194Y735584D01*
X15494Y722884D01*
X104394Y700659D02*
X105208Y700640D01*
X104394Y694309D02*
X69469Y694309D01*
X40894Y722884D01*
X104394Y694309D02*
X105208Y692640D01*
X104394Y684784D02*
X69469Y684784D01*
X44069Y710184D01*
X28194Y710184D01*
X15494Y697484D01*
X104394Y684784D02*
X105208Y684640D01*
X104394Y678434D02*
X59944Y678434D01*
X40894Y697484D01*
X104394Y678434D02*
X105208Y676640D01*
X104394Y668909D02*
X59944Y668909D01*
X44069Y684784D01*
X28194Y684784D01*
X15494Y672084D01*
X104394Y668909D02*
X105208Y668640D01*
X104394Y611759D02*
X56769Y611759D01*
X40894Y595884D01*
X104394Y611759D02*
X105208Y612640D01*
X104394Y621284D02*
X56769Y621284D01*
X44069Y608584D01*
X28194Y608584D01*
X15494Y595884D01*
X104394Y621284D02*
X105208Y620640D01*
X104394Y627634D02*
X47244Y627634D01*
X40894Y621284D01*
X104394Y627634D02*
X105208Y628640D01*
X104394Y637159D02*
X47244Y637159D01*
X44069Y633984D01*
X28194Y633984D01*
X15494Y621284D01*
X104394Y637159D02*
X105208Y636640D01*
X104394Y646684D02*
X40894Y646684D01*
X104394Y646684D02*
X105208Y644640D01*
X104394Y653034D02*
X50419Y653034D01*
X44069Y659384D01*
X28194Y659384D01*
X15494Y646684D01*
X104394Y653034D02*
X105208Y652640D01*
X104394Y662559D02*
X50419Y662559D01*
X40894Y672084D01*
X104394Y662559D02*
X105208Y660640D01*
X120269Y595884D02*
X120269Y541909D01*
X66294Y487934D01*
X120269Y595884D02*
X120134Y597714D01*
X126619Y595884D02*
X126619Y538734D01*
X78994Y491109D01*
X78994Y475234D01*
X91694Y462534D01*
X126619Y595884D02*
X128134Y597714D01*
X136144Y595884D02*
X136144Y532384D01*
X91694Y487934D01*
X136144Y595884D02*
X136134Y597714D01*
X142494Y595884D02*
X142494Y529209D01*
X104394Y491109D01*
X104394Y475234D01*
X117094Y462534D01*
X142494Y595884D02*
X144134Y597714D01*
X152019Y595884D02*
X152019Y522859D01*
X117094Y487934D01*
X152019Y595884D02*
X152134Y597714D01*
X158369Y595884D02*
X158369Y519684D01*
X129794Y491109D01*
X129794Y475234D01*
X142494Y462534D01*
X158369Y595884D02*
X160134Y597714D01*
X167894Y595884D02*
X167894Y513334D01*
X142494Y487934D01*
X167894Y595884D02*
X168134Y597714D01*
X174244Y595884D02*
X174244Y510159D01*
X155194Y491109D01*
X155194Y475234D01*
X167894Y462534D01*
X174244Y595884D02*
X176134Y597714D01*
X183769Y595884D02*
X183769Y503809D01*
X167894Y487934D01*
X183769Y595884D02*
X184134Y597714D01*
X240919Y595884D02*
X240919Y506984D01*
X256794Y491109D01*
X256794Y475234D01*
X269494Y462534D01*
X240919Y595884D02*
X240134Y597714D01*
X231394Y595884D02*
X231394Y500634D01*
X244094Y487934D01*
X231394Y595884D02*
X232134Y597714D01*
X225044Y595884D02*
X225044Y497459D01*
X231394Y491109D01*
X231394Y475234D01*
X244094Y462534D01*
X225044Y595884D02*
X224134Y597714D01*
X215519Y595884D02*
X215519Y491109D01*
X218694Y487934D01*
X215519Y595884D02*
X216134Y597714D01*
X205994Y595884D02*
X205994Y475234D01*
X218694Y462534D01*
X205994Y595884D02*
X208134Y597714D01*
X199644Y595884D02*
X199644Y494284D01*
X193294Y487934D01*
X199644Y595884D02*
X200134Y597714D01*
X190119Y595884D02*
X190119Y500634D01*
X180594Y491109D01*
X180594Y475234D01*
X193294Y462534D01*
X190119Y595884D02*
X192134Y597714D01*
X256794Y668909D02*
X307594Y668909D01*
X317119Y659384D01*
X332994Y659384D01*
X345694Y672084D01*
X256794Y668909D02*
X255060Y668640D01*
X256794Y659384D02*
X307594Y659384D01*
X320294Y646684D01*
X256794Y659384D02*
X255060Y660640D01*
X256794Y653034D02*
X298069Y653034D01*
X317119Y633984D01*
X332994Y633984D01*
X345694Y646684D01*
X256794Y653034D02*
X255060Y652640D01*
X256794Y643509D02*
X298069Y643509D01*
X320294Y621284D01*
X256794Y643509D02*
X255060Y644640D01*
X256794Y637159D02*
X288544Y637159D01*
X317119Y608584D01*
X332994Y608584D01*
X345694Y621284D01*
X256794Y637159D02*
X255060Y636640D01*
X256794Y627634D02*
X288544Y627634D01*
X320294Y595884D01*
X256794Y627634D02*
X255060Y628640D01*
X256794Y621284D02*
X279019Y621284D01*
X317119Y583184D01*
X332994Y583184D01*
X345694Y595884D01*
X256794Y621284D02*
X255060Y620640D01*
X256794Y611759D02*
X279019Y611759D01*
X320294Y570484D01*
X256794Y611759D02*
X255060Y612640D01*
X256794Y675259D02*
X317119Y675259D01*
X320294Y672084D01*
X256794Y675259D02*
X255060Y676640D01*
X256794Y684784D02*
X332994Y684784D01*
X345694Y697484D01*
X256794Y684784D02*
X255060Y684640D01*
X256794Y694309D02*
X317119Y694309D01*
X320294Y697484D01*
X256794Y694309D02*
X255060Y692640D01*
X256794Y700659D02*
X307594Y700659D01*
X317119Y710184D01*
X332994Y710184D01*
X345694Y722884D01*
X256794Y700659D02*
X255060Y700640D01*
X256794Y710184D02*
X307594Y710184D01*
X320294Y722884D01*
X256794Y710184D02*
X255060Y708640D01*
X256794Y716534D02*
X298069Y716534D01*
X317119Y735584D01*
X332994Y735584D01*
X345694Y748284D01*
X256794Y716534D02*
X255060Y716640D01*
X256794Y726059D02*
X298069Y726059D01*
X320294Y748284D01*
X256794Y726059D02*
X255060Y724640D01*
X256794Y732409D02*
X288544Y732409D01*
X317119Y760984D01*
X332994Y760984D01*
X345694Y773684D01*
X256794Y732409D02*
X255060Y732640D01*
X120269Y748284D02*
X120269Y827659D01*
X91694Y856234D01*
X120269Y748284D02*
X120134Y747566D01*
X126619Y748284D02*
X126619Y830834D01*
X104394Y853059D01*
X104394Y868934D01*
X91694Y881634D01*
X126619Y748284D02*
X128134Y747566D01*
X136144Y748284D02*
X136144Y837184D01*
X117094Y856234D01*
X136144Y748284D02*
X136134Y747566D01*
X142494Y748284D02*
X142494Y840359D01*
X129794Y853059D01*
X129794Y868934D01*
X117094Y881634D01*
X142494Y748284D02*
X144134Y747566D01*
X152019Y748284D02*
X152019Y846709D01*
X142494Y856234D01*
X152019Y748284D02*
X152134Y747566D01*
X158369Y748284D02*
X158369Y849884D01*
X155194Y853059D01*
X155194Y868934D01*
X142494Y881634D01*
X158369Y748284D02*
X160134Y747566D01*
X167894Y748284D02*
X167894Y856234D01*
X167894Y748284D02*
X168134Y747566D01*
X177419Y748284D02*
X177419Y849884D01*
X180594Y853059D01*
X180594Y868934D01*
X167894Y881634D01*
X177419Y748284D02*
X176134Y747566D01*
X240919Y748284D02*
X240919Y811784D01*
X282194Y853059D01*
X282194Y868934D01*
X269494Y881634D01*
X240919Y748284D02*
X240134Y747566D01*
X231394Y748284D02*
X231394Y818134D01*
X269494Y856234D01*
X231394Y748284D02*
X232134Y747566D01*
X225044Y748284D02*
X225044Y821309D01*
X256794Y853059D01*
X256794Y868934D01*
X244094Y881634D01*
X225044Y748284D02*
X224134Y747566D01*
X215519Y748284D02*
X215519Y827659D01*
X244094Y856234D01*
X215519Y748284D02*
X216134Y747566D01*
X209169Y748284D02*
X209169Y830834D01*
X231394Y853059D01*
X231394Y868934D01*
X218694Y881634D01*
X209169Y748284D02*
X208134Y747566D01*
X199644Y748284D02*
X199644Y837184D01*
X218694Y856234D01*
X199644Y748284D02*
X200134Y747566D01*
X193294Y748284D02*
X193294Y840359D01*
X205994Y853059D01*
X205994Y868934D01*
X193294Y881634D01*
X193294Y748284D02*
X192134Y747566D01*
X183769Y748284D02*
X183769Y846709D01*
X193294Y856234D01*
X183769Y748284D02*
X184134Y747566D01*
X120594Y668084D02*
X120594Y596084D01*
X128594Y596084D02*
X128594Y668084D01*
X136594Y668084D02*
X136594Y600084D01*
X144594Y596084D02*
X144594Y668084D01*
X152594Y668084D02*
X152594Y596084D01*
X160594Y596084D02*
X160594Y668084D01*
X168594Y668084D02*
X168594Y600084D01*
X176594Y596084D02*
X176594Y668084D01*
X184594Y660084D02*
X184594Y596084D01*
X192594Y596084D02*
X192594Y652084D01*
X200594Y644084D02*
X200594Y596084D01*
X208594Y600084D02*
X208594Y636084D01*
X216594Y628084D02*
X216594Y596084D01*
X224594Y596084D02*
X224594Y620084D01*
X232594Y612084D02*
X232594Y600084D01*
X240594Y600084D02*
X240594Y604084D01*
X256594Y732084D02*
X184594Y732084D01*
X184594Y724084D02*
X256594Y724084D01*
X256594Y716084D02*
X184594Y716084D01*
X184594Y708084D02*
X256594Y708084D01*
X256594Y700084D02*
X184594Y700084D01*
X184594Y692084D02*
X256594Y692084D01*
X256594Y684084D02*
X184594Y684084D01*
X184594Y676084D02*
X256594Y676084D01*
X256594Y668084D02*
X192594Y668084D01*
X200594Y660084D02*
X256594Y660084D01*
X252594Y652084D02*
X208594Y652084D01*
X216594Y644084D02*
X256594Y644084D01*
X256594Y636084D02*
X224594Y636084D01*
X232594Y628084D02*
X256594Y628084D01*
X256594Y620084D02*
X240594Y620084D01*
X248594Y612084D02*
X256594Y612084D01*
X112594Y676084D02*
X104594Y676084D01*
X104594Y684084D02*
X112594Y684084D01*
X112594Y692084D02*
X104594Y692084D01*
X104594Y700084D02*
X112594Y700084D01*
X112594Y708084D02*
X104594Y708084D01*
X104594Y716084D02*
X112594Y716084D01*
X112594Y724084D02*
X104594Y724084D01*
X104594Y732084D02*
X112594Y732084D01*
X120594Y740084D02*
X120594Y748084D01*
X128594Y748084D02*
X128594Y740084D01*
X136594Y740084D02*
X136594Y748084D01*
X144594Y748084D02*
X144594Y740084D01*
X152594Y740084D02*
X152594Y744084D01*
X160594Y744084D02*
X160594Y740084D01*
X168594Y740084D02*
X168594Y748084D01*
X176594Y748084D02*
X176594Y740084D01*
X456692Y733171D02*
X463042Y733171D01*
X456692Y733171D02*
X402717Y787146D01*
X386842Y787146D01*
X374142Y774446D01*
X463042Y733171D02*
X463856Y733402D01*
X463042Y726821D02*
X447167Y726821D01*
X399542Y774446D01*
X463042Y726821D02*
X463856Y725402D01*
X463042Y717296D02*
X447167Y717296D01*
X402717Y761746D01*
X386842Y761746D01*
X374142Y749046D01*
X463042Y717296D02*
X463856Y717402D01*
X463042Y710946D02*
X437642Y710946D01*
X399542Y749046D01*
X463042Y710946D02*
X463856Y709402D01*
X463042Y701421D02*
X437642Y701421D01*
X402717Y736346D01*
X386842Y736346D01*
X374142Y723646D01*
X463042Y701421D02*
X463856Y701402D01*
X463042Y695071D02*
X428117Y695071D01*
X399542Y723646D01*
X463042Y695071D02*
X463856Y693402D01*
X463042Y685546D02*
X428117Y685546D01*
X402717Y710946D01*
X386842Y710946D01*
X374142Y698246D01*
X463042Y685546D02*
X463856Y685402D01*
X463042Y679196D02*
X418592Y679196D01*
X399542Y698246D01*
X463042Y679196D02*
X463856Y677402D01*
X463042Y669671D02*
X418592Y669671D01*
X402717Y685546D01*
X386842Y685546D01*
X374142Y672846D01*
X463042Y669671D02*
X463856Y669402D01*
X463042Y612521D02*
X415417Y612521D01*
X399542Y596646D01*
X463042Y612521D02*
X463856Y613402D01*
X463042Y622046D02*
X415417Y622046D01*
X402717Y609346D01*
X386842Y609346D01*
X374142Y596646D01*
X463042Y622046D02*
X463856Y621402D01*
X463042Y628396D02*
X405892Y628396D01*
X399542Y622046D01*
X463042Y628396D02*
X463856Y629402D01*
X463042Y637921D02*
X405892Y637921D01*
X402717Y634746D01*
X386842Y634746D01*
X374142Y622046D01*
X463042Y637921D02*
X463856Y637402D01*
X463042Y647446D02*
X399542Y647446D01*
X463042Y647446D02*
X463856Y645402D01*
X463042Y653796D02*
X409067Y653796D01*
X402717Y660146D01*
X386842Y660146D01*
X374142Y647446D01*
X463042Y653796D02*
X463856Y653402D01*
X463042Y663321D02*
X409067Y663321D01*
X399542Y672846D01*
X463042Y663321D02*
X463856Y661402D01*
X478917Y596646D02*
X478917Y542671D01*
X424942Y488696D01*
X478917Y596646D02*
X478782Y598476D01*
X485267Y596646D02*
X485267Y539496D01*
X437642Y491871D01*
X437642Y475996D01*
X450342Y463296D01*
X485267Y596646D02*
X486782Y598476D01*
X494792Y596646D02*
X494792Y533146D01*
X450342Y488696D01*
X494792Y596646D02*
X494782Y598476D01*
X501142Y596646D02*
X501142Y529971D01*
X463042Y491871D01*
X463042Y475996D01*
X475742Y463296D01*
X501142Y596646D02*
X502782Y598476D01*
X510667Y596646D02*
X510667Y523621D01*
X475742Y488696D01*
X510667Y596646D02*
X510782Y598476D01*
X517017Y596646D02*
X517017Y520446D01*
X488442Y491871D01*
X488442Y475996D01*
X501142Y463296D01*
X517017Y596646D02*
X518782Y598476D01*
X526542Y596646D02*
X526542Y514096D01*
X501142Y488696D01*
X526542Y596646D02*
X526782Y598476D01*
X532892Y596646D02*
X532892Y510921D01*
X513842Y491871D01*
X513842Y475996D01*
X526542Y463296D01*
X532892Y596646D02*
X534782Y598476D01*
X542417Y596646D02*
X542417Y504571D01*
X526542Y488696D01*
X542417Y596646D02*
X542782Y598476D01*
X599567Y596646D02*
X599567Y507746D01*
X615442Y491871D01*
X615442Y475996D01*
X628142Y463296D01*
X599567Y596646D02*
X598782Y598476D01*
X590042Y596646D02*
X590042Y501396D01*
X602742Y488696D01*
X590042Y596646D02*
X590782Y598476D01*
X583692Y596646D02*
X583692Y498221D01*
X590042Y491871D01*
X590042Y475996D01*
X602742Y463296D01*
X583692Y596646D02*
X582782Y598476D01*
X574167Y596646D02*
X574167Y491871D01*
X577342Y488696D01*
X574167Y596646D02*
X574782Y598476D01*
X564642Y596646D02*
X564642Y475996D01*
X577342Y463296D01*
X564642Y596646D02*
X566782Y598476D01*
X558292Y596646D02*
X558292Y495046D01*
X551942Y488696D01*
X558292Y596646D02*
X558782Y598476D01*
X548767Y596646D02*
X548767Y501396D01*
X539242Y491871D01*
X539242Y475996D01*
X551942Y463296D01*
X548767Y596646D02*
X550782Y598476D01*
X615442Y669671D02*
X666242Y669671D01*
X675767Y660146D01*
X691642Y660146D01*
X704342Y672846D01*
X615442Y669671D02*
X613708Y669402D01*
X615442Y660146D02*
X666242Y660146D01*
X678942Y647446D01*
X615442Y660146D02*
X613708Y661402D01*
X615442Y653796D02*
X656717Y653796D01*
X675767Y634746D01*
X691642Y634746D01*
X704342Y647446D01*
X615442Y653796D02*
X613708Y653402D01*
X615442Y644271D02*
X656717Y644271D01*
X678942Y622046D01*
X615442Y644271D02*
X613708Y645402D01*
X615442Y637921D02*
X647192Y637921D01*
X675767Y609346D01*
X691642Y609346D01*
X704342Y622046D01*
X615442Y637921D02*
X613708Y637402D01*
X615442Y628396D02*
X647192Y628396D01*
X678942Y596646D01*
X615442Y628396D02*
X613708Y629402D01*
X615442Y622046D02*
X637667Y622046D01*
X675767Y583946D01*
X691642Y583946D01*
X704342Y596646D01*
X615442Y622046D02*
X613708Y621402D01*
X615442Y612521D02*
X637667Y612521D01*
X678942Y571246D01*
X615442Y612521D02*
X613708Y613402D01*
X615442Y676021D02*
X675767Y676021D01*
X678942Y672846D01*
X615442Y676021D02*
X613708Y677402D01*
X615442Y685546D02*
X691642Y685546D01*
X704342Y698246D01*
X615442Y685546D02*
X613708Y685402D01*
X615442Y695071D02*
X675767Y695071D01*
X678942Y698246D01*
X615442Y695071D02*
X613708Y693402D01*
X615442Y701421D02*
X666242Y701421D01*
X675767Y710946D01*
X691642Y710946D01*
X704342Y723646D01*
X615442Y701421D02*
X613708Y701402D01*
X615442Y710946D02*
X666242Y710946D01*
X678942Y723646D01*
X615442Y710946D02*
X613708Y709402D01*
X615442Y717296D02*
X656717Y717296D01*
X675767Y736346D01*
X691642Y736346D01*
X704342Y749046D01*
X615442Y717296D02*
X613708Y717402D01*
X615442Y726821D02*
X656717Y726821D01*
X678942Y749046D01*
X615442Y726821D02*
X613708Y725402D01*
X615442Y733171D02*
X647192Y733171D01*
X675767Y761746D01*
X691642Y761746D01*
X704342Y774446D01*
X615442Y733171D02*
X613708Y733402D01*
X478917Y749046D02*
X478917Y828421D01*
X450342Y856996D01*
X478917Y749046D02*
X478782Y748328D01*
X485267Y749046D02*
X485267Y831596D01*
X463042Y853821D01*
X463042Y869696D01*
X450342Y882396D01*
X485267Y749046D02*
X486782Y748328D01*
X494792Y749046D02*
X494792Y837946D01*
X475742Y856996D01*
X494792Y749046D02*
X494782Y748328D01*
X501142Y749046D02*
X501142Y841121D01*
X488442Y853821D01*
X488442Y869696D01*
X475742Y882396D01*
X501142Y749046D02*
X502782Y748328D01*
X510667Y749046D02*
X510667Y847471D01*
X501142Y856996D01*
X510667Y749046D02*
X510782Y748328D01*
X517017Y749046D02*
X517017Y850646D01*
X513842Y853821D01*
X513842Y869696D01*
X501142Y882396D01*
X517017Y749046D02*
X518782Y748328D01*
X526542Y749046D02*
X526542Y856996D01*
X526542Y749046D02*
X526782Y748328D01*
X536067Y749046D02*
X536067Y850646D01*
X539242Y853821D01*
X539242Y869696D01*
X526542Y882396D01*
X536067Y749046D02*
X534782Y748328D01*
X599567Y749046D02*
X599567Y812546D01*
X640842Y853821D01*
X640842Y869696D01*
X628142Y882396D01*
X599567Y749046D02*
X598782Y748328D01*
X590042Y749046D02*
X590042Y818896D01*
X628142Y856996D01*
X590042Y749046D02*
X590782Y748328D01*
X583692Y749046D02*
X583692Y822071D01*
X615442Y853821D01*
X615442Y869696D01*
X602742Y882396D01*
X583692Y749046D02*
X582782Y748328D01*
X574167Y749046D02*
X574167Y828421D01*
X602742Y856996D01*
X574167Y749046D02*
X574782Y748328D01*
X567817Y749046D02*
X567817Y831596D01*
X590042Y853821D01*
X590042Y869696D01*
X577342Y882396D01*
X567817Y749046D02*
X566782Y748328D01*
X558292Y749046D02*
X558292Y837946D01*
X577342Y856996D01*
X558292Y749046D02*
X558782Y748328D01*
X551942Y749046D02*
X551942Y841121D01*
X564642Y853821D01*
X564642Y869696D01*
X551942Y882396D01*
X551942Y749046D02*
X550782Y748328D01*
X542417Y749046D02*
X542417Y847471D01*
X551942Y856996D01*
X542417Y749046D02*
X542782Y748328D01*
X479242Y668846D02*
X479242Y596846D01*
X487242Y596846D02*
X487242Y668846D01*
X495242Y668846D02*
X495242Y600846D01*
X503242Y596846D02*
X503242Y668846D01*
X511242Y668846D02*
X511242Y596846D01*
X519242Y596846D02*
X519242Y668846D01*
X527242Y668846D02*
X527242Y600846D01*
X535242Y596846D02*
X535242Y668846D01*
X543242Y660846D02*
X543242Y596846D01*
X551242Y596846D02*
X551242Y652846D01*
X559242Y644846D02*
X559242Y596846D01*
X567242Y600846D02*
X567242Y636846D01*
X575242Y628846D02*
X575242Y596846D01*
X583242Y596846D02*
X583242Y620846D01*
X591242Y612846D02*
X591242Y600846D01*
X599242Y600846D02*
X599242Y604846D01*
X615242Y732846D02*
X543242Y732846D01*
X543242Y724846D02*
X615242Y724846D01*
X615242Y716846D02*
X543242Y716846D01*
X543242Y708846D02*
X615242Y708846D01*
X615242Y700846D02*
X543242Y700846D01*
X543242Y692846D02*
X615242Y692846D01*
X615242Y684846D02*
X543242Y684846D01*
X543242Y676846D02*
X615242Y676846D01*
X615242Y668846D02*
X551242Y668846D01*
X559242Y660846D02*
X615242Y660846D01*
X611242Y652846D02*
X567242Y652846D01*
X575242Y644846D02*
X615242Y644846D01*
X615242Y636846D02*
X583242Y636846D01*
X591242Y628846D02*
X615242Y628846D01*
X615242Y620846D02*
X599242Y620846D01*
X607242Y612846D02*
X615242Y612846D01*
X471242Y676846D02*
X463242Y676846D01*
X463242Y684846D02*
X471242Y684846D01*
X471242Y692846D02*
X463242Y692846D01*
X463242Y700846D02*
X471242Y700846D01*
X471242Y708846D02*
X463242Y708846D01*
X463242Y716846D02*
X471242Y716846D01*
X471242Y724846D02*
X463242Y724846D01*
X463242Y732846D02*
X471242Y732846D01*
X479242Y740846D02*
X479242Y748846D01*
X487242Y748846D02*
X487242Y740846D01*
X495242Y740846D02*
X495242Y748846D01*
X503242Y748846D02*
X503242Y740846D01*
X511242Y740846D02*
X511242Y744846D01*
X519242Y744846D02*
X519242Y740846D01*
X527242Y740846D02*
X527242Y748846D01*
X535242Y748846D02*
X535242Y740846D01*
X735558Y112500D02*
X798058Y112500D01*
X735558Y112500D02*
X735558Y145000D01*
X798058Y112500D02*
X797808Y111250D01*
X735558Y145000D02*
X734158Y145000D01*
X843058Y112500D02*
X910558Y112500D01*
X910558Y145000D01*
X843058Y112500D02*
X843308Y111250D01*
X910558Y145000D02*
X911958Y145000D01*
X823658Y132500D02*
X823658Y112500D01*
X823658Y132500D02*
X835558Y145000D01*
X823658Y112500D02*
X823808Y111250D01*
X835558Y145000D02*
X835758Y145000D01*
X817178Y137500D02*
X817178Y112500D01*
X817178Y137500D02*
X810558Y145000D01*
X817178Y112500D02*
X817308Y111250D01*
X810558Y145000D02*
X810358Y145000D01*
X830228Y117500D02*
X830228Y112500D01*
X830228Y117500D02*
X838058Y125000D01*
X860558Y125000D01*
X860558Y145000D01*
X830228Y112500D02*
X830308Y111250D01*
X860558Y145000D02*
X861158Y145000D01*
X810728Y120000D02*
X810728Y112500D01*
X810728Y120000D02*
X785558Y145000D01*
X810728Y112500D02*
X810808Y111250D01*
X785558Y145000D02*
X784958Y145000D01*
X836868Y117500D02*
X836868Y112500D01*
X836868Y117500D02*
X840558Y120000D01*
X885558Y120000D01*
X885558Y145000D01*
X836868Y112500D02*
X836808Y111250D01*
X885558Y145000D02*
X886558Y145000D01*
X804288Y117600D02*
X804288Y112600D01*
X804288Y117600D02*
X795558Y125000D01*
X760558Y125000D01*
X760558Y145000D01*
X804288Y112600D02*
X804308Y111250D01*
X760558Y145000D02*
X759558Y145000D01*
X803780Y273382D02*
X803780Y278382D01*
X795050Y285782D01*
X760050Y285782D01*
X760050Y305782D01*
X803780Y273382D02*
X803800Y272032D01*
X760050Y305782D02*
X759050Y305782D01*
X804034Y434926D02*
X804034Y439926D01*
X795304Y447326D01*
X760304Y447326D01*
X760304Y467326D01*
X804034Y434926D02*
X804054Y433576D01*
X760304Y467326D02*
X759304Y467326D01*
X803780Y597994D02*
X803780Y602994D01*
X795050Y610394D01*
X760050Y610394D01*
X760050Y630394D01*
X803780Y597994D02*
X803800Y596644D01*
X760050Y630394D02*
X759050Y630394D01*
X803780Y760046D02*
X803780Y765046D01*
X795050Y772446D01*
X760050Y772446D01*
X760050Y792446D01*
X803780Y760046D02*
X803800Y758696D01*
X760050Y792446D02*
X759050Y792446D01*
X803272Y922098D02*
X803272Y927098D01*
X794542Y934498D01*
X759542Y934498D01*
X759542Y954498D01*
X803272Y922098D02*
X803292Y920748D01*
X759542Y954498D02*
X758542Y954498D01*
X843058Y52500D02*
X910558Y52500D01*
X910558Y20000D01*
X843058Y52500D02*
X843308Y53750D01*
X910558Y20000D02*
X911958Y18020D01*
X836798Y47670D02*
X836798Y52670D01*
X836798Y47670D02*
X848058Y37500D01*
X885558Y37500D01*
X885558Y20000D01*
X836798Y52670D02*
X836808Y53750D01*
X885558Y20000D02*
X886558Y18020D01*
X830388Y47390D02*
X830388Y52390D01*
X830388Y47390D02*
X860558Y17500D01*
X830388Y52390D02*
X830308Y53750D01*
X861158Y18020D02*
X860558Y17500D01*
X823748Y32500D02*
X823748Y52500D01*
X823748Y32500D02*
X835558Y20000D01*
X823748Y52500D02*
X823808Y53750D01*
X835558Y20000D02*
X835758Y18020D01*
X817258Y27500D02*
X817258Y52500D01*
X817258Y27500D02*
X810558Y20000D01*
X817258Y52500D02*
X817308Y53750D01*
X810558Y20000D02*
X810358Y18020D01*
X810788Y45000D02*
X810788Y52500D01*
X810788Y45000D02*
X785558Y20000D01*
X810788Y52500D02*
X810808Y53750D01*
X785558Y20000D02*
X784958Y18020D01*
X810280Y205782D02*
X810280Y213282D01*
X810280Y205782D02*
X785050Y180782D01*
X810280Y213282D02*
X810300Y214532D01*
X785050Y180782D02*
X784450Y178802D01*
X810534Y367326D02*
X810534Y374826D01*
X810534Y367326D02*
X785304Y342326D01*
X810534Y374826D02*
X810554Y376076D01*
X785304Y342326D02*
X784704Y340346D01*
X810280Y530394D02*
X810280Y537894D01*
X810280Y530394D02*
X785050Y505394D01*
X810280Y537894D02*
X810300Y539144D01*
X785050Y505394D02*
X784450Y503414D01*
X810280Y692446D02*
X810280Y699946D01*
X810280Y692446D02*
X785050Y667446D01*
X810280Y699946D02*
X810300Y701196D01*
X785050Y667446D02*
X784450Y665466D01*
X809772Y854498D02*
X809772Y861998D01*
X809772Y854498D02*
X784542Y829498D01*
X809772Y861998D02*
X809792Y863248D01*
X784542Y829498D02*
X783942Y827518D01*
X804318Y52500D02*
X804318Y47500D01*
X793058Y37500D01*
X760558Y37500D01*
X760558Y20000D01*
X804318Y52500D02*
X804308Y53750D01*
X760558Y20000D02*
X759558Y18020D01*
X735558Y52500D02*
X798058Y52500D01*
X735558Y52500D02*
X735558Y20000D01*
X798058Y52500D02*
X797808Y53750D01*
X735558Y20000D02*
X734158Y18020D01*
X797857Y54346D02*
X797857Y78000D01*
X804357Y78000D02*
X804357Y54346D01*
X810857Y54346D02*
X810857Y78000D01*
X817357Y78000D02*
X817357Y54346D01*
X823857Y54346D02*
X823857Y78000D01*
X830357Y78000D02*
X830357Y54346D01*
X836857Y54346D02*
X836857Y78000D01*
X843357Y78000D02*
X843357Y54346D01*
X843357Y86846D02*
X843357Y110500D01*
X836857Y110500D02*
X836857Y86846D01*
X830357Y86846D02*
X830357Y110500D01*
X823857Y110500D02*
X823857Y86846D01*
X817357Y86846D02*
X817357Y110500D01*
X810857Y110500D02*
X810857Y86846D01*
X804357Y86846D02*
X804357Y110500D01*
X797857Y110500D02*
X797857Y86846D01*
X797550Y273282D02*
X735050Y273282D01*
X735050Y305782D01*
X797550Y273282D02*
X797300Y272032D01*
X735050Y305782D02*
X733650Y305782D01*
X842550Y273282D02*
X910050Y273282D01*
X910050Y305782D01*
X842550Y273282D02*
X842800Y272032D01*
X910050Y305782D02*
X911450Y305782D01*
X823150Y293282D02*
X823150Y273282D01*
X823150Y293282D02*
X835050Y305782D01*
X823150Y273282D02*
X823300Y272032D01*
X835050Y305782D02*
X835250Y305782D01*
X816670Y298282D02*
X816670Y273282D01*
X816670Y298282D02*
X810050Y305782D01*
X816670Y273282D02*
X816800Y272032D01*
X810050Y305782D02*
X809850Y305782D01*
X829720Y278282D02*
X829720Y273282D01*
X829720Y278282D02*
X837550Y285782D01*
X860050Y285782D01*
X860050Y305782D01*
X829720Y273282D02*
X829800Y272032D01*
X860050Y305782D02*
X860650Y305782D01*
X810220Y280782D02*
X810220Y273282D01*
X810220Y280782D02*
X785050Y305782D01*
X810220Y273282D02*
X810300Y272032D01*
X785050Y305782D02*
X784450Y305782D01*
X836360Y278282D02*
X836360Y273282D01*
X836360Y278282D02*
X840050Y280782D01*
X885050Y280782D01*
X885050Y305782D01*
X836360Y273282D02*
X836300Y272032D01*
X885050Y305782D02*
X886050Y305782D01*
X910050Y213282D02*
X842550Y213282D01*
X910050Y213282D02*
X910050Y180782D01*
X842550Y213282D02*
X842800Y214532D01*
X910050Y180782D02*
X911450Y178802D01*
X836290Y208452D02*
X836290Y213452D01*
X836290Y208452D02*
X847550Y198282D01*
X885050Y198282D01*
X885050Y180782D01*
X836290Y213452D02*
X836300Y214532D01*
X885050Y180782D02*
X886050Y178802D01*
X829880Y208172D02*
X829880Y213172D01*
X829880Y208172D02*
X860050Y178282D01*
X829880Y213172D02*
X829800Y214532D01*
X860650Y178802D02*
X860050Y178282D01*
X823240Y193282D02*
X823240Y213282D01*
X823240Y193282D02*
X835050Y180782D01*
X823240Y213282D02*
X823300Y214532D01*
X835050Y180782D02*
X835250Y178802D01*
X816750Y188282D02*
X816750Y213282D01*
X816750Y188282D02*
X810050Y180782D01*
X816750Y213282D02*
X816800Y214532D01*
X810050Y180782D02*
X809850Y178802D01*
X803810Y208282D02*
X803810Y213282D01*
X803810Y208282D02*
X792550Y198282D01*
X760050Y198282D01*
X760050Y180782D01*
X803810Y213282D02*
X803800Y214532D01*
X760050Y180782D02*
X759050Y178802D01*
X735050Y213282D02*
X797550Y213282D01*
X735050Y213282D02*
X735050Y180782D01*
X797550Y213282D02*
X797300Y214532D01*
X735050Y180782D02*
X733650Y178802D01*
X797349Y215128D02*
X797349Y238782D01*
X803849Y238782D02*
X803849Y215128D01*
X810349Y215128D02*
X810349Y238782D01*
X816849Y238782D02*
X816849Y215128D01*
X823349Y215128D02*
X823349Y238782D01*
X829849Y238782D02*
X829849Y215128D01*
X836349Y215128D02*
X836349Y238782D01*
X842849Y238782D02*
X842849Y215128D01*
X842849Y247628D02*
X842849Y271282D01*
X836349Y271282D02*
X836349Y247628D01*
X829849Y247628D02*
X829849Y271282D01*
X823349Y271282D02*
X823349Y247628D01*
X816849Y247628D02*
X816849Y271282D01*
X810349Y271282D02*
X810349Y247628D01*
X803849Y247628D02*
X803849Y271282D01*
X797349Y271282D02*
X797349Y247628D01*
X797804Y434826D02*
X735304Y434826D01*
X735304Y467326D01*
X797804Y434826D02*
X797554Y433576D01*
X735304Y467326D02*
X733904Y467326D01*
X842804Y434826D02*
X910304Y434826D01*
X910304Y467326D01*
X842804Y434826D02*
X843054Y433576D01*
X910304Y467326D02*
X911704Y467326D01*
X823404Y454826D02*
X823404Y434826D01*
X823404Y454826D02*
X835304Y467326D01*
X823404Y434826D02*
X823554Y433576D01*
X835304Y467326D02*
X835504Y467326D01*
X816924Y459826D02*
X816924Y434826D01*
X816924Y459826D02*
X810304Y467326D01*
X816924Y434826D02*
X817054Y433576D01*
X810304Y467326D02*
X810104Y467326D01*
X829974Y439826D02*
X829974Y434826D01*
X829974Y439826D02*
X837804Y447326D01*
X860304Y447326D01*
X860304Y467326D01*
X829974Y434826D02*
X830054Y433576D01*
X860304Y467326D02*
X860904Y467326D01*
X810474Y442326D02*
X810474Y434826D01*
X810474Y442326D02*
X785304Y467326D01*
X810474Y434826D02*
X810554Y433576D01*
X785304Y467326D02*
X784704Y467326D01*
X836614Y439826D02*
X836614Y434826D01*
X836614Y439826D02*
X840304Y442326D01*
X885304Y442326D01*
X885304Y467326D01*
X836614Y434826D02*
X836554Y433576D01*
X885304Y467326D02*
X886304Y467326D01*
X910304Y374826D02*
X842804Y374826D01*
X910304Y374826D02*
X910304Y342326D01*
X842804Y374826D02*
X843054Y376076D01*
X910304Y342326D02*
X911704Y340346D01*
X836544Y369996D02*
X836544Y374996D01*
X836544Y369996D02*
X847804Y359826D01*
X885304Y359826D01*
X885304Y342326D01*
X836544Y374996D02*
X836554Y376076D01*
X885304Y342326D02*
X886304Y340346D01*
X830134Y369716D02*
X830134Y374716D01*
X830134Y369716D02*
X860304Y339826D01*
X830134Y374716D02*
X830054Y376076D01*
X860904Y340346D02*
X860304Y339826D01*
X823494Y354826D02*
X823494Y374826D01*
X823494Y354826D02*
X835304Y342326D01*
X823494Y374826D02*
X823554Y376076D01*
X835304Y342326D02*
X835504Y340346D01*
X817004Y349826D02*
X817004Y374826D01*
X817004Y349826D02*
X810304Y342326D01*
X817004Y374826D02*
X817054Y376076D01*
X810304Y342326D02*
X810104Y340346D01*
X804064Y369826D02*
X804064Y374826D01*
X804064Y369826D02*
X792804Y359826D01*
X760304Y359826D01*
X760304Y342326D01*
X804064Y374826D02*
X804054Y376076D01*
X760304Y342326D02*
X759304Y340346D01*
X735304Y374826D02*
X797804Y374826D01*
X735304Y374826D02*
X735304Y342326D01*
X797804Y374826D02*
X797554Y376076D01*
X735304Y342326D02*
X733904Y340346D01*
X797603Y376672D02*
X797603Y400326D01*
X804103Y400326D02*
X804103Y376672D01*
X810603Y376672D02*
X810603Y400326D01*
X817103Y400326D02*
X817103Y376672D01*
X823603Y376672D02*
X823603Y400326D01*
X830103Y400326D02*
X830103Y376672D01*
X836603Y376672D02*
X836603Y400326D01*
X843103Y400326D02*
X843103Y376672D01*
X843103Y409172D02*
X843103Y432826D01*
X836603Y432826D02*
X836603Y409172D01*
X830103Y409172D02*
X830103Y432826D01*
X823603Y432826D02*
X823603Y409172D01*
X817103Y409172D02*
X817103Y432826D01*
X810603Y432826D02*
X810603Y409172D01*
X804103Y409172D02*
X804103Y432826D01*
X797603Y432826D02*
X797603Y409172D01*
X797550Y597894D02*
X735050Y597894D01*
X735050Y630394D01*
X797550Y597894D02*
X797300Y596644D01*
X735050Y630394D02*
X733650Y630394D01*
X842550Y597894D02*
X910050Y597894D01*
X910050Y630394D01*
X842550Y597894D02*
X842800Y596644D01*
X910050Y630394D02*
X911450Y630394D01*
X823150Y617894D02*
X823150Y597894D01*
X823150Y617894D02*
X835050Y630394D01*
X823150Y597894D02*
X823300Y596644D01*
X835050Y630394D02*
X835250Y630394D01*
X816670Y622894D02*
X816670Y597894D01*
X816670Y622894D02*
X810050Y630394D01*
X816670Y597894D02*
X816800Y596644D01*
X810050Y630394D02*
X809850Y630394D01*
X829720Y602894D02*
X829720Y597894D01*
X829720Y602894D02*
X837550Y610394D01*
X860050Y610394D01*
X860050Y630394D01*
X829720Y597894D02*
X829800Y596644D01*
X860050Y630394D02*
X860650Y630394D01*
X810220Y605394D02*
X810220Y597894D01*
X810220Y605394D02*
X785050Y630394D01*
X810220Y597894D02*
X810300Y596644D01*
X785050Y630394D02*
X784450Y630394D01*
X836360Y602894D02*
X836360Y597894D01*
X836360Y602894D02*
X840050Y605394D01*
X885050Y605394D01*
X885050Y630394D01*
X836360Y597894D02*
X836300Y596644D01*
X885050Y630394D02*
X886050Y630394D01*
X910050Y537894D02*
X842550Y537894D01*
X910050Y537894D02*
X910050Y505394D01*
X842550Y537894D02*
X842800Y539144D01*
X910050Y505394D02*
X911450Y503414D01*
X836290Y533064D02*
X836290Y538064D01*
X836290Y533064D02*
X847550Y522894D01*
X885050Y522894D01*
X885050Y505394D01*
X836290Y538064D02*
X836300Y539144D01*
X885050Y505394D02*
X886050Y503414D01*
X829880Y532784D02*
X829880Y537784D01*
X829880Y532784D02*
X860050Y502894D01*
X829880Y537784D02*
X829800Y539144D01*
X860650Y503414D02*
X860050Y502894D01*
X823240Y517894D02*
X823240Y537894D01*
X823240Y517894D02*
X835050Y505394D01*
X823240Y537894D02*
X823300Y539144D01*
X835050Y505394D02*
X835250Y503414D01*
X816750Y512894D02*
X816750Y537894D01*
X816750Y512894D02*
X810050Y505394D01*
X816750Y537894D02*
X816800Y539144D01*
X810050Y505394D02*
X809850Y503414D01*
X803810Y532894D02*
X803810Y537894D01*
X803810Y532894D02*
X792550Y522894D01*
X760050Y522894D01*
X760050Y505394D01*
X803810Y537894D02*
X803800Y539144D01*
X760050Y505394D02*
X759050Y503414D01*
X735050Y537894D02*
X797550Y537894D01*
X735050Y537894D02*
X735050Y505394D01*
X797550Y537894D02*
X797300Y539144D01*
X735050Y505394D02*
X733650Y503414D01*
X797349Y539740D02*
X797349Y563394D01*
X803849Y563394D02*
X803849Y539740D01*
X810349Y539740D02*
X810349Y563394D01*
X816849Y563394D02*
X816849Y539740D01*
X823349Y539740D02*
X823349Y563394D01*
X829849Y563394D02*
X829849Y539740D01*
X836349Y539740D02*
X836349Y563394D01*
X842849Y563394D02*
X842849Y539740D01*
X842849Y572240D02*
X842849Y595894D01*
X836349Y595894D02*
X836349Y572240D01*
X829849Y572240D02*
X829849Y595894D01*
X823349Y595894D02*
X823349Y572240D01*
X816849Y572240D02*
X816849Y595894D01*
X810349Y595894D02*
X810349Y572240D01*
X803849Y572240D02*
X803849Y595894D01*
X797349Y595894D02*
X797349Y572240D01*
X797550Y759946D02*
X735050Y759946D01*
X735050Y792446D01*
X797550Y759946D02*
X797300Y758696D01*
X735050Y792446D02*
X733650Y792446D01*
X842550Y759946D02*
X910050Y759946D01*
X910050Y792446D01*
X842550Y759946D02*
X842800Y758696D01*
X910050Y792446D02*
X911450Y792446D01*
X823150Y779946D02*
X823150Y759946D01*
X823150Y779946D02*
X835050Y792446D01*
X823150Y759946D02*
X823300Y758696D01*
X835050Y792446D02*
X835250Y792446D01*
X816670Y784946D02*
X816670Y759946D01*
X816670Y784946D02*
X810050Y792446D01*
X816670Y759946D02*
X816800Y758696D01*
X810050Y792446D02*
X809850Y792446D01*
X829720Y764946D02*
X829720Y759946D01*
X829720Y764946D02*
X837550Y772446D01*
X860050Y772446D01*
X860050Y792446D01*
X829720Y759946D02*
X829800Y758696D01*
X860050Y792446D02*
X860650Y792446D01*
X810220Y767446D02*
X810220Y759946D01*
X810220Y767446D02*
X785050Y792446D01*
X810220Y759946D02*
X810300Y758696D01*
X785050Y792446D02*
X784450Y792446D01*
X836360Y764946D02*
X836360Y759946D01*
X836360Y764946D02*
X840050Y767446D01*
X885050Y767446D01*
X885050Y792446D01*
X836360Y759946D02*
X836300Y758696D01*
X885050Y792446D02*
X886050Y792446D01*
X910050Y699946D02*
X842550Y699946D01*
X910050Y699946D02*
X910050Y667446D01*
X842550Y699946D02*
X842800Y701196D01*
X910050Y667446D02*
X911450Y665466D01*
X836290Y695116D02*
X836290Y700116D01*
X836290Y695116D02*
X847550Y684946D01*
X885050Y684946D01*
X885050Y667446D01*
X836290Y700116D02*
X836300Y701196D01*
X885050Y667446D02*
X886050Y665466D01*
X829880Y694836D02*
X829880Y699836D01*
X829880Y694836D02*
X860050Y664946D01*
X829880Y699836D02*
X829800Y701196D01*
X860650Y665466D02*
X860050Y664946D01*
X823240Y679946D02*
X823240Y699946D01*
X823240Y679946D02*
X835050Y667446D01*
X823240Y699946D02*
X823300Y701196D01*
X835050Y667446D02*
X835250Y665466D01*
X816750Y674946D02*
X816750Y699946D01*
X816750Y674946D02*
X810050Y667446D01*
X816750Y699946D02*
X816800Y701196D01*
X810050Y667446D02*
X809850Y665466D01*
X803810Y694946D02*
X803810Y699946D01*
X803810Y694946D02*
X792550Y684946D01*
X760050Y684946D01*
X760050Y667446D01*
X803810Y699946D02*
X803800Y701196D01*
X760050Y667446D02*
X759050Y665466D01*
X735050Y699946D02*
X797550Y699946D01*
X735050Y699946D02*
X735050Y667446D01*
X797550Y699946D02*
X797300Y701196D01*
X735050Y667446D02*
X733650Y665466D01*
X797349Y701792D02*
X797349Y725446D01*
X803849Y725446D02*
X803849Y701792D01*
X810349Y701792D02*
X810349Y725446D01*
X816849Y725446D02*
X816849Y701792D01*
X823349Y701792D02*
X823349Y725446D01*
X829849Y725446D02*
X829849Y701792D01*
X836349Y701792D02*
X836349Y725446D01*
X842849Y725446D02*
X842849Y701792D01*
X842849Y734292D02*
X842849Y757946D01*
X836349Y757946D02*
X836349Y734292D01*
X829849Y734292D02*
X829849Y757946D01*
X823349Y757946D02*
X823349Y734292D01*
X816849Y734292D02*
X816849Y757946D01*
X810349Y757946D02*
X810349Y734292D01*
X803849Y734292D02*
X803849Y757946D01*
X797349Y757946D02*
X797349Y734292D01*
X797042Y921998D02*
X734542Y921998D01*
X734542Y954498D01*
X797042Y921998D02*
X796792Y920748D01*
X734542Y954498D02*
X733142Y954498D01*
X842042Y921998D02*
X909542Y921998D01*
X909542Y954498D01*
X842042Y921998D02*
X842292Y920748D01*
X909542Y954498D02*
X910942Y954498D01*
X822642Y941998D02*
X822642Y921998D01*
X822642Y941998D02*
X834542Y954498D01*
X822642Y921998D02*
X822792Y920748D01*
X834542Y954498D02*
X834742Y954498D01*
X816162Y946998D02*
X816162Y921998D01*
X816162Y946998D02*
X809542Y954498D01*
X816162Y921998D02*
X816292Y920748D01*
X809542Y954498D02*
X809342Y954498D01*
X829212Y926998D02*
X829212Y921998D01*
X829212Y926998D02*
X837042Y934498D01*
X859542Y934498D01*
X859542Y954498D01*
X829212Y921998D02*
X829292Y920748D01*
X859542Y954498D02*
X860142Y954498D01*
X809712Y929498D02*
X809712Y921998D01*
X809712Y929498D02*
X784542Y954498D01*
X809712Y921998D02*
X809792Y920748D01*
X784542Y954498D02*
X783942Y954498D01*
X835852Y926998D02*
X835852Y921998D01*
X835852Y926998D02*
X839542Y929498D01*
X884542Y929498D01*
X884542Y954498D01*
X835852Y921998D02*
X835792Y920748D01*
X884542Y954498D02*
X885542Y954498D01*
X909542Y861998D02*
X842042Y861998D01*
X909542Y861998D02*
X909542Y829498D01*
X842042Y861998D02*
X842292Y863248D01*
X909542Y829498D02*
X910942Y827518D01*
X835782Y857168D02*
X835782Y862168D01*
X835782Y857168D02*
X847042Y846998D01*
X884542Y846998D01*
X884542Y829498D01*
X835782Y862168D02*
X835792Y863248D01*
X884542Y829498D02*
X885542Y827518D01*
X829372Y856888D02*
X829372Y861888D01*
X829372Y856888D02*
X859542Y826998D01*
X829372Y861888D02*
X829292Y863248D01*
X860142Y827518D02*
X859542Y826998D01*
X822732Y841998D02*
X822732Y861998D01*
X822732Y841998D02*
X834542Y829498D01*
X822732Y861998D02*
X822792Y863248D01*
X834542Y829498D02*
X834742Y827518D01*
X816242Y836998D02*
X816242Y861998D01*
X816242Y836998D02*
X809542Y829498D01*
X816242Y861998D02*
X816292Y863248D01*
X809542Y829498D02*
X809342Y827518D01*
X803302Y856998D02*
X803302Y861998D01*
X803302Y856998D02*
X792042Y846998D01*
X759542Y846998D01*
X759542Y829498D01*
X803302Y861998D02*
X803292Y863248D01*
X759542Y829498D02*
X758542Y827518D01*
X734542Y861998D02*
X797042Y861998D01*
X734542Y861998D02*
X734542Y829498D01*
X797042Y861998D02*
X796792Y863248D01*
X734542Y829498D02*
X733142Y827518D01*
X796841Y863844D02*
X796841Y887498D01*
X803341Y887498D02*
X803341Y863844D01*
X809841Y863844D02*
X809841Y887498D01*
X816341Y887498D02*
X816341Y863844D01*
X822841Y863844D02*
X822841Y887498D01*
X829341Y887498D02*
X829341Y863844D01*
X835841Y863844D02*
X835841Y887498D01*
X842341Y887498D02*
X842341Y863844D01*
X842341Y896344D02*
X842341Y919998D01*
X835841Y919998D02*
X835841Y896344D01*
X829341Y896344D02*
X829341Y919998D01*
X822841Y919998D02*
X822841Y896344D01*
X816341Y896344D02*
X816341Y919998D01*
X809841Y919998D02*
X809841Y896344D01*
X803341Y896344D02*
X803341Y919998D01*
X796841Y919998D02*
X796841Y896344D01*
M02*
