M48
;GenerationSoftware,Autodesk,EAGLE,8.7.0*%
;CreationDate,2018-03-14T20:50:36Z*%
FMAT,2
ICI,OFF
METRIC,TZ,000.000
T1C1.016
%
G90
M71
T1
X1626Y37744
X1626Y35204
X1626Y32664
X1626Y30124
X1626Y27584
X1626Y25044
X4166Y37744
X4166Y35204
X4166Y32664
X4166Y30124
X4166Y27584
X4166Y25044
X1626Y22504
X4166Y22504
X1626Y19964
X1626Y17424
X1626Y14884
X1626Y12344
X1626Y9804
X1626Y7264
X4166Y19964
X4166Y17424
X4166Y14884
X4166Y12344
X4166Y9804
X4166Y7264
X32106Y37744
X32106Y35204
X32106Y32664
X32106Y30124
X32106Y27584
X32106Y25044
X34646Y37744
X34646Y35204
X34646Y32664
X34646Y30124
X34646Y27584
X34646Y25044
X32106Y22504
X34646Y22504
X32106Y19964
X32106Y17424
X32106Y14884
X32106Y12344
X32106Y9804
X32106Y7264
X34646Y19964
X34646Y17424
X34646Y14884
X34646Y12344
X34646Y9804
X34646Y7264
X4166Y40919
X6706Y40919
X9246Y40919
X11786Y40919
X14326Y40919
X16866Y40919
X4166Y43459
X6706Y43459
X9246Y43459
X11786Y43459
X14326Y43459
X16866Y43459
X19406Y40919
X21946Y40919
X24486Y40919
X27026Y40919
X29566Y40919
X32106Y40919
X19406Y43459
X21946Y43459
X24486Y43459
X27026Y43459
X29566Y43459
X32106Y43459
X4166Y1549
X6706Y1549
X9246Y1549
X11786Y1549
X14326Y1549
X16866Y1549
X4166Y4089
X6706Y4089
X9246Y4089
X11786Y4089
X14326Y4089
X16866Y4089
X19406Y1549
X21946Y1549
X24486Y1549
X27026Y1549
X29566Y1549
X32106Y1549
X19406Y4089
X21946Y4089
X24486Y4089
X27026Y4089
X29566Y4089
X32106Y4089
X37440Y37770
X37440Y35230
X37440Y32690
X37440Y30150
X37440Y27610
X37440Y25070
X39980Y37770
X39980Y35230
X39980Y32690
X39980Y30150
X39980Y27610
X39980Y25070
X37440Y22530
X39980Y22530
X37440Y19990
X37440Y17450
X37440Y14910
X37440Y12370
X37440Y9830
X37440Y7290
X39980Y19990
X39980Y17450
X39980Y14910
X39980Y12370
X39980Y9830
X39980Y7290
X67920Y37770
X67920Y35230
X67920Y32690
X67920Y30150
X67920Y27610
X67920Y25070
X70460Y37770
X70460Y35230
X70460Y32690
X70460Y30150
X70460Y27610
X70460Y25070
X67920Y22530
X70460Y22530
X67920Y19990
X67920Y17450
X67920Y14910
X67920Y12370
X67920Y9830
X67920Y7290
X70460Y19990
X70460Y17450
X70460Y14910
X70460Y12370
X70460Y9830
X70460Y7290
X39980Y40945
X42520Y40945
X45060Y40945
X47600Y40945
X50140Y40945
X52680Y40945
X39980Y43485
X42520Y43485
X45060Y43485
X47600Y43485
X50140Y43485
X52680Y43485
X55220Y40945
X57760Y40945
X60300Y40945
X62840Y40945
X65380Y40945
X67920Y40945
X55220Y43485
X57760Y43485
X60300Y43485
X62840Y43485
X65380Y43485
X67920Y43485
X39980Y1575
X42520Y1575
X45060Y1575
X47600Y1575
X50140Y1575
X52680Y1575
X39980Y4115
X42520Y4115
X45060Y4115
X47600Y4115
X50140Y4115
X52680Y4115
X55220Y1575
X57760Y1575
X60300Y1575
X62840Y1575
X65380Y1575
X67920Y1575
X55220Y4115
X57760Y4115
X60300Y4115
X62840Y4115
X65380Y4115
X67920Y4115
X1549Y82448
X1549Y79908
X1549Y77368
X1549Y74828
X1549Y72288
X1549Y69748
X4089Y82448
X4089Y79908
X4089Y77368
X4089Y74828
X4089Y72288
X4089Y69748
X1549Y67208
X4089Y67208
X1549Y64668
X1549Y62128
X1549Y59588
X1549Y57048
X1549Y54508
X1549Y51968
X4089Y64668
X4089Y62128
X4089Y59588
X4089Y57048
X4089Y54508
X4089Y51968
X32029Y82448
X32029Y79908
X32029Y77368
X32029Y74828
X32029Y72288
X32029Y69748
X34569Y82448
X34569Y79908
X34569Y77368
X34569Y74828
X34569Y72288
X34569Y69748
X32029Y67208
X34569Y67208
X32029Y64668
X32029Y62128
X32029Y59588
X32029Y57048
X32029Y54508
X32029Y51968
X34569Y64668
X34569Y62128
X34569Y59588
X34569Y57048
X34569Y54508
X34569Y51968
X4089Y85623
X6629Y85623
X9169Y85623
X11709Y85623
X14249Y85623
X16789Y85623
X4089Y88163
X6629Y88163
X9169Y88163
X11709Y88163
X14249Y88163
X16789Y88163
X19329Y85623
X21869Y85623
X24409Y85623
X26949Y85623
X29489Y85623
X32029Y85623
X19329Y88163
X21869Y88163
X24409Y88163
X26949Y88163
X29489Y88163
X32029Y88163
X4089Y46253
X6629Y46253
X9169Y46253
X11709Y46253
X14249Y46253
X16789Y46253
X4089Y48793
X6629Y48793
X9169Y48793
X11709Y48793
X14249Y48793
X16789Y48793
X19329Y46253
X21869Y46253
X24409Y46253
X26949Y46253
X29489Y46253
X32029Y46253
X19329Y48793
X21869Y48793
X24409Y48793
X26949Y48793
X29489Y48793
X32029Y48793
X37414Y82525
X37414Y79985
X37414Y77445
X37414Y74905
X37414Y72365
X37414Y69825
X39954Y82525
X39954Y79985
X39954Y77445
X39954Y74905
X39954Y72365
X39954Y69825
X37414Y67285
X39954Y67285
X37414Y64745
X37414Y62205
X37414Y59665
X37414Y57125
X37414Y54585
X37414Y52045
X39954Y64745
X39954Y62205
X39954Y59665
X39954Y57125
X39954Y54585
X39954Y52045
X67894Y82525
X67894Y79985
X67894Y77445
X67894Y74905
X67894Y72365
X67894Y69825
X70434Y82525
X70434Y79985
X70434Y77445
X70434Y74905
X70434Y72365
X70434Y69825
X67894Y67285
X70434Y67285
X67894Y64745
X67894Y62205
X67894Y59665
X67894Y57125
X67894Y54585
X67894Y52045
X70434Y64745
X70434Y62205
X70434Y59665
X70434Y57125
X70434Y54585
X70434Y52045
X39954Y85700
X42494Y85700
X45034Y85700
X47574Y85700
X50114Y85700
X52654Y85700
X39954Y88240
X42494Y88240
X45034Y88240
X47574Y88240
X50114Y88240
X52654Y88240
X55194Y85700
X57734Y85700
X60274Y85700
X62814Y85700
X65354Y85700
X67894Y85700
X55194Y88240
X57734Y88240
X60274Y88240
X62814Y88240
X65354Y88240
X67894Y88240
X39954Y46330
X42494Y46330
X45034Y46330
X47574Y46330
X50114Y46330
X52654Y46330
X39954Y48870
X42494Y48870
X45034Y48870
X47574Y48870
X50114Y48870
X52654Y48870
X55194Y46330
X57734Y46330
X60274Y46330
X62814Y46330
X65354Y46330
X67894Y46330
X55194Y48870
X57734Y48870
X60274Y48870
X62814Y48870
X65354Y48870
X67894Y48870
X73416Y14500
X75956Y14500
X78496Y14500
X81036Y14500
X83576Y14500
X86116Y14500
X88656Y14500
X91196Y14500
X73416Y1802
X75956Y1802
X78496Y1802
X81036Y1802
X83576Y1802
X86116Y1802
X88656Y1802
X91196Y1802
X73365Y30578
X75905Y30578
X78445Y30578
X80985Y30578
X83525Y30578
X86065Y30578
X88605Y30578
X91145Y30578
X73365Y17880
X75905Y17880
X78445Y17880
X80985Y17880
X83525Y17880
X86065Y17880
X88605Y17880
X91145Y17880
X73390Y46733
X75930Y46733
X78470Y46733
X81010Y46733
X83550Y46733
X86090Y46733
X88630Y46733
X91170Y46733
X73390Y34035
X75930Y34035
X78470Y34035
X81010Y34035
X83550Y34035
X86090Y34035
X88630Y34035
X91170Y34035
X73365Y63039
X75905Y63039
X78445Y63039
X80985Y63039
X83525Y63039
X86065Y63039
X88605Y63039
X91145Y63039
X73365Y50341
X75905Y50341
X78445Y50341
X80985Y50341
X83525Y50341
X86065Y50341
X88605Y50341
X91145Y50341
X73365Y79245
X75905Y79245
X78445Y79245
X80985Y79245
X83525Y79245
X86065Y79245
X88605Y79245
X91145Y79245
X73365Y66547
X75905Y66547
X78445Y66547
X80985Y66547
X83525Y66547
X86065Y66547
X88605Y66547
X91145Y66547
X73314Y95450
X75854Y95450
X78394Y95450
X80934Y95450
X83474Y95450
X86014Y95450
X88554Y95450
X91094Y95450
X73314Y82752
X75854Y82752
X78394Y82752
X80934Y82752
X83474Y82752
X86014Y82752
X88554Y82752
X91094Y82752
M30