G04 EAGLE Gerber X2 export*
%TF.Part,Single*%
%TF.FileFunction,Soldermask,Top,1*%
%TF.FilePolarity,Negative*%
%TF.GenerationSoftware,Autodesk,EAGLE,8.7.0*%
%TF.CreationDate,2018-03-14T20:50:37Z*%
G75*
%MOMM*%
%FSLAX34Y34*%
%LPD*%
%AMOC8*
5,1,8,0,0,1.08239X$1,22.5*%
G01*
%ADD10R,1.012500X0.400000*%
%ADD11R,0.400000X1.012500*%
%ADD12P,1.869504X8X292.500000*%
%ADD13P,1.869504X8X22.500000*%
%ADD14C,1.727200*%
%ADD15R,0.838200X1.727200*%

G36*
X622292Y589477D02*
X622292Y589477D01*
X622343Y589479D01*
X622375Y589497D01*
X622411Y589505D01*
X622450Y589538D01*
X622495Y589562D01*
X622516Y589592D01*
X622544Y589615D01*
X622565Y589662D01*
X622595Y589704D01*
X622603Y589746D01*
X622615Y589774D01*
X622614Y589804D01*
X622622Y589846D01*
X622622Y756846D01*
X622611Y756896D01*
X622609Y756947D01*
X622591Y756979D01*
X622583Y757015D01*
X622550Y757054D01*
X622526Y757099D01*
X622496Y757120D01*
X622473Y757148D01*
X622426Y757169D01*
X622384Y757199D01*
X622342Y757207D01*
X622314Y757219D01*
X622284Y757218D01*
X622242Y757226D01*
X456242Y757226D01*
X456192Y757215D01*
X456141Y757213D01*
X456109Y757195D01*
X456073Y757187D01*
X456034Y757154D01*
X455989Y757130D01*
X455968Y757100D01*
X455940Y757077D01*
X455919Y757030D01*
X455889Y756988D01*
X455881Y756946D01*
X455869Y756918D01*
X455870Y756888D01*
X455862Y756846D01*
X455862Y589846D01*
X455873Y589796D01*
X455875Y589745D01*
X455893Y589713D01*
X455901Y589677D01*
X455934Y589638D01*
X455958Y589593D01*
X455988Y589572D01*
X456011Y589544D01*
X456058Y589523D01*
X456100Y589493D01*
X456142Y589485D01*
X456170Y589473D01*
X456200Y589474D01*
X456242Y589466D01*
X622242Y589466D01*
X622292Y589477D01*
G37*
G36*
X263644Y588715D02*
X263644Y588715D01*
X263695Y588717D01*
X263727Y588735D01*
X263763Y588743D01*
X263802Y588776D01*
X263847Y588800D01*
X263868Y588830D01*
X263896Y588853D01*
X263917Y588900D01*
X263947Y588942D01*
X263955Y588984D01*
X263967Y589012D01*
X263966Y589042D01*
X263974Y589084D01*
X263974Y756084D01*
X263963Y756134D01*
X263961Y756185D01*
X263943Y756217D01*
X263935Y756253D01*
X263902Y756292D01*
X263878Y756337D01*
X263848Y756358D01*
X263825Y756386D01*
X263778Y756407D01*
X263736Y756437D01*
X263694Y756445D01*
X263666Y756457D01*
X263636Y756456D01*
X263594Y756464D01*
X97594Y756464D01*
X97544Y756453D01*
X97493Y756451D01*
X97461Y756433D01*
X97425Y756425D01*
X97386Y756392D01*
X97341Y756368D01*
X97320Y756338D01*
X97292Y756315D01*
X97271Y756268D01*
X97241Y756226D01*
X97233Y756184D01*
X97221Y756156D01*
X97222Y756126D01*
X97214Y756084D01*
X97214Y589084D01*
X97225Y589034D01*
X97227Y588983D01*
X97245Y588951D01*
X97253Y588915D01*
X97286Y588876D01*
X97310Y588831D01*
X97340Y588810D01*
X97363Y588782D01*
X97410Y588761D01*
X97452Y588731D01*
X97494Y588723D01*
X97522Y588711D01*
X97552Y588712D01*
X97594Y588704D01*
X263594Y588704D01*
X263644Y588715D01*
G37*
G36*
X622546Y141929D02*
X622546Y141929D01*
X622597Y141931D01*
X622629Y141949D01*
X622665Y141957D01*
X622704Y141990D01*
X622749Y142014D01*
X622770Y142044D01*
X622798Y142067D01*
X622819Y142114D01*
X622849Y142156D01*
X622857Y142198D01*
X622869Y142226D01*
X622868Y142256D01*
X622876Y142298D01*
X622876Y309298D01*
X622865Y309348D01*
X622863Y309399D01*
X622845Y309431D01*
X622837Y309467D01*
X622804Y309506D01*
X622780Y309551D01*
X622750Y309572D01*
X622727Y309600D01*
X622680Y309621D01*
X622638Y309651D01*
X622596Y309659D01*
X622568Y309671D01*
X622538Y309670D01*
X622496Y309678D01*
X456496Y309678D01*
X456446Y309667D01*
X456395Y309665D01*
X456363Y309647D01*
X456327Y309639D01*
X456288Y309606D01*
X456243Y309582D01*
X456222Y309552D01*
X456194Y309529D01*
X456173Y309482D01*
X456143Y309440D01*
X456135Y309398D01*
X456123Y309370D01*
X456124Y309340D01*
X456116Y309298D01*
X456116Y142298D01*
X456127Y142248D01*
X456129Y142197D01*
X456147Y142165D01*
X456155Y142129D01*
X456188Y142090D01*
X456212Y142045D01*
X456242Y142024D01*
X456265Y141996D01*
X456312Y141975D01*
X456354Y141945D01*
X456396Y141937D01*
X456424Y141925D01*
X456454Y141926D01*
X456496Y141918D01*
X622496Y141918D01*
X622546Y141929D01*
G37*
G36*
X264406Y141675D02*
X264406Y141675D01*
X264457Y141677D01*
X264489Y141695D01*
X264525Y141703D01*
X264564Y141736D01*
X264609Y141760D01*
X264630Y141790D01*
X264658Y141813D01*
X264679Y141860D01*
X264709Y141902D01*
X264717Y141944D01*
X264729Y141972D01*
X264728Y142002D01*
X264736Y142044D01*
X264736Y309044D01*
X264725Y309094D01*
X264723Y309145D01*
X264705Y309177D01*
X264697Y309213D01*
X264664Y309252D01*
X264640Y309297D01*
X264610Y309318D01*
X264587Y309346D01*
X264540Y309367D01*
X264498Y309397D01*
X264456Y309405D01*
X264428Y309417D01*
X264398Y309416D01*
X264356Y309424D01*
X98356Y309424D01*
X98306Y309413D01*
X98255Y309411D01*
X98223Y309393D01*
X98187Y309385D01*
X98148Y309352D01*
X98103Y309328D01*
X98082Y309298D01*
X98054Y309275D01*
X98033Y309228D01*
X98003Y309186D01*
X97995Y309144D01*
X97983Y309116D01*
X97984Y309086D01*
X97976Y309044D01*
X97976Y142044D01*
X97987Y141994D01*
X97989Y141943D01*
X98007Y141911D01*
X98015Y141875D01*
X98048Y141836D01*
X98072Y141791D01*
X98102Y141770D01*
X98125Y141742D01*
X98172Y141721D01*
X98214Y141691D01*
X98256Y141683D01*
X98284Y141671D01*
X98314Y141672D01*
X98356Y141664D01*
X264356Y141664D01*
X264406Y141675D01*
G37*
G36*
X869492Y859929D02*
X869492Y859929D01*
X869543Y859931D01*
X869575Y859949D01*
X869611Y859957D01*
X869650Y859990D01*
X869695Y860014D01*
X869716Y860044D01*
X869744Y860067D01*
X869765Y860114D01*
X869795Y860156D01*
X869803Y860198D01*
X869815Y860226D01*
X869814Y860256D01*
X869822Y860298D01*
X869822Y923798D01*
X869811Y923848D01*
X869809Y923899D01*
X869791Y923931D01*
X869783Y923967D01*
X869750Y924006D01*
X869726Y924051D01*
X869696Y924072D01*
X869673Y924100D01*
X869626Y924121D01*
X869584Y924151D01*
X869542Y924159D01*
X869514Y924171D01*
X869484Y924170D01*
X869442Y924178D01*
X767842Y924178D01*
X767792Y924167D01*
X767741Y924165D01*
X767709Y924147D01*
X767673Y924139D01*
X767634Y924106D01*
X767589Y924082D01*
X767568Y924052D01*
X767540Y924029D01*
X767519Y923982D01*
X767489Y923940D01*
X767481Y923898D01*
X767469Y923870D01*
X767470Y923840D01*
X767462Y923798D01*
X767462Y860298D01*
X767473Y860248D01*
X767475Y860197D01*
X767493Y860165D01*
X767501Y860129D01*
X767534Y860090D01*
X767558Y860045D01*
X767588Y860024D01*
X767611Y859996D01*
X767658Y859975D01*
X767700Y859945D01*
X767742Y859937D01*
X767770Y859925D01*
X767800Y859926D01*
X767842Y859918D01*
X869442Y859918D01*
X869492Y859929D01*
G37*
G36*
X870000Y697877D02*
X870000Y697877D01*
X870051Y697879D01*
X870083Y697897D01*
X870119Y697905D01*
X870158Y697938D01*
X870203Y697962D01*
X870224Y697992D01*
X870252Y698015D01*
X870273Y698062D01*
X870303Y698104D01*
X870311Y698146D01*
X870323Y698174D01*
X870322Y698204D01*
X870330Y698246D01*
X870330Y761746D01*
X870319Y761796D01*
X870317Y761847D01*
X870299Y761879D01*
X870291Y761915D01*
X870258Y761954D01*
X870234Y761999D01*
X870204Y762020D01*
X870181Y762048D01*
X870134Y762069D01*
X870092Y762099D01*
X870050Y762107D01*
X870022Y762119D01*
X869992Y762118D01*
X869950Y762126D01*
X768350Y762126D01*
X768300Y762115D01*
X768249Y762113D01*
X768217Y762095D01*
X768181Y762087D01*
X768142Y762054D01*
X768097Y762030D01*
X768076Y762000D01*
X768048Y761977D01*
X768027Y761930D01*
X767997Y761888D01*
X767989Y761846D01*
X767977Y761818D01*
X767978Y761788D01*
X767970Y761746D01*
X767970Y698246D01*
X767981Y698196D01*
X767983Y698145D01*
X768001Y698113D01*
X768009Y698077D01*
X768042Y698038D01*
X768066Y697993D01*
X768096Y697972D01*
X768119Y697944D01*
X768166Y697923D01*
X768208Y697893D01*
X768250Y697885D01*
X768278Y697873D01*
X768308Y697874D01*
X768350Y697866D01*
X869950Y697866D01*
X870000Y697877D01*
G37*
G36*
X870000Y535825D02*
X870000Y535825D01*
X870051Y535827D01*
X870083Y535845D01*
X870119Y535853D01*
X870158Y535886D01*
X870203Y535910D01*
X870224Y535940D01*
X870252Y535963D01*
X870273Y536010D01*
X870303Y536052D01*
X870311Y536094D01*
X870323Y536122D01*
X870322Y536152D01*
X870330Y536194D01*
X870330Y599694D01*
X870319Y599744D01*
X870317Y599795D01*
X870299Y599827D01*
X870291Y599863D01*
X870258Y599902D01*
X870234Y599947D01*
X870204Y599968D01*
X870181Y599996D01*
X870134Y600017D01*
X870092Y600047D01*
X870050Y600055D01*
X870022Y600067D01*
X869992Y600066D01*
X869950Y600074D01*
X768350Y600074D01*
X768300Y600063D01*
X768249Y600061D01*
X768217Y600043D01*
X768181Y600035D01*
X768142Y600002D01*
X768097Y599978D01*
X768076Y599948D01*
X768048Y599925D01*
X768027Y599878D01*
X767997Y599836D01*
X767989Y599794D01*
X767977Y599766D01*
X767978Y599736D01*
X767970Y599694D01*
X767970Y536194D01*
X767981Y536144D01*
X767983Y536093D01*
X768001Y536061D01*
X768009Y536025D01*
X768042Y535986D01*
X768066Y535941D01*
X768096Y535920D01*
X768119Y535892D01*
X768166Y535871D01*
X768208Y535841D01*
X768250Y535833D01*
X768278Y535821D01*
X768308Y535822D01*
X768350Y535814D01*
X869950Y535814D01*
X870000Y535825D01*
G37*
G36*
X870254Y372757D02*
X870254Y372757D01*
X870305Y372759D01*
X870337Y372777D01*
X870373Y372785D01*
X870412Y372818D01*
X870457Y372842D01*
X870478Y372872D01*
X870506Y372895D01*
X870527Y372942D01*
X870557Y372984D01*
X870565Y373026D01*
X870577Y373054D01*
X870576Y373084D01*
X870584Y373126D01*
X870584Y436626D01*
X870573Y436676D01*
X870571Y436727D01*
X870553Y436759D01*
X870545Y436795D01*
X870512Y436834D01*
X870488Y436879D01*
X870458Y436900D01*
X870435Y436928D01*
X870388Y436949D01*
X870346Y436979D01*
X870304Y436987D01*
X870276Y436999D01*
X870246Y436998D01*
X870204Y437006D01*
X768604Y437006D01*
X768554Y436995D01*
X768503Y436993D01*
X768471Y436975D01*
X768435Y436967D01*
X768396Y436934D01*
X768351Y436910D01*
X768330Y436880D01*
X768302Y436857D01*
X768281Y436810D01*
X768251Y436768D01*
X768243Y436726D01*
X768231Y436698D01*
X768232Y436668D01*
X768224Y436626D01*
X768224Y373126D01*
X768235Y373076D01*
X768237Y373025D01*
X768255Y372993D01*
X768263Y372957D01*
X768296Y372918D01*
X768320Y372873D01*
X768350Y372852D01*
X768373Y372824D01*
X768420Y372803D01*
X768462Y372773D01*
X768504Y372765D01*
X768532Y372753D01*
X768562Y372754D01*
X768604Y372746D01*
X870204Y372746D01*
X870254Y372757D01*
G37*
G36*
X870000Y211213D02*
X870000Y211213D01*
X870051Y211215D01*
X870083Y211233D01*
X870119Y211241D01*
X870158Y211274D01*
X870203Y211298D01*
X870224Y211328D01*
X870252Y211351D01*
X870273Y211398D01*
X870303Y211440D01*
X870311Y211482D01*
X870323Y211510D01*
X870322Y211540D01*
X870330Y211582D01*
X870330Y275082D01*
X870319Y275132D01*
X870317Y275183D01*
X870299Y275215D01*
X870291Y275251D01*
X870258Y275290D01*
X870234Y275335D01*
X870204Y275356D01*
X870181Y275384D01*
X870134Y275405D01*
X870092Y275435D01*
X870050Y275443D01*
X870022Y275455D01*
X869992Y275454D01*
X869950Y275462D01*
X768350Y275462D01*
X768300Y275451D01*
X768249Y275449D01*
X768217Y275431D01*
X768181Y275423D01*
X768142Y275390D01*
X768097Y275366D01*
X768076Y275336D01*
X768048Y275313D01*
X768027Y275266D01*
X767997Y275224D01*
X767989Y275182D01*
X767977Y275154D01*
X767978Y275124D01*
X767970Y275082D01*
X767970Y211582D01*
X767981Y211532D01*
X767983Y211481D01*
X768001Y211449D01*
X768009Y211413D01*
X768042Y211374D01*
X768066Y211329D01*
X768096Y211308D01*
X768119Y211280D01*
X768166Y211259D01*
X768208Y211229D01*
X768250Y211221D01*
X768278Y211209D01*
X768308Y211210D01*
X768350Y211202D01*
X869950Y211202D01*
X870000Y211213D01*
G37*
G36*
X870508Y50431D02*
X870508Y50431D01*
X870559Y50433D01*
X870591Y50451D01*
X870627Y50459D01*
X870666Y50492D01*
X870711Y50516D01*
X870732Y50546D01*
X870760Y50569D01*
X870781Y50616D01*
X870811Y50658D01*
X870819Y50700D01*
X870831Y50728D01*
X870830Y50758D01*
X870838Y50800D01*
X870838Y114300D01*
X870827Y114350D01*
X870825Y114401D01*
X870807Y114433D01*
X870799Y114469D01*
X870766Y114508D01*
X870742Y114553D01*
X870712Y114574D01*
X870689Y114602D01*
X870642Y114623D01*
X870600Y114653D01*
X870558Y114661D01*
X870530Y114673D01*
X870500Y114672D01*
X870458Y114680D01*
X768858Y114680D01*
X768808Y114669D01*
X768757Y114667D01*
X768725Y114649D01*
X768689Y114641D01*
X768650Y114608D01*
X768605Y114584D01*
X768584Y114554D01*
X768556Y114531D01*
X768535Y114484D01*
X768505Y114442D01*
X768497Y114400D01*
X768485Y114372D01*
X768486Y114342D01*
X768478Y114300D01*
X768478Y50800D01*
X768489Y50750D01*
X768491Y50699D01*
X768509Y50667D01*
X768517Y50631D01*
X768550Y50592D01*
X768574Y50547D01*
X768604Y50526D01*
X768627Y50498D01*
X768674Y50477D01*
X768716Y50447D01*
X768758Y50439D01*
X768786Y50427D01*
X768816Y50428D01*
X768858Y50420D01*
X870458Y50420D01*
X870508Y50431D01*
G37*
D10*
X102794Y285044D03*
X102794Y280044D03*
X102794Y275044D03*
X102794Y270044D03*
X102794Y265044D03*
X102794Y260044D03*
X102794Y255044D03*
X102794Y250044D03*
X102794Y245044D03*
X102794Y240044D03*
X102794Y235044D03*
X102794Y230044D03*
X102794Y225044D03*
X102794Y220044D03*
X102794Y215044D03*
X102794Y210044D03*
X102794Y205044D03*
X102794Y200044D03*
X102794Y195044D03*
X102794Y190044D03*
X102794Y185044D03*
X102794Y180044D03*
X102794Y175044D03*
X102794Y170044D03*
X102794Y165044D03*
D11*
X121356Y146482D03*
X126356Y146482D03*
X131356Y146482D03*
X136356Y146482D03*
X141356Y146482D03*
X146356Y146482D03*
X151356Y146482D03*
X156356Y146482D03*
X161356Y146482D03*
X166356Y146482D03*
X171356Y146482D03*
X176356Y146482D03*
X181356Y146482D03*
X186356Y146482D03*
X191356Y146482D03*
X196356Y146482D03*
X201356Y146482D03*
X206356Y146482D03*
X211356Y146482D03*
X216356Y146482D03*
X221356Y146482D03*
X226356Y146482D03*
X231356Y146482D03*
X236356Y146482D03*
X241356Y146482D03*
D10*
X259919Y165044D03*
X259919Y170044D03*
X259919Y175044D03*
X259919Y180044D03*
X259919Y185044D03*
X259919Y190044D03*
X259919Y195044D03*
X259919Y200044D03*
X259919Y205044D03*
X259919Y210044D03*
X259919Y215044D03*
X259919Y220044D03*
X259919Y225044D03*
X259919Y230044D03*
X259919Y235044D03*
X259919Y240044D03*
X259919Y245044D03*
X259919Y250044D03*
X259919Y255044D03*
X259919Y260044D03*
X259919Y265044D03*
X259919Y270044D03*
X259919Y275044D03*
X259919Y280044D03*
X259919Y285044D03*
D11*
X241356Y303607D03*
X236356Y303607D03*
X231356Y303607D03*
X226356Y303607D03*
X221356Y303607D03*
X216356Y303607D03*
X211356Y303607D03*
X206356Y303607D03*
X201356Y303607D03*
X196356Y303607D03*
X191356Y303607D03*
X186356Y303607D03*
X181356Y303607D03*
X176356Y303607D03*
X171356Y303607D03*
X166356Y303607D03*
X161356Y303607D03*
X156356Y303607D03*
X151356Y303607D03*
X146356Y303607D03*
X141356Y303607D03*
X136356Y303607D03*
X131356Y303607D03*
X126356Y303607D03*
X121356Y303607D03*
D12*
X16256Y377444D03*
X16256Y352044D03*
X16256Y326644D03*
X16256Y301244D03*
X16256Y275844D03*
X16256Y250444D03*
X41656Y377444D03*
X41656Y352044D03*
X41656Y326644D03*
X41656Y301244D03*
X41656Y275844D03*
X41656Y250444D03*
X16256Y225044D03*
X41656Y225044D03*
X16256Y199644D03*
X16256Y174244D03*
X16256Y148844D03*
X16256Y123444D03*
X16256Y98044D03*
X16256Y72644D03*
X41656Y199644D03*
X41656Y174244D03*
X41656Y148844D03*
X41656Y123444D03*
X41656Y98044D03*
X41656Y72644D03*
X321056Y377444D03*
X321056Y352044D03*
X321056Y326644D03*
X321056Y301244D03*
X321056Y275844D03*
X321056Y250444D03*
X346456Y377444D03*
X346456Y352044D03*
X346456Y326644D03*
X346456Y301244D03*
X346456Y275844D03*
X346456Y250444D03*
X321056Y225044D03*
X346456Y225044D03*
X321056Y199644D03*
X321056Y174244D03*
X321056Y148844D03*
X321056Y123444D03*
X321056Y98044D03*
X321056Y72644D03*
X346456Y199644D03*
X346456Y174244D03*
X346456Y148844D03*
X346456Y123444D03*
X346456Y98044D03*
X346456Y72644D03*
D13*
X41656Y409194D03*
X67056Y409194D03*
X92456Y409194D03*
X117856Y409194D03*
X143256Y409194D03*
X168656Y409194D03*
X41656Y434594D03*
X67056Y434594D03*
X92456Y434594D03*
X117856Y434594D03*
X143256Y434594D03*
X168656Y434594D03*
X194056Y409194D03*
X219456Y409194D03*
X244856Y409194D03*
X270256Y409194D03*
X295656Y409194D03*
X321056Y409194D03*
X194056Y434594D03*
X219456Y434594D03*
X244856Y434594D03*
X270256Y434594D03*
X295656Y434594D03*
X321056Y434594D03*
X41656Y15494D03*
X67056Y15494D03*
X92456Y15494D03*
X117856Y15494D03*
X143256Y15494D03*
X168656Y15494D03*
X41656Y40894D03*
X67056Y40894D03*
X92456Y40894D03*
X117856Y40894D03*
X143256Y40894D03*
X168656Y40894D03*
X194056Y15494D03*
X219456Y15494D03*
X244856Y15494D03*
X270256Y15494D03*
X295656Y15494D03*
X321056Y15494D03*
X194056Y40894D03*
X219456Y40894D03*
X244856Y40894D03*
X270256Y40894D03*
X295656Y40894D03*
X321056Y40894D03*
D10*
X460934Y285298D03*
X460934Y280298D03*
X460934Y275298D03*
X460934Y270298D03*
X460934Y265298D03*
X460934Y260298D03*
X460934Y255298D03*
X460934Y250298D03*
X460934Y245298D03*
X460934Y240298D03*
X460934Y235298D03*
X460934Y230298D03*
X460934Y225298D03*
X460934Y220298D03*
X460934Y215298D03*
X460934Y210298D03*
X460934Y205298D03*
X460934Y200298D03*
X460934Y195298D03*
X460934Y190298D03*
X460934Y185298D03*
X460934Y180298D03*
X460934Y175298D03*
X460934Y170298D03*
X460934Y165298D03*
D11*
X479496Y146736D03*
X484496Y146736D03*
X489496Y146736D03*
X494496Y146736D03*
X499496Y146736D03*
X504496Y146736D03*
X509496Y146736D03*
X514496Y146736D03*
X519496Y146736D03*
X524496Y146736D03*
X529496Y146736D03*
X534496Y146736D03*
X539496Y146736D03*
X544496Y146736D03*
X549496Y146736D03*
X554496Y146736D03*
X559496Y146736D03*
X564496Y146736D03*
X569496Y146736D03*
X574496Y146736D03*
X579496Y146736D03*
X584496Y146736D03*
X589496Y146736D03*
X594496Y146736D03*
X599496Y146736D03*
D10*
X618059Y165298D03*
X618059Y170298D03*
X618059Y175298D03*
X618059Y180298D03*
X618059Y185298D03*
X618059Y190298D03*
X618059Y195298D03*
X618059Y200298D03*
X618059Y205298D03*
X618059Y210298D03*
X618059Y215298D03*
X618059Y220298D03*
X618059Y225298D03*
X618059Y230298D03*
X618059Y235298D03*
X618059Y240298D03*
X618059Y245298D03*
X618059Y250298D03*
X618059Y255298D03*
X618059Y260298D03*
X618059Y265298D03*
X618059Y270298D03*
X618059Y275298D03*
X618059Y280298D03*
X618059Y285298D03*
D11*
X599496Y303861D03*
X594496Y303861D03*
X589496Y303861D03*
X584496Y303861D03*
X579496Y303861D03*
X574496Y303861D03*
X569496Y303861D03*
X564496Y303861D03*
X559496Y303861D03*
X554496Y303861D03*
X549496Y303861D03*
X544496Y303861D03*
X539496Y303861D03*
X534496Y303861D03*
X529496Y303861D03*
X524496Y303861D03*
X519496Y303861D03*
X514496Y303861D03*
X509496Y303861D03*
X504496Y303861D03*
X499496Y303861D03*
X494496Y303861D03*
X489496Y303861D03*
X484496Y303861D03*
X479496Y303861D03*
D12*
X374396Y377698D03*
X374396Y352298D03*
X374396Y326898D03*
X374396Y301498D03*
X374396Y276098D03*
X374396Y250698D03*
X399796Y377698D03*
X399796Y352298D03*
X399796Y326898D03*
X399796Y301498D03*
X399796Y276098D03*
X399796Y250698D03*
X374396Y225298D03*
X399796Y225298D03*
X374396Y199898D03*
X374396Y174498D03*
X374396Y149098D03*
X374396Y123698D03*
X374396Y98298D03*
X374396Y72898D03*
X399796Y199898D03*
X399796Y174498D03*
X399796Y149098D03*
X399796Y123698D03*
X399796Y98298D03*
X399796Y72898D03*
X679196Y377698D03*
X679196Y352298D03*
X679196Y326898D03*
X679196Y301498D03*
X679196Y276098D03*
X679196Y250698D03*
X704596Y377698D03*
X704596Y352298D03*
X704596Y326898D03*
X704596Y301498D03*
X704596Y276098D03*
X704596Y250698D03*
X679196Y225298D03*
X704596Y225298D03*
X679196Y199898D03*
X679196Y174498D03*
X679196Y149098D03*
X679196Y123698D03*
X679196Y98298D03*
X679196Y72898D03*
X704596Y199898D03*
X704596Y174498D03*
X704596Y149098D03*
X704596Y123698D03*
X704596Y98298D03*
X704596Y72898D03*
D13*
X399796Y409448D03*
X425196Y409448D03*
X450596Y409448D03*
X475996Y409448D03*
X501396Y409448D03*
X526796Y409448D03*
X399796Y434848D03*
X425196Y434848D03*
X450596Y434848D03*
X475996Y434848D03*
X501396Y434848D03*
X526796Y434848D03*
X552196Y409448D03*
X577596Y409448D03*
X602996Y409448D03*
X628396Y409448D03*
X653796Y409448D03*
X679196Y409448D03*
X552196Y434848D03*
X577596Y434848D03*
X602996Y434848D03*
X628396Y434848D03*
X653796Y434848D03*
X679196Y434848D03*
X399796Y15748D03*
X425196Y15748D03*
X450596Y15748D03*
X475996Y15748D03*
X501396Y15748D03*
X526796Y15748D03*
X399796Y41148D03*
X425196Y41148D03*
X450596Y41148D03*
X475996Y41148D03*
X501396Y41148D03*
X526796Y41148D03*
X552196Y15748D03*
X577596Y15748D03*
X602996Y15748D03*
X628396Y15748D03*
X653796Y15748D03*
X679196Y15748D03*
X552196Y41148D03*
X577596Y41148D03*
X602996Y41148D03*
X628396Y41148D03*
X653796Y41148D03*
X679196Y41148D03*
D10*
X102032Y732084D03*
X102032Y727084D03*
X102032Y722084D03*
X102032Y717084D03*
X102032Y712084D03*
X102032Y707084D03*
X102032Y702084D03*
X102032Y697084D03*
X102032Y692084D03*
X102032Y687084D03*
X102032Y682084D03*
X102032Y677084D03*
X102032Y672084D03*
X102032Y667084D03*
X102032Y662084D03*
X102032Y657084D03*
X102032Y652084D03*
X102032Y647084D03*
X102032Y642084D03*
X102032Y637084D03*
X102032Y632084D03*
X102032Y627084D03*
X102032Y622084D03*
X102032Y617084D03*
X102032Y612084D03*
D11*
X120594Y593522D03*
X125594Y593522D03*
X130594Y593522D03*
X135594Y593522D03*
X140594Y593522D03*
X145594Y593522D03*
X150594Y593522D03*
X155594Y593522D03*
X160594Y593522D03*
X165594Y593522D03*
X170594Y593522D03*
X175594Y593522D03*
X180594Y593522D03*
X185594Y593522D03*
X190594Y593522D03*
X195594Y593522D03*
X200594Y593522D03*
X205594Y593522D03*
X210594Y593522D03*
X215594Y593522D03*
X220594Y593522D03*
X225594Y593522D03*
X230594Y593522D03*
X235594Y593522D03*
X240594Y593522D03*
D10*
X259157Y612084D03*
X259157Y617084D03*
X259157Y622084D03*
X259157Y627084D03*
X259157Y632084D03*
X259157Y637084D03*
X259157Y642084D03*
X259157Y647084D03*
X259157Y652084D03*
X259157Y657084D03*
X259157Y662084D03*
X259157Y667084D03*
X259157Y672084D03*
X259157Y677084D03*
X259157Y682084D03*
X259157Y687084D03*
X259157Y692084D03*
X259157Y697084D03*
X259157Y702084D03*
X259157Y707084D03*
X259157Y712084D03*
X259157Y717084D03*
X259157Y722084D03*
X259157Y727084D03*
X259157Y732084D03*
D11*
X240594Y750647D03*
X235594Y750647D03*
X230594Y750647D03*
X225594Y750647D03*
X220594Y750647D03*
X215594Y750647D03*
X210594Y750647D03*
X205594Y750647D03*
X200594Y750647D03*
X195594Y750647D03*
X190594Y750647D03*
X185594Y750647D03*
X180594Y750647D03*
X175594Y750647D03*
X170594Y750647D03*
X165594Y750647D03*
X160594Y750647D03*
X155594Y750647D03*
X150594Y750647D03*
X145594Y750647D03*
X140594Y750647D03*
X135594Y750647D03*
X130594Y750647D03*
X125594Y750647D03*
X120594Y750647D03*
D12*
X15494Y824484D03*
X15494Y799084D03*
X15494Y773684D03*
X15494Y748284D03*
X15494Y722884D03*
X15494Y697484D03*
X40894Y824484D03*
X40894Y799084D03*
X40894Y773684D03*
X40894Y748284D03*
X40894Y722884D03*
X40894Y697484D03*
X15494Y672084D03*
X40894Y672084D03*
X15494Y646684D03*
X15494Y621284D03*
X15494Y595884D03*
X15494Y570484D03*
X15494Y545084D03*
X15494Y519684D03*
X40894Y646684D03*
X40894Y621284D03*
X40894Y595884D03*
X40894Y570484D03*
X40894Y545084D03*
X40894Y519684D03*
X320294Y824484D03*
X320294Y799084D03*
X320294Y773684D03*
X320294Y748284D03*
X320294Y722884D03*
X320294Y697484D03*
X345694Y824484D03*
X345694Y799084D03*
X345694Y773684D03*
X345694Y748284D03*
X345694Y722884D03*
X345694Y697484D03*
X320294Y672084D03*
X345694Y672084D03*
X320294Y646684D03*
X320294Y621284D03*
X320294Y595884D03*
X320294Y570484D03*
X320294Y545084D03*
X320294Y519684D03*
X345694Y646684D03*
X345694Y621284D03*
X345694Y595884D03*
X345694Y570484D03*
X345694Y545084D03*
X345694Y519684D03*
D13*
X40894Y856234D03*
X66294Y856234D03*
X91694Y856234D03*
X117094Y856234D03*
X142494Y856234D03*
X167894Y856234D03*
X40894Y881634D03*
X66294Y881634D03*
X91694Y881634D03*
X117094Y881634D03*
X142494Y881634D03*
X167894Y881634D03*
X193294Y856234D03*
X218694Y856234D03*
X244094Y856234D03*
X269494Y856234D03*
X294894Y856234D03*
X320294Y856234D03*
X193294Y881634D03*
X218694Y881634D03*
X244094Y881634D03*
X269494Y881634D03*
X294894Y881634D03*
X320294Y881634D03*
X40894Y462534D03*
X66294Y462534D03*
X91694Y462534D03*
X117094Y462534D03*
X142494Y462534D03*
X167894Y462534D03*
X40894Y487934D03*
X66294Y487934D03*
X91694Y487934D03*
X117094Y487934D03*
X142494Y487934D03*
X167894Y487934D03*
X193294Y462534D03*
X218694Y462534D03*
X244094Y462534D03*
X269494Y462534D03*
X294894Y462534D03*
X320294Y462534D03*
X193294Y487934D03*
X218694Y487934D03*
X244094Y487934D03*
X269494Y487934D03*
X294894Y487934D03*
X320294Y487934D03*
D10*
X460680Y732846D03*
X460680Y727846D03*
X460680Y722846D03*
X460680Y717846D03*
X460680Y712846D03*
X460680Y707846D03*
X460680Y702846D03*
X460680Y697846D03*
X460680Y692846D03*
X460680Y687846D03*
X460680Y682846D03*
X460680Y677846D03*
X460680Y672846D03*
X460680Y667846D03*
X460680Y662846D03*
X460680Y657846D03*
X460680Y652846D03*
X460680Y647846D03*
X460680Y642846D03*
X460680Y637846D03*
X460680Y632846D03*
X460680Y627846D03*
X460680Y622846D03*
X460680Y617846D03*
X460680Y612846D03*
D11*
X479242Y594284D03*
X484242Y594284D03*
X489242Y594284D03*
X494242Y594284D03*
X499242Y594284D03*
X504242Y594284D03*
X509242Y594284D03*
X514242Y594284D03*
X519242Y594284D03*
X524242Y594284D03*
X529242Y594284D03*
X534242Y594284D03*
X539242Y594284D03*
X544242Y594284D03*
X549242Y594284D03*
X554242Y594284D03*
X559242Y594284D03*
X564242Y594284D03*
X569242Y594284D03*
X574242Y594284D03*
X579242Y594284D03*
X584242Y594284D03*
X589242Y594284D03*
X594242Y594284D03*
X599242Y594284D03*
D10*
X617805Y612846D03*
X617805Y617846D03*
X617805Y622846D03*
X617805Y627846D03*
X617805Y632846D03*
X617805Y637846D03*
X617805Y642846D03*
X617805Y647846D03*
X617805Y652846D03*
X617805Y657846D03*
X617805Y662846D03*
X617805Y667846D03*
X617805Y672846D03*
X617805Y677846D03*
X617805Y682846D03*
X617805Y687846D03*
X617805Y692846D03*
X617805Y697846D03*
X617805Y702846D03*
X617805Y707846D03*
X617805Y712846D03*
X617805Y717846D03*
X617805Y722846D03*
X617805Y727846D03*
X617805Y732846D03*
D11*
X599242Y751409D03*
X594242Y751409D03*
X589242Y751409D03*
X584242Y751409D03*
X579242Y751409D03*
X574242Y751409D03*
X569242Y751409D03*
X564242Y751409D03*
X559242Y751409D03*
X554242Y751409D03*
X549242Y751409D03*
X544242Y751409D03*
X539242Y751409D03*
X534242Y751409D03*
X529242Y751409D03*
X524242Y751409D03*
X519242Y751409D03*
X514242Y751409D03*
X509242Y751409D03*
X504242Y751409D03*
X499242Y751409D03*
X494242Y751409D03*
X489242Y751409D03*
X484242Y751409D03*
X479242Y751409D03*
D12*
X374142Y825246D03*
X374142Y799846D03*
X374142Y774446D03*
X374142Y749046D03*
X374142Y723646D03*
X374142Y698246D03*
X399542Y825246D03*
X399542Y799846D03*
X399542Y774446D03*
X399542Y749046D03*
X399542Y723646D03*
X399542Y698246D03*
X374142Y672846D03*
X399542Y672846D03*
X374142Y647446D03*
X374142Y622046D03*
X374142Y596646D03*
X374142Y571246D03*
X374142Y545846D03*
X374142Y520446D03*
X399542Y647446D03*
X399542Y622046D03*
X399542Y596646D03*
X399542Y571246D03*
X399542Y545846D03*
X399542Y520446D03*
X678942Y825246D03*
X678942Y799846D03*
X678942Y774446D03*
X678942Y749046D03*
X678942Y723646D03*
X678942Y698246D03*
X704342Y825246D03*
X704342Y799846D03*
X704342Y774446D03*
X704342Y749046D03*
X704342Y723646D03*
X704342Y698246D03*
X678942Y672846D03*
X704342Y672846D03*
X678942Y647446D03*
X678942Y622046D03*
X678942Y596646D03*
X678942Y571246D03*
X678942Y545846D03*
X678942Y520446D03*
X704342Y647446D03*
X704342Y622046D03*
X704342Y596646D03*
X704342Y571246D03*
X704342Y545846D03*
X704342Y520446D03*
D13*
X399542Y856996D03*
X424942Y856996D03*
X450342Y856996D03*
X475742Y856996D03*
X501142Y856996D03*
X526542Y856996D03*
X399542Y882396D03*
X424942Y882396D03*
X450342Y882396D03*
X475742Y882396D03*
X501142Y882396D03*
X526542Y882396D03*
X551942Y856996D03*
X577342Y856996D03*
X602742Y856996D03*
X628142Y856996D03*
X653542Y856996D03*
X678942Y856996D03*
X551942Y882396D03*
X577342Y882396D03*
X602742Y882396D03*
X628142Y882396D03*
X653542Y882396D03*
X678942Y882396D03*
X399542Y463296D03*
X424942Y463296D03*
X450342Y463296D03*
X475742Y463296D03*
X501142Y463296D03*
X526542Y463296D03*
X399542Y488696D03*
X424942Y488696D03*
X450342Y488696D03*
X475742Y488696D03*
X501142Y488696D03*
X526542Y488696D03*
X551942Y463296D03*
X577342Y463296D03*
X602742Y463296D03*
X628142Y463296D03*
X653542Y463296D03*
X678942Y463296D03*
X551942Y488696D03*
X577342Y488696D03*
X602742Y488696D03*
X628142Y488696D03*
X653542Y488696D03*
X678942Y488696D03*
D14*
X734158Y152620D02*
X734158Y137380D01*
X759558Y137380D02*
X759558Y152620D01*
X784958Y152620D02*
X784958Y137380D01*
X810358Y137380D02*
X810358Y152620D01*
X835758Y152620D02*
X835758Y137380D01*
X861158Y137380D02*
X861158Y152620D01*
X886558Y152620D02*
X886558Y137380D01*
X911958Y137380D02*
X911958Y152620D01*
X734158Y25640D02*
X734158Y10400D01*
X759558Y10400D02*
X759558Y25640D01*
X784958Y25640D02*
X784958Y10400D01*
X810358Y10400D02*
X810358Y25640D01*
X835758Y25640D02*
X835758Y10400D01*
X861158Y10400D02*
X861158Y25640D01*
X886558Y25640D02*
X886558Y10400D01*
X911958Y10400D02*
X911958Y25640D01*
D15*
X865008Y109170D03*
X852308Y109170D03*
X839608Y109170D03*
X826908Y109170D03*
X814208Y109170D03*
X801508Y109170D03*
X788808Y109170D03*
X776108Y109170D03*
X776108Y55830D03*
X788808Y55830D03*
X801508Y55830D03*
X814208Y55830D03*
X826908Y55830D03*
X839608Y55830D03*
X852308Y55830D03*
X865008Y55830D03*
D14*
X733650Y298162D02*
X733650Y313402D01*
X759050Y313402D02*
X759050Y298162D01*
X784450Y298162D02*
X784450Y313402D01*
X809850Y313402D02*
X809850Y298162D01*
X835250Y298162D02*
X835250Y313402D01*
X860650Y313402D02*
X860650Y298162D01*
X886050Y298162D02*
X886050Y313402D01*
X911450Y313402D02*
X911450Y298162D01*
X733650Y186422D02*
X733650Y171182D01*
X759050Y171182D02*
X759050Y186422D01*
X784450Y186422D02*
X784450Y171182D01*
X809850Y171182D02*
X809850Y186422D01*
X835250Y186422D02*
X835250Y171182D01*
X860650Y171182D02*
X860650Y186422D01*
X886050Y186422D02*
X886050Y171182D01*
X911450Y171182D02*
X911450Y186422D01*
D15*
X864500Y269952D03*
X851800Y269952D03*
X839100Y269952D03*
X826400Y269952D03*
X813700Y269952D03*
X801000Y269952D03*
X788300Y269952D03*
X775600Y269952D03*
X775600Y216612D03*
X788300Y216612D03*
X801000Y216612D03*
X813700Y216612D03*
X826400Y216612D03*
X839100Y216612D03*
X851800Y216612D03*
X864500Y216612D03*
D14*
X733904Y459706D02*
X733904Y474946D01*
X759304Y474946D02*
X759304Y459706D01*
X784704Y459706D02*
X784704Y474946D01*
X810104Y474946D02*
X810104Y459706D01*
X835504Y459706D02*
X835504Y474946D01*
X860904Y474946D02*
X860904Y459706D01*
X886304Y459706D02*
X886304Y474946D01*
X911704Y474946D02*
X911704Y459706D01*
X733904Y347966D02*
X733904Y332726D01*
X759304Y332726D02*
X759304Y347966D01*
X784704Y347966D02*
X784704Y332726D01*
X810104Y332726D02*
X810104Y347966D01*
X835504Y347966D02*
X835504Y332726D01*
X860904Y332726D02*
X860904Y347966D01*
X886304Y347966D02*
X886304Y332726D01*
X911704Y332726D02*
X911704Y347966D01*
D15*
X864754Y431496D03*
X852054Y431496D03*
X839354Y431496D03*
X826654Y431496D03*
X813954Y431496D03*
X801254Y431496D03*
X788554Y431496D03*
X775854Y431496D03*
X775854Y378156D03*
X788554Y378156D03*
X801254Y378156D03*
X813954Y378156D03*
X826654Y378156D03*
X839354Y378156D03*
X852054Y378156D03*
X864754Y378156D03*
D14*
X733650Y622774D02*
X733650Y638014D01*
X759050Y638014D02*
X759050Y622774D01*
X784450Y622774D02*
X784450Y638014D01*
X809850Y638014D02*
X809850Y622774D01*
X835250Y622774D02*
X835250Y638014D01*
X860650Y638014D02*
X860650Y622774D01*
X886050Y622774D02*
X886050Y638014D01*
X911450Y638014D02*
X911450Y622774D01*
X733650Y511034D02*
X733650Y495794D01*
X759050Y495794D02*
X759050Y511034D01*
X784450Y511034D02*
X784450Y495794D01*
X809850Y495794D02*
X809850Y511034D01*
X835250Y511034D02*
X835250Y495794D01*
X860650Y495794D02*
X860650Y511034D01*
X886050Y511034D02*
X886050Y495794D01*
X911450Y495794D02*
X911450Y511034D01*
D15*
X864500Y594564D03*
X851800Y594564D03*
X839100Y594564D03*
X826400Y594564D03*
X813700Y594564D03*
X801000Y594564D03*
X788300Y594564D03*
X775600Y594564D03*
X775600Y541224D03*
X788300Y541224D03*
X801000Y541224D03*
X813700Y541224D03*
X826400Y541224D03*
X839100Y541224D03*
X851800Y541224D03*
X864500Y541224D03*
D14*
X733650Y784826D02*
X733650Y800066D01*
X759050Y800066D02*
X759050Y784826D01*
X784450Y784826D02*
X784450Y800066D01*
X809850Y800066D02*
X809850Y784826D01*
X835250Y784826D02*
X835250Y800066D01*
X860650Y800066D02*
X860650Y784826D01*
X886050Y784826D02*
X886050Y800066D01*
X911450Y800066D02*
X911450Y784826D01*
X733650Y673086D02*
X733650Y657846D01*
X759050Y657846D02*
X759050Y673086D01*
X784450Y673086D02*
X784450Y657846D01*
X809850Y657846D02*
X809850Y673086D01*
X835250Y673086D02*
X835250Y657846D01*
X860650Y657846D02*
X860650Y673086D01*
X886050Y673086D02*
X886050Y657846D01*
X911450Y657846D02*
X911450Y673086D01*
D15*
X864500Y756616D03*
X851800Y756616D03*
X839100Y756616D03*
X826400Y756616D03*
X813700Y756616D03*
X801000Y756616D03*
X788300Y756616D03*
X775600Y756616D03*
X775600Y703276D03*
X788300Y703276D03*
X801000Y703276D03*
X813700Y703276D03*
X826400Y703276D03*
X839100Y703276D03*
X851800Y703276D03*
X864500Y703276D03*
D14*
X733142Y946878D02*
X733142Y962118D01*
X758542Y962118D02*
X758542Y946878D01*
X783942Y946878D02*
X783942Y962118D01*
X809342Y962118D02*
X809342Y946878D01*
X834742Y946878D02*
X834742Y962118D01*
X860142Y962118D02*
X860142Y946878D01*
X885542Y946878D02*
X885542Y962118D01*
X910942Y962118D02*
X910942Y946878D01*
X733142Y835138D02*
X733142Y819898D01*
X758542Y819898D02*
X758542Y835138D01*
X783942Y835138D02*
X783942Y819898D01*
X809342Y819898D02*
X809342Y835138D01*
X834742Y835138D02*
X834742Y819898D01*
X860142Y819898D02*
X860142Y835138D01*
X885542Y835138D02*
X885542Y819898D01*
X910942Y819898D02*
X910942Y835138D01*
D15*
X863992Y918668D03*
X851292Y918668D03*
X838592Y918668D03*
X825892Y918668D03*
X813192Y918668D03*
X800492Y918668D03*
X787792Y918668D03*
X775092Y918668D03*
X775092Y865328D03*
X787792Y865328D03*
X800492Y865328D03*
X813192Y865328D03*
X825892Y865328D03*
X838592Y865328D03*
X851292Y865328D03*
X863992Y865328D03*
M02*
